<?xml version="1.0" encoding="utf-8"?>
<!-- Generator: Adobe Illustrator 22.1.0, SVG Export Plug-In . SVG Version: 6.00 Build 0)  -->
<svg version="1.1" id="maoiq_komfort" xmlns="http://www.w3.org/2000/svg" xmlns:xlink="http://www.w3.org/1999/xlink" x="0px"
	 y="0px" viewBox="0 0 496 39.5" style="enable-background:new 0 0 496 39.5;" xml:space="preserve">
<style type="text/css">
	.st0{fill:#5A4F1E;}
</style>
<path class="st0" d="M71,0.5l0.6,0.1l0.6-0.2l0.6,0.1l0.6,0l0.7-0.1L74.5,1l0.2,0.6l0.1,0.6l0.3,0.6l0.1,0.6l0.5,0.4l0,0.7L76.2,5
	l0.3,0.6l0.3,0.5l0.3,0.6l0.2,0.6l0.2,0.6l0.3,0.5l0.4,0.5l0.2,0.6l0.2,0.6l0.5,0.5l0.1,0.6l0.2,0.6l0.3,0.5l0.2,0.6l0.4,0.5
	l0.3,0.6l0.1,0.6l0.2,0.6l0.3,0.5l0.4,0.5l0.2,0.6l0.2,0.6l0.3,0.6l0.4,0.5l0.1,0.6l0.2,0.6l0.4,0.5l0.1,0.6l0.3,0.5l0.3,0.5
	l0.1,0.6l0.2,0.6l0.5,0.5l0.1,0.6l0.3,0.6l0.2,0.6l0.5,0.4l0.3,0.5l0.2,0.6l0.1,0.6l0.3,0.5l0.2,0.6l0.2,0.6l0.3,0.6l0.2,0.6
	l0.5,0.5l0.1,0.6l0.3,0.5l0.2,0.6l0.2,0.6l0.3,0.5l0.1,0.6l0.3,0.5l0.4,0.5l0.1,0.6l0.3,0.5l0.3,0.5l0.3,0.5l0.1,0.6l0.2,0.5
	l-0.6-0.1l-0.7,0.1l-0.7,0.2l-0.7-0.1l-0.7,0l-0.7-0.2l-0.5,0.3l-0.5-0.2l-0.3-0.5l-0.3-0.5l0-0.7l-0.4-0.5l-0.1-0.6l-0.2-0.6
	l-0.2-0.6l-0.3-0.5l-0.3-0.5l-0.2-0.6l-0.3-0.5L83.9,32l-0.5-0.4l0-0.7L83,30.4l-0.2-0.6l-0.2-0.6l-0.6-0.5l-0.7-0.3l-0.6,0.3
	l-0.6,0l-0.6-0.1l-0.6-0.1l-0.6,0.2l-0.6-0.1l-0.6,0.1l-0.6,0l-0.6-0.1l-0.6,0.1l-0.6,0L74,28.7l-0.6-0.1l-0.6,0.1l-0.6-0.2
	l-0.6,0.2l-0.6-0.2l-0.6,0.1l-0.6,0.1l-0.6,0l-0.6,0l-0.6-0.2l-0.6,0.2l-0.6-0.1L66,28.4l-0.6,0.3l-0.6-0.1l-0.6,0l-0.6,0.1L63,28.4
	l-0.7,0.3l-0.3,0.6l-0.3,0.5l-0.4,0.5l-0.4,0.5l-0.2,0.6L60.5,32l-0.2,0.6l-0.2,0.6l-0.4,0.5l-0.2,0.6l-0.3,0.5L59,35.3l-0.3,0.5
	l-0.2,0.6L58.4,37L58,37.5l-0.2,0.6l-0.3,0.6L57,38.5l-0.5,0.1l-0.6,0.1l-0.6,0.1l-0.6-0.2l-0.6,0l-0.6,0l-0.6,0.1l0.1-0.6l0.4-0.5
	l0.3-0.5l0.1-0.6l0.4-0.5l0.1-0.6l0.3-0.5l0.4-0.5l0.3-0.6l0.1-0.7l0.2-0.6l0.4-0.5l0.3-0.5l0.3-0.5l0.1-0.7l0.4-0.5l0.3-0.5
	l0.1-0.6l0.3-0.6l0.3-0.5l0.2-0.6l0.4-0.5l0.1-0.6l0.3-0.5l0.4-0.5l0-0.7l0.2-0.6l0.3-0.5l0.4-0.5l0.3-0.5l0.1-0.6l0.1-0.6l0.4-0.5
	l0.1-0.6l0.4-0.5l0.3-0.6l0.2-0.6l0.2-0.6l0.3-0.5l0.4-0.5l0-0.7l0.3-0.5l0.4-0.5l0.1-0.6l0.3-0.5l0.4-0.5l0.1-0.6l0.4-0.5l0.2-0.6
	l0.3-0.5L66,10l0.2-0.6L66.7,9l0.2-0.6L67,7.8l0.1-0.6l0.6-0.4l0.1-0.7l0.2-0.6l0.3-0.5l0.3-0.6l0.4-0.5l0.2-0.6l0.1-0.6l0.3-0.5
	l0.3-0.6l0.4-0.5l0.2-0.6L71,0.5z M79.8,24l0.1-0.7l-0.3-0.6l-0.2-0.6l-0.3-0.6l-0.4-0.5l-0.1-0.6L78.2,20l-0.3-0.6l0-0.7l-0.3-0.5
	l-0.3-0.5l-0.3-0.5l0-0.7l-0.3-0.5l-0.3-0.6L76,14.8l-0.4-0.5l-0.1-0.6l-0.2-0.6l-0.4-0.5l-0.1-0.6l-0.4-0.5l-0.2-0.6l-0.1-0.6
	l-0.3-0.6l-0.5-0.5L73,8.7l-0.2-0.6l-0.2-0.6L72.2,7l-0.3,0.5l-0.4,0.5l-0.3,0.5l-0.1,0.6l-0.3,0.6l-0.3,0.5l-0.2,0.6l-0.4,0.5
	l-0.1,0.6l-0.3,0.6L69,13.1l0,0.7l-0.2,0.6l-0.3,0.6l-0.4,0.5l-0.3,0.5l-0.1,0.6l-0.1,0.6l-0.4,0.5L67,18.3l-0.4,0.5l-0.3,0.6
	L66.1,20l-0.2,0.6l-0.3,0.6l-0.4,0.5l0,0.7l-0.3,0.5l-0.4,0.5l0.1,0.6l0.5,0.3l0.6,0.2l0.6-0.2l0.6,0.2l0.6-0.1l0.6,0.1l0.6,0l0.6,0
	l0.6,0.2l0.6,0l0.6-0.2l0.6-0.2l0.6,0.3l0.6-0.2l0.6-0.1l0.6,0.1l0.6,0l0.6,0.2l0.6,0l0.6-0.2l0.6,0l0.6,0l0.6,0.2l0.6-0.1L79.8,24z
	 M19.8,19l-0.5,0.5L19,20l-0.4,0.5L18.1,21l-0.5-0.6L17,20.1l-0.3-0.6l-0.3-0.6l-0.4-0.5l-0.3-0.6l-0.5-0.4l-0.4-0.5l-0.2-0.6
	l-0.5-0.4l-0.3-0.6l-0.2-0.6l-0.5-0.4l-0.2-0.6l-0.3-0.5l-0.4-0.5l-0.3-0.5l-0.5-0.4l-0.3-0.5l-0.3-0.6l-0.5-0.4l-0.2-0.6L9.6,9.1
	L9.5,8.5L9.1,8L8.8,7.4L8.4,6.9L7.9,6.5L7.7,5.9L7.2,5.4L6.9,4.9L6.6,4.4L6.3,3.8L5.8,3.4L5.5,2.8L5.1,2.4L4.8,1.8L4.4,1.3L4,0.8
	L3.4,0.7l-0.6,0L2.1,0.9l-0.7,0l-0.7,0L0.3,0.9L0,1.4L0.1,2l0,0.6l0,0.6L0,3.9l0.1,0.6l0.1,0.6l0,0.6L0.2,6.3L0.2,7L0.2,7.6L0.1,8.2
	l0,0.6l0,0.6l0.1,0.6l0,0.6l0,0.6l0.1,0.6l-0.1,0.6l-0.1,0.6l0.1,0.6l-0.1,0.6l0,0.6l0.2,0.6l0.1,0.6l0,0.6L0,17.5l0.3,0.6L0,18.7
	l0.1,0.6L0,20l0.1,0.6l0,0.6L0,21.8l0.3,0.6l0.1,0.6l-0.2,0.6l0,0.6l0.1,0.6L0,25.5l0.2,0.6l0.1,0.6l-0.1,0.6L0.3,28L0,28.7l0.1,0.6
	l0,0.6l0.1,0.6l0.1,0.6l-0.1,0.6l0,0.6L0.3,33l-0.1,0.6l0,0.6l0,0.6l0,0.6L0,36.1l0,0.6l0,0.6L0.3,38l-0.1,0.6l0.6-0.1l0.6,0L2,38.7
	l0.6,0.1l0.6-0.3l0.6,0.2l0.7,0.1L4.5,38l0-0.6l-0.1-0.6l0-0.6l0.3-0.6l0.1-0.6l-0.3-0.6l0.1-0.6l0-0.6l0.1-0.6l0.1-0.6l-0.2-0.6
	l0.3-0.6l0-0.6l-0.3-0.6l0.1-0.6L4.6,28l-0.1-0.6l0.2-0.6l-0.2-0.6l0.2-0.6l-0.2-0.6l0-0.6l0.2-0.6l0-0.6l0.1-0.6l-0.2-0.6l0.1-0.6
	l-0.2-0.6l0-0.6l0.1-0.6l0.1-0.6l0-0.6l0-0.6l0.1-0.6l0-0.6l0-0.6l-0.1-0.6l-0.1-0.6l0-0.6L4.6,13l-0.1-0.6l0-0.6L4.7,11l0-0.6
	l0.4-0.1l0.4,0.4L6,11.2l0.3,0.6l0.3,0.5l0.2,0.6l0.4,0.5l0.4,0.5l0.3,0.5l0.5,0.4l0.4,0.5l0.2,0.6l0.5,0.4l0.2,0.6l0.5,0.4l0.3,0.5
	l0.2,0.6l0.5,0.4l0.4,0.5l0.3,0.5l0.1,0.6l0.5,0.4l0.3,0.5l0.4,0.5l0.3,0.5l0.4,0.5l0.3,0.5l0.2,0.6l0.2,0.6l0.5,0.4l0.3,0.5
	l0.4,0.5l0.3,0.5l0.5,0.1l0.6,0.1l0.6-0.2l0.6,0.1l0.6,0.1l0.6,0l0.2-0.7l0.4-0.5l0.4-0.5l0.3-0.6l0.6-0.4l0.2-0.6l0.4-0.5l0.3-0.6
	l0.5-0.4l0.1-0.7l0.4-0.5l0.5-0.4l0.2-0.6l0.2-0.6l0.5-0.4l0.3-0.5l0.4-0.5l0.3-0.6l0.6-0.4l0.2-0.6l0.4-0.5l0.4-0.5l0,0l0.2-0.6
	l0.4-0.4l0.4-0.4l0.2-0.5l0.4-0.4l0.2-0.6l0.6-0.3l0.3-0.5l0.1-0.7l0.6-0.2l0.6,0L31.3,11l0.1,0.6l0.1,0.6l-0.2,0.6l0.1,0.6
	l-0.1,0.6l0.2,0.6l0,0.6l-0.1,0.6l0,0.6l0,0.6l0.2,0.6l0,0.6l0.1,0.6l-0.3,0.6l0.2,0.6l0,0.6l0.1,0.6l-0.3,0.6l0.3,0.6l-0.2,0.6
	l0,0.6l0,0.6l0.1,0.6l0,0.6l0.1,0.6l0,0.6l0,0.6l-0.1,0.6l0.1,0.6l-0.1,0.6l0.1,0.6l-0.1,0.6l-0.2,0.6l0.1,0.6l0,0.6l0.1,0.6l0,0.6
	l0,0.6l0.2,0.6l0.1,0.6l-0.2,0.6l-0.1,0.6L31.3,38l0.2,0.6l0.6,0.2l0.6-0.2l0.6,0.2l0.6,0l0.6-0.1l0.6-0.2l0.7,0.2l0-0.7l-0.2-0.6
	l0.2-0.6l-0.2-0.6l0.1-0.6l0.1-0.6l0.1-0.6l0-0.6l0-0.6l-0.3-0.6l0.1-0.6l0.2-0.6L36,30.6l0-0.6l0-0.6l0-0.6l0.1-0.6l-0.2-0.6
	l0.2-0.6l0-0.6l-0.2-0.6l0-0.6l0.1-0.6l-0.1-0.6l0-0.6l0.1-0.6l0.1-0.6l-0.2-0.6l0-0.6l0.1-0.6l0-0.6l0.1-0.6l-0.2-0.6l0-0.6
	l0.2-0.6l0-0.6l0-0.6L36,15.1l-0.1-0.6l-0.1-0.6l0.2-0.6l-0.2-0.6l0.1-0.6l0.2-0.6l0-0.6L36,10.1L36,9.5l-0.1-0.6l0-0.6l0.2-0.6
	L36,7l-0.1-0.6L36,5.8l-0.1-0.6l0-0.6l0-0.6L36,3.3l0-0.6L35.8,2l0-0.6l0.1-0.6l-0.6,0.2l-0.6-0.1L34,0.7l-0.7,0.2l-0.7-0.2
	l-0.6,0.2l-0.5,0.3l-0.3,0.5L31,2.2l-0.3,0.5l-0.4,0.4L30,3.8l-0.3,0.5l-0.4,0.5L29,5.3l-0.5,0.4l-0.3,0.5l-0.4,0.5l-0.1,0.7
	l-0.6,0.3l-0.3,0.5l-0.2,0.6l-0.4,0.5l-0.4,0.5l-0.2,0.6l-0.5,0.4l-0.3,0.5l-0.3,0.5L24,12.3l-0.3,0.6l-0.4,0.5l-0.2,0.6l-0.5,0.4
	l-0.4,0.5l-0.2,0.6l-0.3,0.5l-0.5,0.4L21,16.9l-0.3,0.5l-0.4,0.5L20,18.4L19.8,19z M136.9,6.4l0.4,0.5l0.4,0.5l0.5,0.4l0.2,0.6
	l0.4,0.5l0.4,0.5l0.1,0.6l0.2,0.6l0.3,0.5l0.5,0.5l0,0.6l0.2,0.6l0.2,0.6l0.1,0.6l0.3,0.5l0.1,0.6l0,0.6l0.3,0.6l0.1,0.6l0.1,0.6
	l0.1,0.6l-0.1,0.6l0,0.6l0,0.5l0.2,0.6l-0.1,0.6l-0.2,0.6l-0.1,0.6l0,0.6l-0.3,0.6l0.1,0.6l-0.3,0.6l0.1,0.7l-0.4,0.5l-0.2,0.6
	l0,0.6l-0.4,0.5l-0.3,0.5l-0.3,0.5l-0.2,0.6l-0.3,0.5l-0.3,0.5l-0.4,0.5l-0.2,0.6l-0.3,0.6l-0.4,0.4l-0.5,0.4l-0.3,0.6l-0.4,0.4
	l-0.4,0.5l-0.6,0.3l-0.4,0.5l-0.5,0.3l-0.6,0.2l-0.3,0.6l-0.7,0.1l-0.5,0.4l-0.6,0.2l-0.5,0.3l-0.5,0.4l-0.6,0.1l-0.5,0.4l-0.6,0.3
	l-0.6,0.1l-0.6,0.2l-0.6,0l-0.6,0.3l-0.6,0l-0.6,0l-0.6,0.1l-0.6,0l-0.6,0.2l-0.6,0.1l-0.6,0l-0.6-0.2l-0.6,0.1l-0.6-0.2l-0.6,0
	l-0.6,0.1l-0.6-0.4l-0.6,0l-0.6-0.3l-0.6,0l-0.6-0.1l-0.6-0.2l-0.5-0.3l-0.6-0.2l-0.5-0.4l-0.5-0.3l-0.7-0.1l-0.5-0.4l-0.4-0.5
	l-0.7-0.1l-0.4-0.5l-0.6-0.3l-0.3-0.6l-0.4-0.4l-0.6-0.3l-0.4-0.5l-0.4-0.5l-0.3-0.6l-0.5-0.4l-0.2-0.6l-0.4-0.5l-0.3-0.5l-0.4-0.5
	l-0.1-0.6l-0.3-0.5l-0.2-0.6l-0.4-0.5l-0.3-0.5l0.1-0.7l-0.2-0.6l-0.2-0.6l0.1-0.6l-0.4-0.6l0.1-0.6l-0.3-0.6l0.1-0.6l-0.2-0.6
	l-0.1-0.6l0-0.6l0.3-0.1l-0.1-0.6l-0.1-0.6l0.2-0.6l-0.1-0.6l0.2-0.6l0-0.6l0.2-0.6l0.1-0.6l0.2-0.6l0.2-0.6l0-0.6l0.4-0.5l0.2-0.6
	l0.2-0.6l0.3-0.6l0.3-0.6l0.2-0.6l0.4-0.5l0.3-0.5l0.3-0.6l0.5-0.4l0.2-0.6l0.5-0.4l0.3-0.6l0.5-0.3l0.4-0.5l0.6-0.3l0.4-0.5
	l0.6-0.3l0.4-0.5l0.5-0.3l0.4-0.5l0.6-0.2l0.6-0.3l0.6-0.3l0.6-0.1l0.5-0.5l0.7,0l0.5-0.4l0.6,0l0.6-0.3l0.6-0.1l0.6,0l0.6-0.2
	l0.6-0.2l0.6,0l0.6,0l0.6,0l0.6,0l0.6-0.1l0.6-0.1l0.6,0.2l0.6,0.2l0.6-0.1l0.6,0.1l0.6,0.3l0.6,0.1l0.6,0.2l0.5,0.3l0.6,0.2l0.7,0
	l0.5,0.4L131,2l0.5,0.4l0.6,0.1l0.5,0.4l0.6,0.3l0.4,0.5l0.5,0.3l0.5,0.3l0.5,0.3l0.4,0.5l0.4,0.5l0.6,0.3L136.9,6.4z M137,19.7
	l-0.1-0.6l0-0.6l0.1-0.6l-0.2-0.6l-0.1-0.6l-0.2-0.6l0-0.6l-0.3-0.6l-0.1-0.6l0-0.6l-0.5-0.5l0-0.7l-0.3-0.5l-0.2-0.6l-0.4-0.5
	l-0.4-0.5l-0.3-0.6l-0.5-0.4l-0.5-0.4l-0.4-0.5L132,8.2l-0.4-0.5l-0.6-0.3L130.6,7l-0.5-0.4l-0.5-0.3l-0.5-0.4l-0.6-0.1l-0.6-0.1
	l-0.6-0.2L126.8,5l-0.6-0.1l-0.6-0.3L125,4.5l-0.6,0.1l-0.6-0.3l-0.6,0.1l-0.6-0.1l-0.6,0.2l-0.6,0.1l-0.6,0.1l-0.6,0l-0.6,0.1
	l-0.6,0l-0.6,0.2l-0.5,0.5l-0.6,0.2l-0.7,0L116.1,6l-0.6,0.1L115,6.6l-0.6,0.2l-0.5,0.4l-0.4,0.5l-0.5,0.4l-0.5,0.4l-0.5,0.3
	l-0.3,0.6l-0.6,0.3l-0.3,0.5l-0.4,0.5l-0.2,0.6l-0.5,0.4l-0.2,0.6l-0.3,0.5l-0.1,0.6l-0.1,0.6l-0.4,0.5l-0.1,0.6l0,0.6l-0.3,0.6
	l0.2,0.6l-0.3,0.6l0.1,0.6l-0.2,0.6l0.1,0.6l0.1,0.1l0,0.6l-0.2,0.6l0.1,0.6l0.2,0.6l-0.1,0.6l0.3,0.6l0,0.6l0.3,0.6l0.1,0.6
	l0.2,0.6l0.2,0.6l0.2,0.6l0.4,0.5l0.1,0.6l0.3,0.5L111,29l0.4,0.5l0.4,0.5l0.5,0.4l0.3,0.5l0.5,0.4l0.5,0.3l0.4,0.5l0.6,0.2l0.4,0.5
	l0.6,0.2l0.5,0.4l0.6,0.2l0.5,0.4l0.6,0l0.5,0.3l0.6,0l0.6,0.2l0.6,0l0.6,0.2l0.6,0.1l0.6,0l0.6,0.2l0.6-0.3l0.6,0.2l0.6-0.2
	l0.6,0.1l0.6-0.2l0.6-0.1l0.6,0l0.6-0.2l0.5-0.4l0.6-0.2l0.6-0.3l0.6-0.2l0.5-0.3l0.5-0.4l0.4-0.4l0.6-0.3l0.5-0.3l0.3-0.6l0.4-0.4
	l0.5-0.4l0.3-0.5l0.4-0.5l0.5-0.4l0.3-0.5l0.1-0.6l0.4-0.5l0.1-0.6l0.3-0.5l0-0.6l0.3-0.6l0.1-0.6l0.3-0.6l0.1-0.6l0-0.6l0-0.6
	L137,21l0.2-0.6l-0.2-0.6L137,19.7z M167.9,11.9L167.9,11.9l-0.8,0.4l-0.2-0.8l-0.1-0.6l-0.1-0.6l0.2-0.6l0-0.6l0.1-0.6l0.1-0.6
	l-0.2-0.6l0-0.6l0.3-0.6L167,5.2l0-0.6l-0.2-0.6l0-0.6l0.2-0.6l0-0.6l0.1-0.6l-0.2-0.5l-0.5-0.1l-0.6,0l-0.6,0.1l-0.6-0.3L164,0.7
	l-0.6,0l-0.6,0l-0.1,0.7l0,0.6l0,0.6l0,0.6l0.3,0.6l-0.1,0.6l-0.1,0.6l0.2,0.6l-0.2,0.6l0.1,0.6l-0.1,0.6l0.1,0.6l0,0.6l0,0.6
	l-0.2,0.6l0.2,0.6l-0.2,0.6l0.1,0.6l-0.1,0.6l-0.1,0.6l0.1,0.6l0,0.6l0,0.6l0,0.6l0.1,0.6l-0.1,0.6l0.1,0.6l-0.2,0.6l0,0.6l0.2,0.6
	l-0.1,0.6l-0.1,0.6l0,0.6l-0.2,0.6l0,0.6l0.1,0.6l0.1,0.6l-0.2,0.6l0.2,0.6l-0.2,0.6l0,0.6l0.2,0.6l-0.3,0.6l0.1,0.6l0,0.6l0.1,0.6
	l0,0.6l-0.1,0.6l0.1,0.6l-0.1,0.6l0,0.6l0,0.6l0,0.6l0.1,0.6l0,0.6l-0.2,0.6l0,0.6l0,0.6l0.1,0.6l-0.1,0.6l0.1,0.6l0.6,0l0.6,0.1
	l0.6-0.2l0.6,0.2l0.6-0.1l0.6-0.1l0.5,0l0.1-0.5l-0.1-0.6l0-0.6l-0.1-0.6l0.2-0.6L167,35l0-0.6l0-0.6l-0.1-0.6l0.1-0.6l-0.2-0.6
	l0.2-0.6l0-0.6l-0.1-0.6l0.1-0.6l0.1-0.6l0.1-0.6l-0.3-0.6l0-0.6l0.3-0.6l-0.2-0.6L167,25l0-0.6l-0.2-0.6l0.2-0.6l0.1-0.6l0-0.6
	l-0.1-0.6l0.2-0.6l0.1-0.6l0.3-0.5l0.3-0.6l0.3-0.6l0.4-0.5l0.2-0.6l0.3-0.6l0.5-0.4l0.4-0.5l0.1-0.7l0.4-0.5l0.5-0.4l0.2-0.6
	l0.3-0.6l0.6-0.4l0.4-0.5l0.1-0.7l0.3-0.6l0.4-0.5l0.5-0.4l0.4-0.5l0.3-0.5l0.4-0.5l0.4-0.6l-0.6-0.4l-0.5-0.3l-0.5-0.3l-0.5-0.4
	l-0.5-0.3l-0.4-0.4l-0.3,0.5l-0.5,0.4l-0.3,0.5l-0.3,0.5l-0.6,0.4l-0.2,0.6l-0.4,0.5l-0.4,0.5l-0.4,0.5l-0.3,0.6l-0.4,0.5
	L167.9,11.9z M222.6,33.8l-0.4,0.5l0.4,0.6l0.6,0.2l0.9-0.3l0.6,0.1l0.6-0.1L226,35l0.6,0.1l0.6-0.2l0.6,0.1l0.6,0l-0.1,0.6l0,0.6
	l0,0.6l0,0.6l0,0.6l0.1,0.6l-0.1,0.5l-0.5,0.2l-0.6-0.1l-0.6-0.1l-0.6,0.1l-0.6,0.1l-0.6,0.1l-0.6-0.2l-0.6-0.1l-0.6,0.1l-0.6-0.1
	l-0.6,0l-0.6,0.1l-0.6,0l-0.6-0.1l-0.6,0.3l-0.6,0l-0.6-0.2l-0.6,0l-0.6,0.1l-0.6,0.2l-0.6-0.1l-0.6,0.1l-0.6,0l-0.6-0.3l-0.6,0.2
	l-0.6-0.1l-0.6,0l-0.6,0l-0.6-0.2l-0.6,0l-0.6,0l-0.6,0l-0.6,0.3l-0.6-0.1L207,39l-0.6,0.1l-0.6-0.1l-0.6-0.3l-0.6,0l-0.6-0.1
	l-0.5-0.4l-0.7,0l-0.5-0.3l-0.5-0.3l-0.6-0.3l-0.5-0.3l-0.6-0.2l-0.5-0.4l-0.5-0.4l-0.5-0.4l-0.6-0.2l-0.4-0.5l-0.5-0.3l-0.4-0.5
	l-0.6-0.2l-0.2-0.7l-0.6-0.3l-0.4-0.5l-0.4-0.5l-0.2-0.6l-0.5-0.4l-0.3-0.5l-0.4-0.5l-0.4-0.5l-0.2-0.6l-0.2-0.6l-0.2-0.6l-0.5-0.5
	l-0.1-0.6l-0.2-0.6l-0.2-0.6l-0.2-0.6l-0.1-0.6l-0.2-0.6l0.2-0.7l-0.1-0.6l-0.1-0.6l0-0.6l-0.1-0.6l0-0.6l0-0.1l-0.1-0.6l0.2-0.6
	l-0.1-0.6l0-0.6l0.2-0.6l0.1-0.6l0.1-0.6l-0.1-0.7l0.4-0.5l0.1-0.6l0.2-0.6l0-0.7l0.4-0.5l0.2-0.6l0.1-0.6l0.4-0.5l0.3-0.6l0.3-0.5
	l0.3-0.6l0.5-0.4l0.4-0.5l0.3-0.6l0.5-0.4l0.4-0.5l0.4-0.5l0.4-0.5l0.5-0.4l0.5-0.4l0.5-0.4l0.4-0.5l0.6-0.2l0.4-0.5l0.5-0.3
	l0.6-0.1l0.5-0.4l0.6-0.1l0.5-0.3l0.5-0.4l0.6-0.1l0.5-0.4l0.6,0l0.6-0.2l0.6-0.1l0.6-0.1l0.6-0.1l0.6-0.1l0.6,0.1l0.6-0.3l0.6,0.3
	l0.6-0.3l0.6,0.3l0.6,0l0.6-0.1l0.6,0.1l0.6,0.2l0.6,0.2l0.6,0.1L215,1l0.6,0l0.6,0.2l0.5,0.3l0.6,0.2l0.6,0.1l0.5,0.4l0.6,0.3
	l0.6,0.2l0.4,0.5l0.5,0.4L221,4l0.6,0.3l0.5,0.4l0.4,0.5l0.5,0.4l0.4,0.5l0.5,0.3l0.2,0.6l0.6,0.3l0.3,0.6l0.2,0.6l0.3,0.5l0.6,0.4
	l0.2,0.6l0.4,0.5l0.1,0.6l0.3,0.5l0.3,0.6l0.2,0.6l0.2,0.6l0.2,0.6l-0.1,0.6l0.4,0.5l0,0.6l0.2,0.6l-0.1,0.6l0.3,0.6l0,0.6l0.1,0.6
	l0.1,0.6l-0.2,0.5l0.2,0.6l-0.3,0.6l0.1,0.6l-0.2,0.6l-0.1,0.6l-0.1,0.6l-0.2,0.6l0,0.6l-0.1,0.6l-0.4,0.5l-0.2,0.6l-0.3,0.5
	l-0.1,0.6l-0.3,0.5l-0.3,0.5l-0.1,0.6l-0.6,0.4l-0.2,0.6l-0.2,0.6l-0.5,0.4l-0.2,0.6l-0.4,0.4l-0.3,0.6l-0.6,0.4L222.6,33.8z
	 M210.2,34.9l0.6,0.1l0.6-0.2l0.6,0.1l0.6-0.4l0.7,0.2l0.5-0.4l0.6-0.2l0.6-0.2l0.7,0l0.5-0.4l0.5-0.3l0.5-0.4l0.5-0.4l0.6-0.3
	l0.6-0.3l0.5-0.3l0.3-0.6l0.5-0.3l0.4-0.4l0.3-0.5l0.3-0.5l0.3-0.5l0.2-0.6l0.5-0.4l0.3-0.5l0.2-0.6l0.3-0.6l0.1-0.6l0.2-0.6
	l0.2-0.6l0-0.6l0.3-0.6l0-0.6l0-0.6l0.1-0.6l0.1-0.6l0-0.6l-0.2-0.1l0.3-0.6l-0.1-0.6l0-0.6l-0.3-0.6l0.1-0.6l-0.2-0.6l-0.3-0.6
	l-0.1-0.6l-0.2-0.6l-0.2-0.6l-0.3-0.5l0-0.7l-0.3-0.6l-0.4-0.5l-0.2-0.6l-0.4-0.5l-0.4-0.4l-0.4-0.4L219.9,9l-0.4-0.5L219.1,8
	l-0.6-0.3l-0.4-0.5l-0.6-0.2L217,6.7l-0.4-0.5L216,6l-0.5-0.4l-0.6-0.2l-0.6,0L213.7,5l-0.6,0l-0.6-0.3l-0.6-0.1l-0.6-0.1l-0.6,0
	l-0.6,0l-0.6,0l-0.6-0.1l-0.6,0.3l-0.6-0.2L207,4.8l-0.7-0.2l-0.6,0.2l-0.5,0.3l-0.6,0.1L204,5.4l-0.6,0.2L202.9,6l-0.6,0.2
	l-0.5,0.4l-0.5,0.3l-0.5,0.3l-0.5,0.4L200,8.1l-0.6,0.3L199,8.9l-0.3,0.5l-0.5,0.4l-0.4,0.5l-0.4,0.5l-0.2,0.6l-0.3,0.5l-0.4,0.5
	l-0.2,0.6l-0.3,0.5l0,0.6l-0.4,0.5l0.1,0.7l-0.3,0.6l-0.3,0.6l-0.1,0.6l0.2,0.6l-0.2,0.6l0.1,0.6l-0.2,0.6l0,0.1l0,0.6l0,0.6
	l0.1,0.6l0.1,0.6l-0.1,0.6l0.4,0.6l0,0.6l0.3,0.6l0,0.7l0.5,0.5l0.1,0.6l0.3,0.5l0.4,0.5l0.1,0.6l0.5,0.4l0.1,0.7l0.5,0.4l0.3,0.6
	l0.4,0.5l0.4,0.4l0.4,0.5l0.6,0.3L201,32l0.4,0.5l0.5,0.3l0.5,0.4l0.6,0.2l0.5,0.3l0.5,0.3l0.6,0l0.5,0.5l0.6,0.1l0.6,0l0.6,0.3
	l0.6-0.1l0.6,0.1l0.6-0.1l0.6,0.2L210.2,34.9z M463.5,14.1l-0.5,0.3l-0.2,0.6l-0.3,0.5l-0.3,0.5l-0.4,0.5l0,0.6l-0.4,0.5l-0.2,0.6
	l-0.2,0.6l-0.1,0.6l-0.1,0.6l-0.1,0.6l0,0.6l0.2,0.6l0.1,0.6l-0.1,0.6l0,0.6l-0.2,0.6l0,0.6l0.2,0.6l-0.2,0.6l0.2,0.6l-0.1,0.6
	l0.1,0.6l-0.2,0.6l-0.1,0.6l0.2,0.6l0,0.6l-0.1,0.6l0,0.6l0.1,0.6l0,0.6l0.1,0.6l-0.2,0.6l0,0.6l-0.1,0.6l0.2,0.6l0.1,0.6l-0.2,0.6
	l0.1,0.6l-0.1,0.6l0,0.7l0.7,0l0.6-0.2l0.6,0.3l0.6-0.3l0.6,0.2l0.6-0.2l0.7,0.3l0-0.7l-0.2-0.6l0-0.6l0.1-0.6l-0.2-0.6l0-0.6
	l0.2-0.6l-0.1-0.6l0.1-0.6l0.1-0.6l0-0.6l0.1-0.6l-0.3-0.6l0.2-0.6l0-0.6l0-0.6l-0.1-0.6l0.2-0.6l-0.1-0.6l0.1-0.6l-0.2-0.6l0-0.6
	l0-0.6l0.1-0.6l0-0.6l0.1-0.6l-0.1-0.6l0.2-0.6l-0.2-0.7l0.3-0.6l0.2-0.6l0.1-0.6l0.2-0.6l0.4-0.5l0.1-0.7l0.4-0.4l0.5-0.3l0.4-0.4
	l0.4-0.4l0.5-0.3l0.6-0.2l0.6-0.1l0.6,0l0.6-0.2l0.5,0.1l0.3-0.5l-0.2-0.6l-0.1-0.6l0.2-0.6l-0.2-0.6l0.3-0.6l-0.1-0.6l-0.7,0
	l-0.6,0.1l-0.7,0l-0.6,0.3l-0.6,0.2l-0.7,0l-0.6,0.2l-0.5,0.3l-0.5,0.3l-0.4,0.4l-0.7,0.1l-0.4,0.5l-0.4,0.4L463.5,14.1z M299,11.6
	l-0.6-0.3l-0.6-0.1l-0.6,0.3l-0.6-0.1l-0.6-0.1l-0.6,0.2l-0.6,0l-0.6-0.2l-0.6,0l-0.5,0.1L293,12l-0.5,0.4l-0.3,0.5l-0.4,0.4
	l-0.3,0.5l-0.6,0.3l-0.5,0.4l-0.3,0.6l-0.5,0.4l-0.4,0.4l-0.3,0.5l-0.3,0.6l-0.5,0.3l-0.3,0.6l-0.5,0.4l-0.4,0.4l-0.4,0.4l-0.3,0.5
	l-0.4,0.5l-0.3,0.5l-0.5,0.4l-0.4,0.4l-0.3,0.5l-0.6,0.3l-0.2,0.6l-0.4,0.4l-0.2,0.6l0,0.6l-0.1,0.6l0.3,0.6l-0.3,0.6l0.2,0.6
	l0.3,0.5l0.5,0.4l0.3,0.6l0.5,0.4l0.4,0.4l0.3,0.6l0.6,0.3l0.4,0.5l0.3,0.5l0.4,0.5l0.4,0.5l0.6,0.3l0.3,0.6l0.5,0.4l0.2,0.6
	l0.5,0.4l0.3,0.5l0.6,0.3l0.2,0.6l0.5,0.4l0.6,0.3l0.3,0.6l0.5,0.4l0.4,0.5l0.4,0.4l0.4,0.1l0.6,0.2l0.6,0l0.6-0.1l0.6,0.1l0.6-0.1
	l0.6-0.2l0.6,0.1l0.6,0.2l0.6-0.2l0.2,0l-0.6-0.3l-0.2-0.7l-0.6-0.3l-0.3-0.6l-0.5-0.4l-0.4-0.5l-0.5-0.4l-0.4-0.4l-0.3-0.5
	l-0.5-0.3l-0.4-0.5l-0.3-0.6l-0.4-0.5l-0.4-0.4L293,32l-0.5-0.4l-0.4-0.5l-0.2-0.6l-0.5-0.3l-0.4-0.4l-0.3-0.5l-0.5-0.4l-0.5-0.4
	l-0.3-0.5l-0.3-0.5l-0.4-0.4l-0.5-0.4l-0.2-0.6l-0.5-0.4l-0.6-0.4l0.6-0.4l0.4-0.5l0.4-0.4l0.3-0.5l0.4-0.4l0.4-0.5l0.3-0.5l0.4-0.4
	l0.5-0.4l0.4-0.4l0.3-0.5l0.4-0.5l0.6-0.3l0.4-0.5l0.2-0.6l0.6-0.3l0.3-0.6l0.5-0.4l0.4-0.4l0.4-0.5l0.4-0.4l0.3-0.6l0.4-0.4
	l0.3-0.5l0.5-0.4l0.4-0.5l0.5-0.4l0.2-0.6l0.5-0.4l0.6-0.3L299,11.6z M331.6,15l-0.5-0.4l-0.5-0.3l-0.4-0.5l-0.6-0.2l-0.4-0.4
	l-0.5-0.3l-0.5-0.3l-0.5-0.4l-0.6-0.2l-0.5-0.4l-0.6-0.2l-0.7,0l-0.6-0.2l-0.6-0.2l-0.6,0l-0.6-0.4l-0.7,0.1l-0.6,0.1l-0.6-0.1
	l-0.6,0l-0.6,0.2L319,11l-0.6,0.1l-0.6,0.4l-0.7,0l-0.6,0.2l-0.6,0.3l-0.5,0.4l-0.5,0.3l-0.5,0.3l-0.6,0.2l-0.6,0.3l-0.3,0.6
	l-0.5,0.4l-0.5,0.3l-0.5,0.3l-0.4,0.5l-0.2,0.6l-0.5,0.3l-0.2,0.6l-0.6,0.4l-0.2,0.6l-0.3,0.5l-0.2,0.6l-0.3,0.5l-0.3,0.6l-0.1,0.6
	l0,0.6l-0.2,0.6l-0.2,0.6l-0.1,0.6l-0.1,0.6l-0.1,0.6l-0.1,0.6l0.3,0.1l-0.1,0.6l0.2,0.6l0,0.6l-0.2,0.6l0.3,0.6l0.1,0.6l0.2,0.6
	l0,0.6l0.4,0.5l0.2,0.6l0.2,0.6l0.3,0.5l0.3,0.5l0.3,0.5l0.4,0.4l0.4,0.4l0.4,0.4l0.2,0.6l0.5,0.4l0.5,0.3l0.4,0.5l0.5,0.4l0.5,0.3
	l0.5,0.3l0.4,0.5l0.6,0.2l0.5,0.4l0.7,0.1l0.6,0.2l0.6,0.4l0.6,0.2l0.6,0l0.6,0.3l0.6,0l0.6,0l0.6,0l0.6-0.2l0.7,0.2l0.6-0.3L324,39
	l0.7,0.1l0.6-0.4l0.7,0l0.6-0.3l0.6-0.2l0.5-0.3l0.6-0.3l0.5-0.4l0.6-0.2l0.4-0.5l0.4-0.4l0.5-0.3l0.5-0.4l0.5-0.4l0.2-0.6l0.6-0.3
	l0.4-0.4l0.2-0.6l0.3-0.5l0.5-0.4l0.3-0.5l0.1-0.6l0.4-0.5l0.2-0.6l-0.1-0.7l0.2-0.6l0.2-0.6l0.1-0.6l-0.1-0.6l0.2-0.6l0-0.6
	l0.3-0.6l-0.3-0.1l0.2-0.6l-0.1-0.6l-0.1-0.6l0.1-0.6l-0.3-0.6l-0.1-0.6l-0.2-0.6l0-0.6l-0.2-0.6l-0.1-0.6l-0.3-0.5l-0.3-0.5
	l-0.5-0.4l-0.2-0.6l-0.2-0.6l-0.5-0.4l-0.5-0.4L331.6,15z M331,25.2l0,0.7l0,0.7l-0.3,0.6l0.1,0.7l-0.3,0.6l-0.2,0.6l-0.3,0.6
	l-0.4,0.5l-0.2,0.6l-0.5,0.4l-0.4,0.5l-0.2,0.6l-0.5,0.4l-0.5,0.3l-0.4,0.5l-0.7,0.1l-0.5,0.4l-0.5,0.4l-0.7,0.2l-0.7,0.1l-0.6,0.3
	l-0.7-0.1l-0.7,0l-0.7,0.3l-0.6-0.2l-0.6-0.1l-0.6,0l-0.7,0l-0.6-0.2l-0.6-0.2l-0.5-0.4l-0.5-0.4l-0.7-0.1l-0.5-0.4l-0.4-0.5
	l-0.4-0.5l-0.4-0.5l-0.6-0.4l-0.2-0.7l-0.5-0.4l0-0.7l-0.4-0.5l-0.2-0.6l-0.2-0.6l-0.1-0.6l0-0.6l-0.2-0.6l-0.2-0.6l0-0.6l0.1-0.1
	l0-0.7l0.1-0.7l0.1-0.7l0.2-0.6l-0.1-0.7l0.3-0.6l0.1-0.6l0.3-0.6l0.5-0.4l0.2-0.7l0.4-0.5l0.4-0.5l0.6-0.3l0.3-0.6l0.5-0.3l0.6-0.2
	L317,16l0.6-0.2l0.6-0.2l0.6-0.3l0.6-0.2l0.7-0.1l0.7,0.2l0.7-0.1l0.7-0.1l0.6,0.2l0.6,0.1l0.7,0.1l0.6,0.1l0.5,0.4l0.6,0.1l0.5,0.4
	l0.6,0.2l0.5,0.4l0.4,0.5l0.4,0.5l0.5,0.4l0.2,0.6l0.4,0.5l0.4,0.5l0.3,0.6l0.4,0.5l-0.1,0.6l0.4,0.5l0.2,0.6l-0.2,0.6l0.3,0.5
	l-0.1,0.6l0.1,0.6L331,25.2z M446.1,15.1l-0.4-0.4l-0.3-0.6l-0.5-0.4l-0.7-0.1l-0.4-0.4l-0.5-0.3l-0.5-0.3l-0.5-0.4l-0.6-0.2
	l-0.5-0.4l-0.6-0.1l-0.6-0.2l-0.7,0l-0.6-0.2l-0.6-0.2l-0.6-0.2l-0.6,0l-0.6,0.3l-0.6-0.1l-0.6-0.1l-0.6,0.3l-0.6,0l-0.6,0.1
	l-0.6,0.3l-0.6,0.1l-0.7,0.1l-0.6,0.3l-0.6,0.2l-0.4,0.5l-0.7,0l-0.4,0.5l-0.5,0.3l-0.5,0.3l-0.4,0.5l-0.6,0.3l-0.4,0.5l-0.4,0.4
	l-0.2,0.6l-0.4,0.4l-0.3,0.5l-0.3,0.5l-0.5,0.4l-0.3,0.5l0,0.7l-0.2,0.5l-0.2,0.6l-0.4,0.5l0,0.6l-0.1,0.6l-0.1,0.6l-0.3,0.6
	l0.1,0.6l-0.1,0.6l0.1,0.6l-0.2,0.1l0.3,0.6l0,0.6l0,0.6l0.2,0.6l0,0.6l0.1,0.6l0.1,0.6l0.1,0.6l0.4,0.5l0.3,0.5l0.1,0.6l0.3,0.5
	l0.3,0.5l0.3,0.5l0.6,0.3l0.3,0.5l0.4,0.5l0.5,0.3l0.4,0.5l0.5,0.4l0.3,0.5l0.5,0.3l0.6,0.3l0.5,0.3l0.5,0.4l0.6,0.2l0.5,0.3
	l0.6,0.2l0.6,0.2l0.6,0.3l0.6,0.2l0.6,0.1l0.6,0l0.6,0l0.6,0.2l0.6,0l0.6,0.2l0.6-0.1l0.6-0.2l0.6,0l0.6-0.1l0.6-0.2l0.6-0.3
	l0.6-0.1l0.5-0.4l0.6-0.2l0.5-0.3l0.6-0.1l0.4-0.5l0.6-0.3l0.4-0.5l0.6-0.3l0.4-0.5l0.5-0.3l0.4-0.4l0.3-0.5l0.5-0.4l0.2-0.6
	l0.4-0.4l0.2-0.6l0.3-0.5l0.3-0.5l0.2-0.6l0.2-0.6l0.2-0.6l0.4-0.5l0-0.6l0-0.6l0.3-0.6l-0.1-0.6l0.1-0.6l-0.1-0.6L450,25l0.2-0.6
	l-0.3-0.6l-0.1-0.6l0.1-0.6l-0.1-0.6l-0.1-0.6l-0.4-0.5l-0.1-0.6l-0.2-0.6l-0.2-0.6l-0.4-0.5l-0.3-0.5l-0.2-0.6l-0.6-0.4l-0.3-0.5
	l-0.2-0.6l-0.4-0.5L446.1,15.1z M445.9,25.2l0,0.7l-0.3,0.6l-0.1,0.6l0.1,0.7l-0.3,0.6l-0.1,0.7l-0.3,0.6l-0.4,0.5l-0.3,0.6
	l-0.4,0.4l-0.3,0.5l-0.4,0.5l-0.3,0.6l-0.5,0.3l-0.5,0.3l-0.6,0.3l-0.5,0.3l-0.4,0.5l-0.6,0.2l-0.7,0.1l-0.6,0.4l-0.7,0.1l-0.7,0
	l-0.7,0.1l-0.7-0.1l-0.6-0.2l-0.6-0.1l-0.6-0.2l-0.7,0.1l-0.5-0.6l-0.6-0.1l-0.6-0.3l-0.5-0.4l-0.6-0.3l-0.4-0.6l-0.5-0.4l-0.4-0.5
	l-0.6-0.4l-0.3-0.6l-0.3-0.6l-0.3-0.6l0-0.7l-0.2-0.5l-0.4-0.5l-0.1-0.6l-0.2-0.6l0.2-0.6l-0.2-0.6l-0.1-0.6l0-0.1l0.2-0.7l-0.1-0.7
	l0.2-0.7l0.1-0.7l0.4-0.6l0-0.7l0.3-0.6l0.3-0.5l0.3-0.6l0.4-0.5l0.4-0.5l0.5-0.4l0.5-0.3l0.4-0.5l0.5-0.4l0.6-0.2l0.5-0.4l0.6-0.2
	l0.6-0.2l0.5-0.5l0.7-0.1l0.7-0.1l0.6-0.2l0.7,0.1h0.7l0.6,0.2l0.6,0.1l0.7,0l0.6,0.2l0.6,0.3l0.6,0.2l0.5,0.3l0.6,0.3l0.6,0.3
	l0.4,0.5l0.4,0.5l0.4,0.5l0.4,0.5l0.4,0.5l0.2,0.6l0.3,0.6l0,0.7l0.3,0.5l0.3,0.5l0,0.6l0.1,0.6l0.2,0.6l0.1,0.6l-0.1,0.6
	L445.9,25.2z M404.2,2.5L404,3l-0.6,0.3L403.3,4L403,4.5L402.5,5l-0.2,0.6l0,0.6l-0.4,0.5l0.1,0.6l0,0.6l-0.1,0.6l0,0.6l-0.2,0.6
	l0,0.5l0.3,0.5l-0.2,0.5l-0.6,0.1l-0.7,0l-0.7,0l-0.7,0.1l-0.7,0l-0.7,0l-0.6,0L397,12l0.2,0.6l0,0.6l0,0.6l0.1,0.6l-0.1,0.6
	l-0.1,0.7l0.8,0l0.7-0.1l0.7-0.1l0.7,0.1l0.7-0.1l0.7,0.3l0.6-0.1l0.2,0.6l-0.1,0.6l0,0.6l0,0.6l0.1,0.6l-0.2,0.6l0.1,0.6l0,0.6
	l0.1,0.6l0,0.6l-0.2,0.6l-0.1,0.6l0.1,0.6l0,0.6l0.2,0.6l-0.3,0.6l0.2,0.6l0,0.6l-0.2,0.6l0,0.6l0.1,0.6l-0.1,0.6l0.2,0.6l0,0.6
	l-0.2,0.6l0,0.6l0.1,0.6l0.1,0.6l0.1,0.6l-0.2,0.6l-0.1,0.6l0.1,0.6l0.2,0.6l-0.3,0.6l0.1,0.6l0.1,0.6l-0.2,0.6l0.2,0.6l0.6-0.1
	l0.6,0.1l0.6,0.1l0.6,0.1l0.6-0.2l0.6,0.2l0.7,0l-0.2-0.7l0.1-0.6l0.1-0.6l-0.2-0.6l0-0.6l0.1-0.6l0-0.6l-0.2-0.6l0.1-0.6l0-0.6
	l0-0.6l0-0.6l0.1-0.6l-0.2-0.6l0-0.6l0-0.6l0.2-0.6l0-0.6l-0.2-0.6l0-0.6l0.1-0.6l-0.1-0.6l-0.1-0.6l0-0.6l0.2-0.6l-0.2-0.6l0.2-0.6
	l-0.1-0.6l0-0.6l0.2-0.6l-0.3-0.6l0.2-0.6l0.1-0.6l-0.3-0.6l0.2-0.6l0.1-0.6l-0.1-0.6l0-0.5l0.5,0l0.6,0l0.6-0.2l0.6,0.1l0.6-0.2
	l0.6,0.1l0.6,0l0.6,0.1l0.6-0.1l0.6,0.1l0.6-0.2l0.6,0.1l0.6,0l0.6-0.1l-0.1-0.6l0.2-0.6l-0.1-0.6l0.1-0.6l-0.2-0.6L415,12l-0.1-0.6
	l-0.7-0.1l-0.6,0.3l-0.6-0.1l-0.6,0l-0.6-0.1l-0.6,0.1l-0.6,0.1l-0.6,0l-0.6,0l-0.6-0.2l-0.6,0.2l-0.6-0.2l-0.6,0.1l-0.6-0.1
	l0.1-0.4l0-0.5l-0.3-0.5l0.1-0.6l0.1-0.6l0.1-0.6l0.2-0.6l-0.1-0.7l0.2-0.6l0.5-0.5l0.3-0.6l0.6-0.3l0.6-0.3l0.6-0.1l0.6,0l0.6-0.1
	l0.6,0.1l0.6-0.1l0.6,0l0.6,0l0.6-0.1l0.6,0.1l0.6,0.2l0.6-0.1l0-0.6l0.1-0.6l-0.1-0.6L414.8,2l0.1-0.6l0-0.6l0.1-0.7l-0.7,0.2
	l-0.6-0.2l-0.6,0.2l-0.6-0.2l-0.6,0l-0.6,0l-0.6-0.1l-0.6,0.3l-0.6-0.2l-0.6,0l-0.6,0l-0.5,0.4l-0.6,0.1l-0.6,0.2l-0.6,0.2l-0.6,0.2
	l-0.4,0.5l-0.5,0.3L404.2,2.5z M275,38.6l0.5,0.2l0.6,0l0.6-0.1l0.6-0.1l0.6,0.2l0.6-0.1l0.6,0.1l-0.1-0.7l0-0.7l0-0.7l0.2-0.7
	l-0.2-0.7l0.2-0.7l-0.1-0.7l0.1-0.7l0.1-0.7l-0.2-0.7l0.1-0.6l-0.1-0.6l0.1-0.6l0.1-0.6l-0.1-0.6l-0.1-0.6l0.1-0.6l0.2-0.6l0-0.6
	l-0.1-0.6l0-0.6l-0.2-0.6l0.1-0.6l0.1-0.6l0-0.6l0.1-0.6l0-0.6l-0.1-0.6l0.1-0.6l0-0.6l-0.2-0.6l0-0.6l-0.2-0.6l0.2-0.6l0.1-0.6
	l-0.1-0.6l-0.2-0.6l0.2-0.6l0-0.6l0-0.6l0.1-0.6l-0.1-0.6l0-0.6l-0.2-0.6l0-0.6l0.3-0.6l-0.1-0.6L279,8.6l0.1-0.6l0-0.6l0.1-0.6
	l0.1-0.6l-0.2-0.6l0.1-0.6l0.2-0.6l-0.1-0.6l-0.2-0.6l0-0.6l0-0.6l0.1-0.6l0-0.6l-0.6-0.1L278,0.4l-0.6,0l-0.6,0.2l-0.6-0.1
	l-0.6-0.1l-0.6,0l0.2,0.7L275,1.6l0,0.6l0,0.6l0,0.6l-0.1,0.6l0.2,0.6L275,5.4l0,0.6l-0.1,0.6l0.1,0.6l-0.2,0.6l0.2,0.6l0.1,0.6
	l-0.1,0.6l-0.2,0.6l0,0.6l0.2,0.6l0.1,0.6l-0.1,0.6l-0.1,0.6l0.2,0.6l-0.2,0.6l0,0.6l0.2,0.6l-0.1,0.6l0.1,0.6l-0.2,0.6l0,0.6
	l0.1,0.6l-0.3,0.6l0,0.6l0.1,0.6l0,0.6l0.1,0.6l-0.1,0.6l0.1,0.6l-0.2,0.6l0.1,0.6l0,0.6l0.1,0.6l0,0.6l0,0.6l0.1,0.6l-0.1,0.6
	l-0.2,0.6l0.2,0.6L275,30l-0.2,0.6l0.2,0.6l-0.2,0.6l0.1,0.6l0,0.6l0,0.6l0.2,0.6L275,35l0.1,0.6l0,0.6l0.1,0.6l-0.2,0.6l0,0.6
	L275,38.6z M486.9,24l0.1-0.6l0-0.6l0-0.6l-0.2-0.6l0-0.6l0.1-0.6l0-0.6l-0.1-0.6l0-0.6l0-0.6l-0.1-0.6l0.2-0.6l-0.1-0.6l0-0.5
	l0.5,0.1l0.6-0.1l0.6-0.2l0.6,0.2l0.6-0.1l0.6,0l0.6-0.1l0.6,0.1l0.6,0l0.6-0.1l0.6-0.1l0.6,0.3l0.6-0.3l0.6,0.1l0.6,0.1l0.1-0.6
	l-0.2-0.6l0.1-0.6l0-0.6l-0.2-0.6L496,12l-0.1-0.5l-0.5-0.2l-0.6,0.2l-0.6,0l-0.6,0.1l-0.6,0l-0.6-0.1l-0.6,0l-0.6-0.2l-0.6,0.3
	l-0.6-0.1l-0.6-0.1l-0.6,0.1l-0.6,0l-0.6,0l-0.6-0.1l0.1-0.6l0.1-0.6L487,9.6L487,9l0-0.6l-0.3-0.6l0.2-0.6l0-0.6l-0.1-0.6l-0.1-0.6
	V4.7l0-0.6l0.2-0.6l0-0.6l0-0.6l-0.1-0.6L486.8,1l0.2-0.7l-0.7,0.3l-0.6-0.1l-0.6-0.1l-0.6-0.1l-0.6,0.2l-0.6-0.2l-0.5,0.2L482.6,1
	l-0.1,0.6l0,0.6l0,0.6l0.1,0.6l0,0.6l0.1,0.6l-0.2,0.6l0.2,0.6l-0.2,0.6l0.2,0.6l-0.1,0.6l0,0.6l0,0.6l0,0.6l0.1,0.6l0,0.6l-0.2,0.6
	l0.2,0.6l-0.3,0.6l0.1,0.6l0.2,0.6l-0.2,0.6l0,0.6l0.1,0.6l0.1,0.6l-0.3,0.6l0.1,0.6l-0.2,0.6l0.1,0.6l0.1,0.6l-0.2,0.6l0.1,0.6
	l-0.1,0.6l0.2,0.6l-0.2,0.6l0.2,0.6l-0.2,0.6l-0.1,0.6l0.3,0.6l0,0.6l-0.2,0.6l0,0.6l0.2,0.6l-0.3,0.6l0.1,0.5l0.2,0.5l0,0.5
	l-0.3,0.6l0.3,0.6l0,0.6l0,0.6l0,0.6l0.1,0.6l0.4,0.5l0.2,0.6l0.3,0.5l0.3,0.5l0.3,0.6l0.5,0.4l0.3,0.5l0.5,0.4l0.5,0.4l0.6,0.2
	l0.4,0.5l0.6,0.2l0.5,0.3l0.6,0.1l0.6,0.1l0.6,0l0.6,0.1l0.6-0.2l0.6,0.2l0.6-0.1l0.6-0.1l0.6,0l0.6,0.2l0.6,0l0.6-0.2l0.7,0.2
	l0.1-0.7l0-0.6l0-0.6l0-0.6l0-0.6l-0.2-0.6l0-0.5l-0.5-0.1l-0.6,0l-0.6,0.1l-0.6,0l-0.6,0l-0.6,0l-0.6,0l-0.6,0.2l-0.6,0l-0.6-0.2
	l-0.6-0.1l-0.4-0.5l-0.6-0.2l-0.3-0.5l-0.2-0.6l-0.3-0.5l-0.3-0.6l-0.2-0.6l0-0.6l-0.1-0.6l-0.1-0.6l0.1-0.5l0.1-0.5l0.1-0.5
	l-0.1-0.6l0.1-0.6l-0.1-0.6l-0.1-0.6l0.1-0.6l0.1-0.6L486.9,24z M384,14l-0.5-0.3l-0.3-0.6l-0.6-0.1l-0.4-0.4l-0.5-0.4l-0.5-0.3
	l-0.6-0.1l-0.6-0.3l-0.6-0.2l-0.6-0.1l-0.6-0.1l-0.6-0.1l-0.7,0.1l-0.6-0.1l-0.6,0l-0.6-0.1l-0.6,0.3l-0.6-0.2l-0.5,0.3l-0.5,0.3
	l-0.6,0.1l-0.6,0.1l-0.6,0.3l-0.5,0.4l-0.5,0.3l-0.3,0.5l-0.6,0.2l-0.4,0.4l-0.3,0.5l-0.5,0.3l-0.3,0.5l-0.4,0.5l-0.5-0.4l-0.1-0.7
	l-0.6-0.3l-0.2-0.6l-0.6-0.2l-0.3-0.5l-0.5-0.3l-0.5-0.3l-0.5-0.3l-0.5-0.3l-0.6-0.1l-0.6-0.2l-0.6-0.2l-0.6-0.2l-0.6-0.1l-0.6,0.2
	l-0.6-0.1l-0.6-0.2l-0.6,0.2l-0.6,0.1l-0.6,0l-0.6,0.3l-0.6,0.2l-0.5,0.2l-0.5,0.2l-0.6,0.1l-0.5,0.3l-0.5,0.3l-0.5,0.4l-0.4,0.4
	l-0.4,0.5l-0.3,0.4l-0.2-0.6l0.3-0.7l0-0.7l-0.3-0.6l-0.5,0.1l-0.6-0.2l-0.6-0.1l-0.6,0.3l-0.6-0.3l-0.6,0.2l-0.6,0l0.1,0.6
	l-0.1,0.6l0.1,0.6l-0.2,0.6l0,0.6l-0.1,0.6l0.2,0.6l0.1,0.6l0,0.6l-0.1,0.6l0.1,0.6l-0.2,0.6l0,0.6l0.2,0.6l0,0.6l0,0.6l0,0.6
	l-0.1,0.6l0.2,0.6l-0.1,0.6l-0.1,0.6l0.2,0.6l-0.1,0.6l0,0.6l-0.2,0.6l0.3,0.6l-0.1,0.6l0,0.6l-0.1,0.6l-0.1,0.6l0.1,0.6l0,0.6
	l0.1,0.6l0,0.6l-0.1,0.6l0,0.6l0,0.6l0.1,0.6l-0.3,0.6l0,0.6l0.1,0.6l0,0.6l0.1,0.6l-0.1,0.7l0.7,0.1l0.6-0.2l0.6-0.1l0.6,0.1l0.6,0
	l0.6,0l0.5-0.1l0.1-0.5l-0.1-0.6l0-0.6l0.1-0.6l-0.1-0.6l0-0.6l0.1-0.6l0.1-0.6l0-0.6l-0.2-0.6l0-0.6l0.2-0.6l-0.2-0.6l0-0.6
	l0.1-0.6l0-0.6l0.1-0.6l0.1-0.6l0-0.6l0-0.6l0-0.6l-0.1-0.6l0-0.6l0-0.6l-0.1-0.6l0.1-0.7l0-0.7l0-0.7l0.2-0.6l0.3-0.6l0.4-0.5
	l0.2-0.6l0.2-0.6l0.3-0.5l0.4-0.4l0.4-0.5l0.6-0.2l0.4-0.5l0.6-0.2l0.5-0.3l0.5-0.3l0.6-0.2l0.6,0l0.6-0.1L358,15l0.6-0.2l0.6,0.3
	l0.6,0l0.6,0l0.5,0.5l0.5,0.3l0.5,0.3l0.6,0.3l0.3,0.6l0.6,0.3l0.1,0.7l0.5,0.4l0.3,0.6l0.1,0.6l0.2,0.6l0,0.6l0.1,0.6l0,0.6
	l0.2,0.6l0,0.6l-0.1,0.6l0.1,0.6l-0.1,0.6l-0.1,0.6l0.3,0.6l-0.3,0.6l0.1,0.6l0,0.6l-0.1,0.6l0.3,0.6l-0.2,0.6l0.1,0.6l0,0.6
	l-0.2,0.6l0.2,0.6v0.6l-0.1,0.6l-0.2,0.6l0,0.6l0.1,0.6l0,0.6l0,0.6l-0.1,0.6l0,0.6l0.1,0.6l0.5,0l0.6,0l0.6,0.1l0.6-0.1l0.6,0
	l0.6,0.1l0.5,0l0.3-0.5l-0.1-0.6l0-0.6l-0.1-0.6l0-0.6l0.1-0.6l-0.1-0.6l0-0.6l0-0.6l-0.1-0.6l0.3-0.6l-0.2-0.6l0.1-0.6l0.1-0.6
	l-0.1-0.6l-0.2-0.6l0.3-0.6l-0.2-0.6l0.2-0.6l-0.2-0.6l0.1-0.6l-0.1-0.6l0.1-0.6l0.1-0.6l0.1-0.6l-0.2-0.6l-0.1-0.6l0.4-0.6
	l-0.2-0.6l0.1-0.6l0.2-0.6l0.3-0.5l0.2-0.6l0.5-0.4l0.1-0.6l0.3-0.5L371,17l0.6-0.4l0.5-0.5l0.5-0.4l0.6-0.4l0.6-0.1l0.5-0.1
	l0.6-0.1l0.5-0.3l0.6,0.2l0.6-0.1l0.6,0.1l0.6,0.1l0.6,0.1l0.5,0.3l0.6,0.1l0.4,0.5l0.5,0.4l0.4,0.5l0.6,0.3l0.3,0.6l0.1,0.6L382,19
	l0.2,0.6l0.2,0.6l0.1,0.6l0.1,0.6l-0.1,0.6l0,0.6l0.1,0.6l0,0.6l0,0.6l0.1,0.6l-0.1,0.6l-0.2,0.6l0,0.6l0.2,0.6l-0.2,0.6l0.2,0.6
	l0,0.6l0.1,0.6l-0.3,0.6l0.2,0.6l0.1,0.6l-0.3,0.6l0.3,0.6l-0.2,0.6l0.1,0.6l-0.1,0.6l0.2,0.6l-0.2,0.6l0.3,0.6l-0.2,0.6l0,0.6
	l0,0.6l0.6-0.1l0.6,0.1l0.6,0l0.6,0.2l0.6-0.2l0.6,0.2l0.6-0.2l0.1-0.6l-0.1-0.6l0-0.6l0.1-0.6l-0.3-0.6l0.3-0.6l0-0.6l0-0.6
	l-0.2-0.6l0.1-0.6l0.1-0.6l0-0.6l-0.2-0.6l0.1-0.6l0-0.6l-0.2-0.6l0.3-0.6l0-0.6l0-0.6l0.1-0.6l-0.1-0.6l-0.2-0.6l0.1-0.6l0.2-0.6
	l-0.1-0.6l0-0.6l-0.1-0.6l0.1-0.6l-0.2-0.6l0-0.6l0.1-0.6l-0.2-0.6l-0.2-0.6l-0.2-0.6l-0.1-0.6l-0.3-0.5l-0.4-0.5l0-0.7l-0.4-0.5
	l-0.3-0.6l-0.4-0.5L384,14z"/>
</svg>
