<svg version="1.1" baseProfile="tiny" id="maoiq_mark"
	 xmlns="http://www.w3.org/2000/svg" xmlns:xlink="http://www.w3.org/1999/xlink" x="0px" y="0px" viewBox="0 0 86 80"
	 xml:space="preserve">
<polygon fill="#594F23" points="71.9,13.5 71.7,13.4 71.6,13.3 71.4,13.2 71.3,13.1 71.2,12.9 71,12.9 70.8,12.7 70.7,12.6 
	70.6,12.5 70.4,12.4 70.2,12.3 70.1,12.1 70,12 69.9,11.9 69.6,11.8 69.5,11.7 69.4,11.5 69.3,11.4 69.1,11.4 68.9,11.2 68.8,11.1 
	68.7,10.9 68.5,10.8 68.4,10.7 68.2,10.6 68,10.5 67.9,10.4 67.7,10.3 67.6,10.1 67.4,10 67.3,9.9 67.2,9.8 67,9.6 66.9,9.5 
	66.7,9.4 66.6,9.3 66.4,9.2 66.2,9.1 66.1,8.9 66,8.8 65.8,8.7 65.7,8.6 65.5,8.4 65.4,8.3 65.3,8.2 65.1,8.1 64.9,8 64.8,7.9 
	64.7,7.7 64.5,7.6 64.4,7.5 64.2,7.4 64.1,7.3 63.9,7.2 63.8,7 63.8,6.8 63.6,6.7 63.5,6.5 63.5,6.4 63.3,6.2 63.3,6 63.2,5.9 
	63.2,5.7 63,5.5 63,5.3 62.9,5.2 62.8,5 62.7,4.8 62.7,4.7 62.6,4.5 62.6,4.3 62.5,4.1 62.4,4 62.4,3.7 62.3,3.6 62.2,3.4 62.1,3.2 
	62,3.1 62,2.9 61.9,2.7 61.8,2.5 61.7,2.4 61.8,2.1 61.6,2 61.6,1.8 61.6,1.6 61.4,1.5 61.4,1.3 61.3,1.1 61.3,0.9 61.2,0.7 
	61.1,0.6 61,0.4 61,0.2 60.9,0.1 60.7,0.1 60.6,0.2 60.4,0.2 60.2,0.3 60,0.3 59.8,0.4 59.9,0.6 59.9,0.8 60,1 60.1,1.1 60.2,1.3 
	60.2,1.5 60.3,1.7 60.4,1.8 60.4,2 60.5,2.2 60.5,2.4 60.6,2.5 60.7,2.7 60.8,2.9 60.8,3.1 60.9,3.3 61,3.4 61,3.6 61.1,3.8 61.2,4 
	61.3,4.1 61.3,4.3 61.4,4.5 61.4,4.7 61.5,4.8 61.5,5.1 61.6,5.3 61.4,5.3 61.2,5.1 61.2,5 61,4.9 60.8,4.7 60.7,4.6 60.5,4.5 
	60.4,4.4 60.2,4.3 60.1,4.2 59.9,4 59.8,3.9 59.6,3.9 59.5,3.7 59.3,3.6 59.1,3.5 59,3.3 58.9,3.3 58.7,3.1 58.6,3 58.4,2.9 
	58.3,2.8 58.2,2.6 58,2.5 57.9,2.4 57.7,2.3 57.5,2.2 57.4,2 57.2,2 57.1,1.8 56.9,1.7 56.8,1.6 56.7,1.5 56.5,1.3 56.3,1.5 
	56.3,1.6 56.1,1.8 56.1,2 55.9,2.1 55.8,2.2 55.7,2.4 55.8,2.5 55.9,2.6 56.1,2.8 56.3,2.8 56.4,3 56.5,3.1 56.7,3.2 56.8,3.3 
	56.9,3.5 57.1,3.5 57.2,3.7 57.4,3.8 57.6,3.9 57.7,4 57.8,4.1 58,4.2 58.2,4.4 58.3,4.5 58.4,4.6 58.6,4.7 58.7,4.8 58.9,5 59.1,5 
	59.2,5.2 59.3,5.3 59.5,5.4 59.6,5.5 59.8,5.6 59.9,5.8 60.1,5.9 60.2,6 60.3,6.2 60.5,6.2 60.6,6.3 60.8,6.5 60.9,6.6 61.1,6.7 
	61.2,6.8 61.3,7 61.5,7 61.6,7.2 61.8,7.3 61.9,7.4 62.1,7.5 62.3,7.6 62.4,7.7 62.5,7.9 62.7,8 62.8,8.1 62.9,8.2 63.1,8.4 
	63.3,8.5 63.4,8.6 63.5,8.7 63.7,8.8 63.8,8.9 64,9 64.1,9.2 64.3,9.3 64.4,9.4 64.6,9.5 64.7,9.6 64.8,9.8 65,9.9 65.2,10 
	65.3,10.1 65.4,10.3 65.6,10.3 65.8,10.4 65.9,10.6 66.1,10.7 66.2,10.8 66.3,10.9 66.4,11.1 66.6,11.2 66.7,11.3 66.9,11.4 
	67,11.5 67.2,11.6 67.3,11.8 67.5,11.9 67.6,12 67.8,12.1 67.9,12.2 68,12.4 68.2,12.4 68.4,12.6 68.5,12.7 68.6,12.9 68.8,13 
	68.9,13 69.1,13.2 69.2,13.3 69.4,13.4 69.5,13.5 69.7,13.6 69.8,13.8 70,13.8 70.1,13.9 70.3,14.1 70.4,14.2 70.5,14.4 70.7,14.5 
	70.8,14.6 71,14.7 71.1,14.5 71.2,14.4 71.3,14.3 71.5,14.1 71.6,14 71.7,13.9 71.8,13.7 "/>
<polygon fill="#594F23" points="46.5,16.4 46.7,16.5 46.9,16.6 47,16.7 47.2,16.8 47.3,16.9 47.4,17.1 47.6,17.1 47.7,17.3 
	47.9,17.4 48,17.5 48.2,17.6 48.4,17.7 48.5,17.9 48.7,17.9 48.8,18 48.9,18.2 49.1,18.2 49.3,18.4 49.4,18.5 49.6,18.6 49.7,18.7 
	49.9,18.8 50,19 50.1,19.1 50.3,19.2 50.4,19.3 50.7,19.4 50.8,19.5 50.9,19.7 51.1,19.8 51.2,19.8 51.4,20 51.5,20.1 51.7,20.2 
	51.9,20.3 52,20.4 52.2,20.5 52.3,20.7 52.5,20.8 52.6,20.9 52.7,21 52.9,21.1 53.1,21.2 53.2,21.3 53.4,21.4 53.5,21.5 53.7,21.7 
	53.8,21.8 54,21.9 54.1,22 54.3,22.1 54.4,22.2 54.6,22.4 54.7,22.5 54.8,22.6 54.9,22.8 55,22.9 55.1,23.1 55.2,23.2 55.3,23.4 
	55.4,23.6 55.5,23.7 55.6,23.9 55.6,24.1 55.7,24.3 55.8,24.4 55.9,24.6 56,24.8 56.1,24.9 56.1,25.1 56.2,25.3 56.2,25.5 
	56.4,25.6 56.4,25.8 56.4,26 56.5,26.2 56.6,26.3 56.8,26.5 56.8,26.7 56.9,26.8 56.9,27 57,27.2 57.1,27.4 57.2,27.5 57.2,27.7 
	57.4,27.9 57.4,28.1 57.4,28.3 57.5,28.4 57.6,28.6 57.6,28.8 57.7,29 57.8,29.1 57.9,29.3 58,29.5 58.2,29.4 58.3,29.4 58.5,29.3 
	58.7,29.2 58.9,29.1 59,29.1 58.9,28.9 58.9,28.7 58.9,28.5 58.7,28.4 58.7,28.2 58.6,28 58.6,27.8 58.5,27.7 58.4,27.5 58.3,27.3 
	58.3,27.1 58.2,27 58.1,26.8 58.1,26.6 58,26.4 57.9,26.2 57.8,26.1 57.8,25.9 57.6,25.8 57.6,25.6 57.5,25.4 57.5,25.2 57.4,25 
	57.3,24.8 57.3,24.7 57.2,24.5 57.1,24.3 57.3,24.3 57.4,24.4 57.6,24.5 57.7,24.7 57.9,24.7 58,24.9 58.2,25 58.4,25.1 58.5,25.2 
	58.7,25.3 58.8,25.4 59,25.5 59.1,25.6 59.3,25.8 59.4,25.9 59.6,25.9 59.8,26.1 59.9,26.2 60.1,26.3 60.2,26.4 60.4,26.5 
	60.5,26.7 60.6,26.8 60.8,26.9 61,27 61.1,27.1 61.3,27.2 61.4,27.3 61.6,27.4 61.7,27.5 61.8,27.7 62,27.8 62.2,27.9 62.3,28 
	62.4,27.8 62.6,27.7 62.7,27.5 62.8,27.4 62.9,27.3 63,27.1 63.1,27 63,26.9 62.8,26.7 62.7,26.6 62.5,26.5 62.4,26.4 62.2,26.3 
	62.1,26.2 62,26.1 61.8,26 61.7,25.8 61.5,25.7 61.3,25.6 61.2,25.5 61,25.4 60.9,25.3 60.7,25.2 60.6,25 60.4,25 60.2,24.9 
	60.1,24.7 59.9,24.6 59.8,24.5 59.7,24.3 59.5,24.3 59.4,24.2 59.2,24 59.1,23.9 58.9,23.9 58.8,23.7 58.6,23.6 58.5,23.5 
	58.3,23.4 58.2,23.3 58,23.2 57.9,23.1 57.7,22.9 57.6,22.9 57.4,22.7 57.3,22.6 57.1,22.5 57,22.4 56.8,22.2 56.7,22.1 56.5,22.1 
	56.4,21.9 56.3,21.8 56.1,21.7 55.9,21.6 55.8,21.5 55.7,21.3 55.5,21.3 55.3,21.2 55.2,21 55.1,20.9 54.9,20.8 54.8,20.7 
	54.6,20.6 54.4,20.5 54.3,20.3 54.1,20.3 54,20.1 53.8,20.1 53.7,19.9 53.5,19.8 53.4,19.7 53.2,19.6 53.1,19.4 53,19.3 52.8,19.3 
	52.7,19.1 52.5,19 52.3,18.9 52.2,18.8 52,18.7 51.9,18.5 51.7,18.5 51.6,18.3 51.5,18.2 51.3,18.2 51.1,18 51,17.9 50.8,17.8 
	50.7,17.7 50.6,17.5 50.4,17.5 50.3,17.3 50.1,17.2 49.9,17.1 49.8,17 49.6,16.9 49.5,16.8 49.3,16.7 49.2,16.5 49,16.5 48.9,16.3 
	48.8,16.2 48.6,16.1 48.5,16 48.3,15.9 48.2,15.7 48,15.6 47.8,15.6 47.7,15.4 47.5,15.3 47.4,15.2 47.3,15.3 47.2,15.5 47,15.6 
	47,15.8 46.9,15.9 46.8,16.1 46.6,16.2 "/>
<polygon fill="#594F23" points="10.8,26.1 10.9,26.3 10.9,26.5 10.9,26.7 11,26.9 10.9,27 10.9,27.3 11,27.4 11,27.6 11.1,27.8 
	11.1,28 11,28.2 11.1,28.4 11.1,28.5 11.1,28.7 11.1,28.9 11.1,29.1 11.1,29.3 11.2,29.5 11.2,29.7 11.1,29.9 11.2,30 11.2,30.2 
	11.2,30.4 11.2,30.6 11.2,30.8 11.3,31 11.3,31.1 11.3,31.3 11.3,31.5 11.4,31.7 11.4,31.9 11.4,32.1 11.4,32.3 11.5,32.4 
	11.4,32.6 11.5,32.8 11.5,33 11.5,33.2 11.5,33.4 11.5,33.6 11.5,33.8 11.5,33.9 11.6,34.1 11.6,34.3 11.6,34.5 11.6,34.7 
	11.6,34.9 11.6,35.1 11.7,35.2 11.7,35.4 11.7,35.6 11.7,35.8 11.8,36 11.7,36.2 11.8,36.4 11.8,36.5 11.8,36.7 11.8,36.9 
	11.8,37.1 11.9,37.3 11.8,37.5 11.9,37.7 11.9,37.9 11.9,38 11.9,38.2 12,38.4 12,38.6 12,38.8 12,39 12,39.2 12,39.4 12,39.5 
	12.1,39.7 12,39.9 12.1,40.1 12.1,40.3 12.1,40.5 12.1,40.6 12.2,40.8 12.2,41 12.2,41.2 12.2,41.4 12.2,41.6 12.3,41.8 12.2,42 
	12.2,42.1 12.2,42.3 12.3,42.5 12.3,42.7 12.4,42.9 12.3,43.1 12.4,43.3 12.4,43.5 12.4,43.6 12.4,43.8 12.4,44 12.4,44.2 
	12.5,44.4 12.5,44.6 12.5,44.8 12.5,45 12.6,45.1 12.5,45.3 12.6,45.5 12.6,45.7 12.8,45.7 13,45.7 13.1,45.7 13.3,45.6 13.5,45.6 
	13.7,45.6 13.9,45.6 13.9,45.4 13.9,45.2 13.9,45 13.9,44.8 13.8,44.6 13.8,44.4 13.7,44.3 13.8,44.1 13.8,43.9 13.8,43.7 
	13.8,43.5 13.7,43.3 13.7,43.1 13.7,42.9 13.6,42.8 13.6,42.6 13.6,42.4 13.6,42.2 13.6,42 13.6,41.8 13.6,41.6 13.5,41.4 
	13.5,41.2 13.5,41 13.5,40.9 13.5,40.7 13.5,40.5 13.4,40.3 13.4,40.1 13.4,39.9 13.4,39.7 13.4,39.5 13.4,39.4 13.5,39.3 
	13.7,39.3 13.7,39.5 13.9,39.7 13.9,39.8 14.1,40 14.2,40.1 14.3,40.3 14.4,40.5 14.5,40.6 14.7,40.7 14.8,40.9 14.8,41.1 15,41.2 
	15,41.4 15.2,41.5 15.3,41.6 15.4,41.8 15.5,42 15.6,42.1 15.7,42.3 15.8,42.4 16,42.5 16.1,42.7 16.2,42.9 16.3,43.1 16.4,43.2 
	16.5,43.3 16.7,43.2 16.8,43.1 17,43 17.1,42.9 17.3,42.8 17.4,42.7 17.3,42.5 17.2,42.4 17.1,42.2 16.9,42.1 16.9,41.9 16.8,41.7 
	16.7,41.6 16.5,41.4 16.4,41.3 16.3,41.1 16.3,40.9 16.1,40.8 16,40.6 15.9,40.5 15.8,40.3 15.7,40.2 15.6,40 15.4,39.9 15.4,39.7 
	15.3,39.5 15.1,39.4 15,39.3 14.9,39.1 14.8,39 14.8,38.7 14.6,38.6 14.5,38.4 14.4,38.3 14.2,38.2 14.2,38 14.1,37.8 13.9,37.7 
	13.9,37.5 13.8,37.3 13.7,37.2 13.5,37.1 13.4,36.9 13.4,36.7 13.4,36.5 13.2,36.4 13.3,36.2 13.2,36 13.1,35.8 13.1,35.6 
	13.1,35.4 13.1,35.3 13,35.1 13.1,34.9 13.1,34.7 13,34.5 13,34.3 13,34.1 13,33.9 12.9,33.8 12.9,33.6 13,33.4 12.9,33.2 12.9,33 
	12.9,32.8 12.9,32.6 12.9,32.4 12.8,32.3 12.8,32.1 12.8,31.9 12.7,31.7 12.8,31.5 12.7,31.3 12.8,31.1 12.7,31 12.7,30.7 
	12.7,30.5 12.6,30.4 12.6,30.2 12.6,30 12.6,29.8 12.6,29.6 12.6,29.4 12.6,29.2 12.6,29 12.5,28.9 12.6,28.6 12.5,28.5 12.5,28.3 
	12.5,28.1 12.5,27.9 12.4,27.7 12.5,27.5 12.5,27.3 12.4,27.1 12.4,27 12.4,26.8 12.3,26.6 12.3,26.4 12.3,26.2 12.3,26 12.1,26.1 
	11.9,26 11.8,26 11.6,26.1 11.4,26.1 11.2,26.1 11,26.2 "/>
<polygon fill="#594F23" points="22.7,66.9 22.9,66.9 23.2,66.9 23.3,66.9 23.5,66.9 23.7,67 23.9,67 24.1,67.1 24.3,67.1 24.4,67.1 
	24.6,67.1 24.8,67.1 25,67.2 25.2,67.1 25.4,67.1 25.5,67.2 25.7,67.3 25.9,67.3 26.1,67.3 26.3,67.3 26.5,67.4 26.7,67.3 
	26.9,67.3 27,67.4 27.2,67.4 27.4,67.4 27.6,67.5 27.8,67.4 28,67.5 28.1,67.6 28.3,67.6 28.5,67.6 28.7,67.6 28.9,67.7 29.1,67.7 
	29.3,67.6 29.5,67.7 29.6,67.8 29.8,67.8 30,67.8 30.2,67.8 30.4,67.8 30.5,67.8 30.7,67.9 30.9,67.9 31.1,67.9 31.3,68 31.5,68 
	31.7,67.9 31.9,68 32,68.1 32.2,68.1 32.4,68.1 32.6,68.1 32.8,68.2 33,68.2 33.1,68.2 33.4,68.1 33.5,68.2 33.7,68.2 33.9,68.3 
	34.1,68.3 34.3,68.3 34.5,68.4 34.6,68.3 34.8,68.4 35,68.4 35.2,68.4 35.4,68.4 35.6,68.5 35.8,68.5 36,68.5 36.1,68.5 36.3,68.5 
	36.5,68.5 36.7,68.6 36.9,68.6 37.1,68.6 37.2,68.6 37.4,68.7 37.6,68.7 37.8,68.7 38,68.7 38.2,68.8 38.4,68.8 38.6,68.9 
	38.7,68.8 38.9,68.8 39.1,68.9 39.3,68.9 39.5,68.9 39.7,68.9 39.9,68.9 40.1,69 40.2,69 40.4,69.1 40.6,69.1 40.8,69.1 41,69.1 
	41.2,69.1 41.3,69.1 41.5,69.2 41.7,69.2 41.9,69.2 42.1,69.2 42.3,69.3 42.3,69.1 42.3,68.9 42.4,68.7 42.4,68.5 42.4,68.3 
	42.5,68.2 42.4,68 42.3,67.9 42.1,67.9 41.9,67.9 41.7,67.9 41.5,67.9 41.3,67.8 41.1,67.8 40.9,67.7 40.8,67.8 40.6,67.8 
	40.4,67.7 40.2,67.7 40,67.6 39.8,67.6 39.6,67.6 39.4,67.6 39.3,67.6 39.1,67.6 38.8,67.5 38.7,67.4 38.5,67.5 38.3,67.4 
	38.1,67.4 37.9,67.4 37.8,67.4 37.6,67.3 37.4,67.3 37.2,67.2 37,67.3 36.8,67.2 36.6,67.2 36.4,67.1 36.2,67.2 36.1,67.1 
	36.3,66.9 36.5,66.9 36.7,66.8 36.8,66.7 37,66.6 37.1,66.5 37.4,66.5 37.5,66.3 37.7,66.3 37.8,66.2 38,66.1 38.2,66.1 38.3,65.9 
	38.5,65.9 38.7,65.9 38.9,65.8 39.1,65.7 39.3,65.7 39.4,65.5 39.6,65.4 39.8,65.4 39.9,65.4 40.1,65.2 40.3,65.2 40.5,65.1 
	40.6,65 40.8,64.9 40.7,64.7 40.6,64.6 40.5,64.4 40.5,64.2 40.3,64.1 40.3,63.9 40.1,64 40,64.1 39.8,64.1 39.6,64.2 39.4,64.3 
	39.3,64.3 39.1,64.4 38.9,64.4 38.7,64.6 38.6,64.6 38.4,64.7 38.2,64.8 38,64.8 37.9,65 37.7,65 37.5,65.1 37.4,65.2 37.2,65.2 
	37,65.4 36.8,65.4 36.7,65.5 36.5,65.6 36.3,65.6 36.1,65.7 35.9,65.7 35.8,65.8 35.6,65.9 35.4,66 35.2,66 35,66.1 34.9,66.2 
	34.7,66.2 34.5,66.3 34.4,66.4 34.2,66.5 34,66.5 33.8,66.5 33.7,66.6 33.5,66.6 33.3,66.6 33.1,66.6 32.9,66.7 32.7,66.6 
	32.6,66.6 32.4,66.6 32.2,66.6 32,66.5 31.8,66.5 31.6,66.6 31.4,66.6 31.2,66.5 31.1,66.4 30.8,66.5 30.7,66.4 30.5,66.4 
	30.3,66.4 30.1,66.3 29.9,66.3 29.7,66.3 29.5,66.3 29.3,66.3 29.2,66.2 29,66.2 28.8,66.2 28.6,66.1 28.4,66.2 28.2,66.1 
	28.1,66.1 27.9,66.1 27.7,66 27.5,66 27.3,66.1 27.1,66 26.9,66 26.7,65.9 26.5,65.9 26.3,65.9 26.2,65.9 26,65.8 25.8,65.8 
	25.6,65.8 25.4,65.7 25.2,65.7 25,65.7 24.8,65.7 24.7,65.7 24.5,65.7 24.3,65.6 24.1,65.6 23.9,65.5 23.7,65.6 23.5,65.5 
	23.3,65.5 23.2,65.5 22.9,65.4 22.9,65.6 22.9,65.8 22.9,66 22.8,66.2 22.9,66.3 22.9,66.5 22.8,66.7 "/>
<polygon fill="#594F23" points="49.2,79.9 49.3,79.8 49.5,79.7 49.7,79.7 49.9,79.6 50,79.5 50.2,79.4 50.4,79.4 50.5,79.3 
	50.7,79.1 50.9,79.1 51,79 51.2,78.9 51.3,78.8 51.5,78.7 51.6,78.6 51.8,78.5 52,78.4 52.2,78.4 52.3,78.3 52.5,78.2 52.7,78.1 
	52.8,78 53,77.9 53.1,77.8 53.3,77.7 53.4,77.6 53.7,77.6 53.8,77.5 54,77.3 54.1,77.2 54.3,77.2 54.4,77.1 54.6,77 54.8,76.9 
	54.9,76.8 55.2,76.8 55.3,76.7 55.5,76.6 55.6,76.5 55.8,76.4 56,76.3 56.1,76.2 56.3,76.2 56.5,76.1 56.6,75.9 56.8,75.9 
	56.9,75.8 57.1,75.7 57.2,75.6 57.4,75.5 57.6,75.4 57.8,75.3 57.9,75.2 58.1,75.2 58.3,75.1 58.4,75 58.6,74.9 58.7,74.8 
	58.9,74.7 59.1,74.6 59.3,74.6 59.4,74.4 59.6,74.4 59.7,74.3 59.9,74.2 60.1,74.1 60.2,74 60.4,73.9 60.5,73.8 60.7,73.8 
	60.9,73.6 61,73.5 61.2,73.5 61.4,73.3 61.5,73.3 61.7,73.2 61.9,73.1 62,73 62.2,73 62.4,72.9 62.5,72.8 62.7,72.7 62.9,72.6 
	63.1,72.5 63.2,72.4 63.3,72.3 63.5,72.2 63.7,72.1 63.9,72 64,71.9 64.2,71.8 64.4,71.8 64.5,71.7 64.7,71.6 64.8,71.5 65,71.4 
	65.2,71.4 65.3,71.2 65.5,71.1 65.7,71.1 65.9,71 66,70.9 66.2,70.8 66.3,70.7 66.5,70.6 66.4,70.4 66.3,70.3 66.2,70.1 66.2,69.9 
	66,69.8 66,69.6 65.9,69.5 65.7,69.6 65.5,69.6 65.4,69.7 65.2,69.9 65,69.9 64.9,70 64.7,70.1 64.6,70.2 64.4,70.3 64.2,70.4 
	64,70.5 63.9,70.5 63.7,70.6 63.6,70.7 63.4,70.8 63.2,70.8 63.1,71 62.9,71 62.7,71.1 62.5,71.3 62.4,71.3 62.2,71.4 62,71.5 
	61.8,71.6 61.7,71.7 61.5,71.8 61.3,71.8 61.2,72 61,72 60.9,72.2 60.7,72.2 60.5,72.3 60.4,72.4 60.2,72.4 60.2,72.2 60.3,72 
	60.5,71.9 60.6,71.7 60.7,71.5 60.8,71.4 60.9,71.2 61,71.1 61,70.8 61.2,70.7 61.2,70.6 61.3,70.4 61.4,70.2 61.5,70 61.7,69.9 
	61.7,69.7 61.8,69.6 61.9,69.4 62,69.2 62.1,69.1 62.2,68.9 62.3,68.8 62.4,68.6 62.5,68.4 62.6,68.3 62.7,68.1 62.8,67.9 
	62.6,67.8 62.4,67.8 62.3,67.7 62.1,67.6 62,67.4 61.8,67.4 61.7,67.6 61.6,67.7 61.5,67.9 61.4,68 61.3,68.2 61.2,68.4 61.1,68.5 
	61,68.6 60.9,68.8 60.8,68.9 60.7,69.1 60.6,69.3 60.5,69.5 60.4,69.6 60.3,69.8 60.2,69.9 60.1,70.1 60.1,70.3 59.9,70.5 
	59.8,70.6 59.7,70.8 59.6,71 59.5,71.1 59.4,71.2 59.3,71.4 59.2,71.6 59.1,71.7 59,71.9 58.9,72 58.7,72.2 58.7,72.4 58.6,72.6 
	58.5,72.7 58.4,72.9 58.2,73 58.1,73.1 58,73.3 57.9,73.4 57.8,73.6 57.6,73.7 57.5,73.8 57.4,73.9 57.2,74 57,74.1 56.9,74.2 
	56.7,74.3 56.5,74.3 56.4,74.4 56.2,74.5 56,74.6 55.9,74.7 55.7,74.8 55.6,74.9 55.4,75 55.2,75 55,75.2 54.9,75.3 54.7,75.3 
	54.6,75.5 54.4,75.5 54.2,75.6 54,75.7 53.9,75.8 53.7,75.9 53.5,76 53.4,76.1 53.2,76.1 53.1,76.3 52.9,76.4 52.7,76.4 52.5,76.5 
	52.4,76.6 52.2,76.7 52,76.8 51.9,76.9 51.7,76.9 51.5,77 51.4,77.1 51.2,77.2 51,77.3 50.9,77.4 50.7,77.5 50.5,77.5 50.4,77.6 
	50.2,77.8 50,77.9 49.9,77.9 49.7,78 49.6,78.1 49.4,78.2 49.2,78.3 49.1,78.4 48.9,78.4 48.7,78.5 48.5,78.6 48.6,78.8 48.7,79 
	48.8,79.1 48.8,79.3 48.9,79.4 49,79.6 49.1,79.8 "/>
<polygon fill="#594F23" points="68.2,59.3 68.1,59.1 68,59 67.8,58.9 67.7,58.8 67.5,58.7 67.4,58.6 67.2,58.4 67.1,58.3 66.9,58.2 
	66.8,58.1 66.6,58 66.5,57.9 66.3,57.8 66.2,57.6 66.1,57.5 65.9,57.4 65.8,57.3 65.7,57.1 65.5,57.1 65.3,56.9 65.2,56.8 
	65.1,56.7 64.9,56.6 64.8,56.5 64.6,56.3 64.5,56.2 64.3,56.1 64.2,56 64,55.9 63.9,55.8 63.7,55.6 63.6,55.5 63.4,55.4 63.3,55.3 
	63.1,55.2 63,55 62.8,54.9 62.7,54.9 62.6,54.7 62.4,54.6 62.3,54.5 62.1,54.4 62,54.2 61.8,54.1 61.7,54 61.6,53.9 61.4,53.8 
	61.2,53.7 61.1,53.5 60.9,53.4 60.8,53.3 60.7,53.1 60.6,53 60.4,53 60.2,52.8 60.1,52.7 60,52.6 59.8,52.5 59.7,52.3 59.5,52.3 
	59.4,52.2 59.2,52 59.1,51.9 58.9,51.8 58.8,51.6 58.6,51.5 58.5,51.4 58.3,51.3 58.2,51.2 58,51.1 57.9,50.9 57.7,50.9 57.6,50.7 
	57.5,50.6 57.3,50.5 57.2,50.3 57,50.3 56.9,50.1 56.7,50 56.5,49.9 56.5,49.7 56.3,49.7 56.1,49.6 56,49.4 55.9,49.3 55.7,49.2 
	55.6,49 55.4,48.9 55.3,48.8 55.1,48.8 55,48.6 54.8,48.5 54.7,48.4 54.5,48.3 54.4,48.1 54.3,48 54.1,47.9 54,47.8 53.8,47.6 
	53.7,47.6 53.5,47.4 53.4,47.3 53.3,47.1 53.1,47 52.9,47 52.8,47.1 52.7,47.2 52.6,47.4 52.5,47.5 52.3,47.6 52.2,47.8 52.1,48 
	52.2,48.1 52.4,48.2 52.6,48.3 52.7,48.5 52.9,48.6 53,48.7 53.1,48.8 53.3,48.9 53.4,49 53.5,49.2 53.7,49.3 53.9,49.4 54,49.6 
	54.2,49.6 54.3,49.8 54.5,49.9 54.6,50 54.8,50.1 54.9,50.3 55,50.3 55.2,50.5 55.3,50.7 55.5,50.8 55.6,50.8 55.7,51 55.9,51.1 
	56.1,51.2 56.2,51.3 56.4,51.5 56.5,51.6 56.7,51.6 56.8,51.9 56.9,51.9 57.1,52.1 56.8,52.1 56.6,52 56.4,52 56.2,52.1 56,52 
	55.9,51.9 55.7,51.9 55.5,51.9 55.3,51.9 55.1,51.9 54.9,51.9 54.7,51.8 54.5,51.8 54.4,51.8 54.2,51.7 54,51.7 53.8,51.7 
	53.6,51.7 53.4,51.6 53.2,51.6 53,51.6 52.9,51.6 52.7,51.6 52.5,51.5 52.3,51.4 52.1,51.5 51.9,51.5 51.8,51.6 51.9,51.8 51.9,52 
	51.9,52.2 51.8,52.4 51.8,52.6 52,52.6 52.2,52.6 52.3,52.7 52.5,52.7 52.7,52.7 52.9,52.7 53.1,52.7 53.3,52.8 53.4,52.9 
	53.7,52.9 53.8,52.9 54,52.9 54.2,53 54.4,53 54.6,52.9 54.8,53 55,53 55.2,53.1 55.3,53.1 55.5,53.1 55.7,53.1 55.9,53.1 
	56.1,53.2 56.3,53.3 56.5,53.3 56.7,53.4 56.8,53.4 57,53.4 57.2,53.4 57.4,53.4 57.6,53.5 57.8,53.5 57.9,53.6 58.2,53.5 
	58.3,53.6 58.5,53.7 58.7,53.7 58.9,53.8 59,53.9 59.2,53.9 59.3,54 59.5,54.1 59.7,54.2 59.8,54.3 60,54.4 60.1,54.6 60.3,54.6 
	60.4,54.8 60.5,54.9 60.7,55 60.9,55.2 61,55.2 61.1,55.4 61.3,55.5 61.4,55.6 61.6,55.7 61.7,55.9 61.8,56 62,56.1 62.2,56.2 
	62.3,56.3 62.4,56.5 62.6,56.6 62.8,56.7 62.9,56.8 63.1,56.9 63.2,57 63.3,57.1 63.5,57.2 63.6,57.4 63.8,57.5 63.9,57.6 
	64.1,57.8 64.2,57.9 64.3,58 64.5,58.1 64.7,58.3 64.8,58.4 65,58.4 65.1,58.6 65.3,58.7 65.4,58.8 65.5,59 65.7,59.1 65.8,59.2 
	66,59.3 66.2,59.4 66.3,59.6 66.4,59.7 66.6,59.8 66.7,59.9 66.9,60 67,60.2 67.2,60.3 67.3,60.4 67.4,60.3 67.5,60.1 67.7,60 
	67.7,59.8 67.9,59.7 68,59.6 68.1,59.4 "/>
<polygon fill="#594F23" points="78.6,58.3 78.7,58.2 78.8,58 78.9,57.8 78.9,57.6 78.9,57.5 79,57.3 79,57.1 79.1,56.9 79.2,56.7 
	79.3,56.6 79.4,56.4 79.4,56.2 79.5,56 79.5,55.9 79.5,55.7 79.7,55.5 79.7,55.3 79.8,55.2 79.9,55 79.9,54.8 80,54.6 80.1,54.5 
	80.1,54.3 80.2,54.1 80.3,53.9 80.4,53.8 80.4,53.6 80.5,53.4 80.5,53.2 80.6,53.1 80.6,52.9 80.6,52.7 80.8,52.6 80.8,52.3 
	80.9,52.2 81,52 81,51.8 81,51.6 81.2,51.5 81.2,51.3 81.3,51.1 81.3,51 81.4,50.8 81.4,50.6 81.5,50.4 81.6,50.3 81.7,50.1 
	81.7,49.9 81.8,49.7 81.9,49.6 81.9,49.3 82,49.2 82,49 82.1,48.8 82.1,48.6 82.2,48.5 82.3,48.3 82.4,48.1 82.4,48 82.5,47.8 
	82.5,47.6 82.6,47.4 82.7,47.3 82.8,47.1 82.8,46.9 82.9,46.7 82.9,46.6 82.9,46.4 83.1,46.2 83.1,46 83.2,45.9 83.2,45.6 
	83.3,45.5 83.4,45.3 83.4,45.1 83.5,45 83.5,44.8 83.6,44.6 83.7,44.4 83.8,44.3 83.8,44.1 83.9,43.9 83.9,43.7 84,43.6 84,43.4 
	84.2,43.2 84.2,43.1 84.3,42.9 84.3,42.7 84.3,42.5 84.5,42.3 84.5,42.1 84.6,42 84.6,41.8 84.7,41.6 84.7,41.4 84.8,41.3 
	84.9,41.1 85,40.9 85.1,40.7 85,40.5 85.1,40.4 85.2,40.2 85.3,40.1 85.3,39.9 85.1,39.8 85,39.7 84.8,39.7 84.6,39.6 84.4,39.5 
	84.3,39.4 84.1,39.4 84,39.6 84,39.8 83.9,39.9 83.8,40.1 83.8,40.3 83.7,40.5 83.6,40.6 83.6,40.8 83.5,41 83.4,41.2 83.4,41.4 
	83.3,41.5 83.2,41.7 83.2,41.9 83.1,42.1 83,42.2 83,42.4 82.9,42.6 82.9,42.8 82.8,42.9 82.7,43.1 82.7,43.3 82.6,43.5 82.5,43.7 
	82.5,43.9 82.4,44 82.3,44.2 82.2,44.4 82.3,44.6 82.1,44.7 82.1,44.9 82,45.1 81.9,45.3 81.8,45.4 81.7,45.2 81.6,45 81.6,44.8 
	81.6,44.6 81.5,44.4 81.6,44.2 81.5,44 81.4,43.9 81.4,43.7 81.4,43.5 81.4,43.3 81.3,43.1 81.3,42.9 81.3,42.8 81.2,42.6 
	81.2,42.4 81.1,42.2 81.1,42 81,41.8 81,41.6 81,41.4 80.9,41.3 80.9,41.1 80.9,40.9 80.8,40.7 80.8,40.5 80.8,40.3 80.6,40.4 
	80.4,40.3 80.2,40.4 80,40.5 79.8,40.5 79.6,40.6 79.7,40.7 79.8,40.9 79.8,41.1 79.8,41.3 79.8,41.5 79.8,41.7 79.9,41.9 80,42.1 
	80,42.2 80,42.4 80,42.6 80.1,42.8 80.1,43 80.2,43.2 80.1,43.4 80.2,43.6 80.2,43.7 80.3,43.9 80.3,44.1 80.3,44.3 80.3,44.5 
	80.4,44.7 80.5,44.8 80.5,45.1 80.5,45.2 80.5,45.4 80.5,45.6 80.6,45.8 80.6,46 80.6,46.2 80.7,46.4 80.7,46.6 80.7,46.7 
	80.8,46.9 80.8,47.1 80.8,47.3 80.8,47.5 80.8,47.7 80.8,47.8 80.8,48 80.8,48.2 80.7,48.4 80.6,48.5 80.6,48.7 80.6,48.9 
	80.5,49.1 80.4,49.3 80.4,49.5 80.3,49.6 80.2,49.8 80.2,50 80.1,50.1 80.1,50.4 80,50.5 79.9,50.7 79.8,50.9 79.8,51.1 79.7,51.2 
	79.7,51.4 79.6,51.6 79.5,51.8 79.4,51.9 79.3,52.1 79.3,52.3 79.3,52.5 79.2,52.7 79.1,52.8 79.1,53 79,53.2 78.9,53.4 78.9,53.5 
	78.8,53.7 78.7,53.9 78.7,54.1 78.6,54.2 78.6,54.5 78.5,54.6 78.5,54.8 78.3,55 78.3,55.2 78.2,55.3 78.2,55.5 78.1,55.7 78,55.9 
	77.9,56 77.9,56.2 77.8,56.4 77.8,56.6 77.6,56.7 77.6,56.9 77.5,57.1 77.5,57.3 77.4,57.5 77.3,57.6 77.3,57.8 77.5,57.9 
	77.6,57.9 77.8,58 78,58.1 78.2,58.1 78.3,58.2 78.5,58.3 "/>
<polygon fill="#594F23" points="71.3,57.2 71.4,57.4 71.6,57.5 71.7,57.7 71.8,57.8 71.9,58 72.1,58.1 72.2,58.2 72.2,58.4 
	72.3,58.6 72.5,58.7 72.6,58.8 72.7,59 72.8,59.2 72.9,59.3 73,59.5 73.2,59.6 73.3,59.7 73.4,59.9 73.5,60.1 73.7,60.2 73.7,60.3 
	73.8,60.5 74,60.6 74.1,60.8 74.2,60.9 74.3,61.1 74.5,61.2 74.6,61.4 74.6,61.5 74.7,61.7 74.9,61.8 75,62 75.1,62.1 75.2,62.3 
	75.3,62.4 75.5,62.6 75.5,62.7 75.6,62.9 75.8,63 75.9,63.2 76,63.3 76.1,63.5 76.3,63.6 76.3,63.7 76.4,63.9 76.5,64.1 76.8,64.2 
	76.8,64.3 77,64.5 77.1,64.6 77.2,64.7 77.3,64.9 77.4,65.1 77.5,65.2 77.6,65.4 77.8,65.5 77.9,65.7 77.9,65.8 78,66 78.2,66.1 
	78.3,66.3 78.4,66.4 78.5,66.6 78.6,66.7 78.8,66.8 78.9,67 79,67.1 79.1,67.3 79.2,67.4 79.4,67.6 79.4,67.7 79.6,67.9 79.7,68.1 
	79.8,68.2 79.9,68.3 80,68.5 80.1,68.6 80.3,68.8 80.4,68.9 80.5,69.1 80.6,69.2 80.7,69.4 80.9,69.5 81,69.6 81,69.8 81.2,70 
	81.3,70.1 81.4,70.2 81.6,70.4 81.6,70.6 81.7,70.7 81.9,70.8 82,71 82.1,71.1 82.2,71.3 82.3,71.4 82.5,71.6 82.6,71.7 82.7,71.9 
	82.8,72 82.9,72.2 83.1,72.3 83.1,72.5 83.2,72.6 83.4,72.8 83.5,72.7 83.6,72.5 83.9,72.5 84,72.3 84.1,72.2 84.3,72.1 84.4,72 
	84.3,71.8 84.2,71.6 84.1,71.5 84,71.3 83.8,71.2 83.8,71 83.6,70.9 83.5,70.8 83.4,70.6 83.2,70.5 83.2,70.3 83,70.2 82.9,70 
	82.8,69.9 82.7,69.7 82.6,69.6 82.4,69.4 82.4,69.2 82.2,69.1 82.1,68.9 82,68.8 81.9,68.6 81.8,68.5 81.7,68.4 81.6,68.2 
	81.4,68.1 81.3,67.9 81.2,67.8 81,67.6 81,67.4 80.8,67.3 80.7,67.1 80.6,67 80.6,66.9 80.8,66.9 81,67 81.2,67 81.3,67.1 
	81.5,67.1 81.7,67.2 81.9,67.3 82,67.4 82.2,67.4 82.4,67.5 82.6,67.5 82.8,67.6 82.9,67.7 83.1,67.8 83.3,67.8 83.5,67.9 83.6,68 
	83.8,68 84,68.1 84.2,68.1 84.3,68.3 84.6,68.2 84.7,68.4 84.8,68.5 85.1,68.5 85.2,68.6 85.4,68.7 85.5,68.5 85.6,68.3 85.6,68.1 
	85.7,68 85.8,67.8 85.8,67.6 85.6,67.5 85.5,67.4 85.3,67.3 85.1,67.3 84.9,67.3 84.7,67.2 84.6,67.1 84.4,67.1 84.2,66.9 84,66.9 
	83.9,66.8 83.7,66.7 83.5,66.7 83.4,66.6 83.2,66.6 83,66.4 82.8,66.4 82.6,66.3 82.5,66.2 82.3,66.1 82.1,66.1 81.9,66.1 
	81.7,65.9 81.6,65.9 81.4,65.8 81.2,65.7 81,65.7 80.9,65.6 80.7,65.5 80.5,65.4 80.4,65.3 80.2,65.3 80,65.2 79.8,65.1 79.7,65 
	79.5,64.9 79.4,64.8 79.2,64.8 79.1,64.6 78.9,64.6 78.7,64.4 78.7,64.3 78.5,64.2 78.4,64 78.3,63.8 78.1,63.7 78,63.6 77.9,63.4 
	77.8,63.3 77.7,63.1 77.6,62.9 77.5,62.8 77.4,62.7 77.2,62.5 77.1,62.4 77,62.2 76.8,62.1 76.8,61.9 76.7,61.7 76.5,61.7 
	76.4,61.5 76.3,61.3 76.2,61.2 76.1,61 76,60.9 75.9,60.7 75.7,60.6 75.6,60.5 75.5,60.3 75.3,60.2 75.3,59.9 75.2,59.8 75,59.7 
	74.9,59.5 74.8,59.4 74.7,59.2 74.6,59.1 74.5,58.9 74.4,58.8 74.2,58.6 74.1,58.5 74,58.3 73.9,58.2 73.7,58 73.6,57.9 73.6,57.7 
	73.4,57.6 73.3,57.4 73.2,57.3 73.1,57.1 73,56.9 72.8,56.8 72.7,56.7 72.6,56.5 72.5,56.3 72.4,56.5 72.2,56.5 72,56.7 71.9,56.8 
	71.8,56.9 71.6,57.1 71.5,57.1 "/>
<polygon fill="#594F23" points="75,16.9 75,17.1 75,17.2 75.1,17.4 75.2,17.6 75.2,17.7 75.3,17.9 75.3,18.1 75.5,18.3 75.5,18.5 
	75.6,18.6 75.6,18.8 75.6,19 75.7,19.2 75.7,19.4 75.9,19.5 75.9,19.7 76,19.9 76.1,20.1 76.1,20.2 76.1,20.4 76.2,20.6 76.2,20.8 
	76.3,20.9 76.4,21.1 76.5,21.3 76.5,21.5 76.6,21.6 76.6,21.8 76.7,22 76.7,22.2 76.8,22.3 76.9,22.5 76.9,22.7 77,22.9 77.1,23.1 
	77.1,23.2 77.2,23.4 77.3,23.6 77.3,23.8 77.4,23.9 77.5,24.1 77.5,24.3 77.6,24.4 77.6,24.6 77.6,24.8 77.7,25 77.8,25.2 
	77.8,25.4 77.9,25.5 78,25.7 78,25.9 78,26.1 78.2,26.2 78.3,26.4 78.3,26.6 78.4,26.7 78.4,27 78.5,27.1 78.5,27.3 78.6,27.5 
	78.7,27.6 78.7,27.8 78.7,28 78.8,28.2 78.9,28.4 79,28.5 79,28.7 79.1,28.9 79.1,29.1 79.2,29.2 79.3,29.4 79.3,29.6 79.4,29.8 
	79.4,29.9 79.5,30.1 79.5,30.3 79.6,30.5 79.7,30.7 79.7,30.8 79.8,31 79.8,31.2 79.9,31.4 80,31.5 80,31.8 80.1,31.9 80.2,32.1 
	80.2,32.3 80.3,32.4 80.3,32.6 80.4,32.8 80.5,33 80.5,33.1 80.6,33.3 80.6,33.5 80.8,33.7 80.8,33.8 80.9,34 80.9,34.2 80.9,34.4 
	81.1,34.5 81,34.8 81.2,34.9 81.2,35.1 81.3,35.3 81.3,35.4 81.5,35.4 81.7,35.3 81.9,35.3 82,35.2 82.2,35.1 82.4,35.1 82.5,35 
	82.5,34.9 82.4,34.7 82.4,34.5 82.3,34.3 82.2,34.1 82.3,33.9 82.1,33.8 82.1,33.6 82.1,33.4 82,33.2 81.9,33.1 81.9,32.9 
	81.7,32.7 81.7,32.5 81.7,32.3 81.6,32.2 81.5,32 81.5,31.8 81.4,31.6 81.4,31.4 81.3,31.2 81.3,31.1 81.2,30.9 81.2,30.7 81,30.5 
	81,30.3 80.9,30.2 80.9,30 80.8,29.8 80.7,29.6 80.8,29.5 80.6,29.3 80.6,29.1 80.6,28.9 80.8,29.1 81,29.2 81.1,29.3 81.3,29.4 
	81.4,29.6 81.5,29.7 81.7,29.8 81.9,29.9 82,30 82.1,30.1 82.3,30.3 82.4,30.4 82.6,30.5 82.7,30.6 82.8,30.7 83,30.8 83.2,31 
	83.3,31.1 83.4,31.2 83.5,31.4 83.8,31.5 83.9,31.6 84,31.8 84.2,31.8 84.3,31.9 84.4,32.1 84.6,32.2 84.7,32.1 84.8,31.9 85,31.8 
	85,31.6 85.2,31.5 85.4,31.3 85.2,31.2 85,31.1 84.8,31 84.7,30.8 84.6,30.7 84.4,30.6 84.3,30.4 84.1,30.4 84,30.2 83.9,30.1 
	83.7,30 83.6,29.8 83.4,29.7 83.3,29.6 83.1,29.5 83,29.4 82.9,29.2 82.7,29.1 82.6,28.9 82.5,28.8 82.3,28.7 82.1,28.6 82,28.5 
	81.9,28.4 81.7,28.2 81.6,28.1 81.4,28 81.3,27.9 81.2,27.7 81,27.6 80.9,27.5 80.7,27.3 80.6,27.2 80.5,27 80.4,26.9 80.2,26.8 
	80.1,26.7 79.9,26.5 79.8,26.4 79.8,26.2 79.7,26.1 79.5,25.9 79.5,25.8 79.4,25.5 79.3,25.4 79.3,25.2 79.3,25 79.2,24.8 
	79.1,24.7 79.1,24.5 79,24.3 78.9,24.1 78.9,23.9 78.9,23.7 78.7,23.6 78.7,23.4 78.6,23.2 78.6,23.1 78.5,22.9 78.5,22.7 
	78.4,22.5 78.4,22.3 78.3,22.2 78.2,22 78.2,21.8 78.1,21.6 78,21.4 78,21.3 77.9,21.1 77.9,20.9 77.8,20.7 77.7,20.5 77.7,20.4 
	77.6,20.2 77.5,20 77.5,19.8 77.4,19.7 77.4,19.5 77.3,19.3 77.3,19.1 77.1,18.9 77.1,18.7 77,18.6 77,18.4 77,18.2 76.9,18 
	76.8,17.9 76.7,17.7 76.7,17.5 76.6,17.3 76.5,17.2 76.5,17 76.5,16.8 76.4,16.6 76.3,16.4 76.1,16.5 76,16.5 75.8,16.5 75.6,16.7 
	75.5,16.7 75.3,16.8 75.1,16.8 "/>
<polygon fill="#594F23" points="12.4,15.3 12.5,15.2 12.7,15 12.8,15 12.9,14.8 13,14.6 13.3,14.6 13.4,14.5 13.5,14.3 13.7,14.2 
	13.8,14.1 13.9,14 14.1,13.8 14.2,13.7 14.4,13.6 14.5,13.5 14.7,13.4 14.8,13.2 14.9,13.1 15.1,13 15.2,12.9 15.3,12.7 15.5,12.6 
	15.6,12.5 15.8,12.4 15.9,12.2 16,12.1 16.2,12 16.3,11.9 16.5,11.8 16.7,11.7 16.8,11.5 16.9,11.4 17.1,11.3 17.2,11.2 17.3,11.1 
	17.5,10.9 17.6,10.8 17.8,10.7 17.9,10.6 18,10.4 18.2,10.3 18.3,10.2 18.5,10.1 18.6,9.9 18.8,9.9 18.9,9.7 19,9.6 19.2,9.5 
	19.3,9.3 19.5,9.2 19.6,9.1 19.8,9 19.9,8.9 20,8.7 20.2,8.6 20.3,8.5 20.5,8.4 20.6,8.3 20.7,8.1 20.9,8 21,7.9 21.2,7.8 21.3,7.7 
	21.4,7.5 21.6,7.4 21.7,7.3 21.8,7.1 22,7 22.2,6.9 22.3,6.8 22.5,6.7 22.6,6.6 22.7,6.4 22.9,6.3 23.1,6.2 23.2,6 23.3,5.9 
	23.5,5.8 23.6,5.7 23.7,5.5 23.9,5.4 24,5.3 24.2,5.2 24.3,5.1 24.4,5 24.6,4.8 24.7,4.7 24.9,4.6 25,4.5 25.2,4.3 25.3,4.3 
	25.4,4.1 25.6,4 25.8,3.9 25.9,3.8 26.1,3.6 26.2,3.5 26.3,3.4 26.5,3.3 26.6,3.2 26.8,3.1 26.9,2.9 27,2.8 27.2,2.7 27.4,2.5 
	27.2,2.4 27.1,2.2 26.9,2.1 26.8,2 26.7,1.8 26.6,1.7 26.5,1.6 26.3,1.6 26.1,1.7 26,1.9 25.9,2.1 25.8,2.2 25.6,2.3 25.4,2.4 
	25.3,2.5 25.1,2.6 25,2.8 24.9,2.9 24.7,3 24.6,3.1 24.5,3.3 24.3,3.4 24.2,3.5 24,3.6 23.9,3.7 23.7,3.9 23.6,4 23.5,4.1 23.2,4.2 
	23.1,4.4 23,4.5 22.8,4.6 22.7,4.7 22.6,4.8 22.4,5 22.2,5.1 22.1,5.2 22,5.4 21.8,5.4 21.7,5.5 21.5,5.6 21.5,5.4 21.6,5.2 21.7,5 
	21.7,4.8 21.8,4.7 21.9,4.5 21.9,4.3 22,4.1 22,3.9 22,3.7 22.2,3.6 22.2,3.4 22.3,3.2 22.3,3 22.4,2.8 22.4,2.6 22.5,2.5 22.5,2.3 
	22.6,2.1 22.7,2 22.7,1.8 22.8,1.6 22.9,1.4 22.9,1.2 23,1.1 23,0.9 23.1,0.7 22.9,0.6 22.8,0.5 22.6,0.5 22.4,0.5 22.2,0.4 22,0.3 
	22,0.5 22,0.7 21.8,0.9 21.8,1.1 21.7,1.3 21.7,1.4 21.6,1.6 21.5,1.8 21.4,2 21.4,2.2 21.4,2.3 21.3,2.5 21.2,2.7 21.1,2.8 21.1,3 
	21,3.2 21,3.4 20.9,3.6 20.9,3.7 20.8,3.9 20.7,4.1 20.6,4.3 20.6,4.5 20.5,4.6 20.4,4.8 20.4,5 20.3,5.2 20.2,5.4 20.2,5.5 
	20.1,5.7 20.1,5.9 20,6.1 19.9,6.2 19.8,6.4 19.8,6.6 19.7,6.7 19.6,6.9 19.5,7.1 19.5,7.3 19.3,7.4 19.2,7.5 19.1,7.7 19,7.8 
	18.8,7.9 18.6,8 18.5,8.1 18.4,8.3 18.3,8.5 18,8.5 17.9,8.6 17.8,8.8 17.6,8.9 17.5,9 17.4,9.2 17.2,9.2 17.1,9.4 16.9,9.5 
	16.8,9.6 16.7,9.7 16.5,9.9 16.3,10 16.3,10.1 16.1,10.2 15.9,10.4 15.8,10.5 15.7,10.7 15.5,10.7 15.3,10.8 15.2,11 15,11.1 
	14.9,11.2 14.8,11.4 14.6,11.5 14.5,11.6 14.4,11.7 14.2,11.8 14,11.9 13.9,12.1 13.8,12.2 13.6,12.3 13.4,12.4 13.3,12.6 
	13.2,12.7 13,12.8 12.9,13 12.8,13.1 12.6,13.2 12.4,13.3 12.3,13.4 12.2,13.5 12,13.7 11.9,13.8 11.8,13.9 11.6,14 11.4,14.2 
	11.5,14.3 11.6,14.5 11.8,14.6 11.9,14.7 12,14.9 12.2,15 12.2,15.2 "/>
<polygon fill="#594F23" points="25.5,59.8 25.4,59.7 25.2,59.6 25,59.5 24.9,59.4 24.8,59.3 24.6,59.1 24.4,59 24.3,58.9 24.2,58.8 
	24,58.7 23.9,58.5 23.7,58.4 23.6,58.4 23.5,58.2 23.3,58.1 23.1,58 23,57.9 22.8,57.8 22.7,57.6 22.6,57.5 22.4,57.4 22.2,57.3 
	22.1,57.1 22,57.1 21.8,56.9 21.7,56.8 21.5,56.7 21.4,56.6 21.3,56.4 21.1,56.4 21,56.2 20.8,56.1 20.6,56 20.5,55.9 20.4,55.7 
	20.2,55.6 20.1,55.5 19.9,55.4 19.8,55.3 19.7,55.2 19.5,55.1 19.3,54.9 19.2,54.8 19,54.7 18.8,54.6 18.7,54.5 18.6,54.4 
	18.4,54.3 18.3,54.1 18.1,54.1 18,53.9 17.9,53.8 17.7,53.7 17.6,53.5 17.4,53.4 17.3,53.3 17.1,53.3 17,53.1 16.8,53 16.7,52.9 
	16.5,52.8 16.4,52.7 16.3,52.6 16.1,52.5 16,52.3 15.8,52.2 15.7,52 15.5,52 15.3,51.9 15.2,51.8 15.1,51.6 14.9,51.5 14.8,51.4 
	14.6,51.3 14.5,51.1 14.4,51 14.2,50.9 14.1,50.8 13.9,50.7 13.7,50.6 13.6,50.4 13.5,50.3 13.3,50.2 13.1,50.1 13,50 12.9,49.9 
	12.7,49.7 12.6,49.6 12.4,49.5 12.3,49.4 12.2,49.2 12,49.2 11.8,49 11.7,48.9 11.5,48.8 11.4,48.7 11.2,48.6 11.1,48.5 11,48.3 
	10.8,48.2 10.7,48.1 10.5,48 10.3,47.9 10.2,47.8 10,47.6 10,47.8 9.9,48 9.7,48.1 9.6,48.2 9.5,48.4 9.3,48.5 9.3,48.7 9.4,48.8 
	9.5,48.9 9.7,49 9.9,49.2 10,49.3 10.2,49.3 10.3,49.5 10.4,49.6 10.6,49.7 10.7,49.9 10.9,50 11,50.1 11.2,50.2 11.3,50.3 
	11.5,50.4 11.6,50.6 11.8,50.7 11.9,50.8 12,51 12.2,51 12.3,51.2 12.5,51.3 12.6,51.4 12.8,51.6 12.9,51.7 13.1,51.8 13.2,51.9 
	13.4,52 13.5,52.1 13.7,52.3 13.8,52.4 14,52.5 14.1,52.6 14.2,52.7 13.9,52.7 13.8,52.7 13.6,52.7 13.4,52.7 13.2,52.7 13,52.7 
	12.8,52.7 12.7,52.6 12.4,52.5 12.3,52.5 12.1,52.6 11.9,52.5 11.7,52.5 11.5,52.4 11.3,52.5 11.1,52.4 11,52.4 10.8,52.4 
	10.6,52.3 10.4,52.3 10.2,52.3 10,52.3 9.8,52.2 9.6,52.2 9.5,52.2 9.3,52.2 9.1,52.2 9.1,52.3 9,52.5 9,52.7 9,52.9 8.9,53.1 
	8.9,53.3 9.2,53.3 9.3,53.3 9.5,53.3 9.7,53.4 9.9,53.4 10.1,53.5 10.3,53.5 10.4,53.5 10.7,53.5 10.8,53.5 11,53.5 11.2,53.6 
	11.4,53.6 11.6,53.7 11.8,53.6 12,53.7 12.2,53.7 12.3,53.8 12.5,53.8 12.7,53.8 12.9,53.8 13.1,53.9 13.3,53.9 13.5,53.9 
	13.7,53.9 13.8,54 14,54 14.2,54.1 14.4,54 14.6,54.1 14.8,54.1 15,54.2 15.2,54.2 15.3,54.2 15.5,54.3 15.7,54.3 15.9,54.4 
	16,54.4 16.2,54.5 16.4,54.6 16.5,54.7 16.7,54.8 16.9,54.8 17,55 17.2,55 17.3,55.2 17.5,55.3 17.6,55.4 17.8,55.5 17.9,55.6 
	18,55.7 18.2,55.9 18.3,56 18.5,56.1 18.7,56.2 18.8,56.4 19,56.4 19.1,56.6 19.2,56.7 19.4,56.8 19.5,56.9 19.7,57.1 19.8,57.2 
	19.9,57.3 20.1,57.4 20.3,57.5 20.4,57.6 20.5,57.8 20.7,57.9 20.9,58 21,58.1 21.2,58.2 21.3,58.4 21.5,58.4 21.6,58.6 21.8,58.7 
	21.9,58.8 22,59 22.2,59 22.4,59.2 22.5,59.3 22.6,59.4 22.8,59.5 22.9,59.7 23.1,59.8 23.2,59.9 23.3,60.1 23.6,60.1 23.7,60.2 
	23.9,60.3 24,60.5 24.2,60.6 24.3,60.8 24.4,60.9 24.6,61 24.7,60.8 24.8,60.7 24.9,60.5 25,60.4 25.1,60.2 25.2,60.1 25.4,59.9 "/>
<polygon fill="#594F23" points="27.7,29.1 27.8,29 28,28.8 28.2,28.8 28.2,28.6 28.4,28.5 28.5,28.4 28.8,28.4 28.9,28.2 29,28.1 
	29.2,28 29.3,27.8 29.5,27.7 29.6,27.7 29.8,27.5 29.9,27.4 30.1,27.3 30.2,27.2 30.4,27.1 30.5,26.9 30.7,26.8 30.8,26.7 31,26.6 
	31.2,26.5 31.3,26.4 31.5,26.3 31.6,26.2 31.8,26.1 31.9,25.9 32,25.8 32.2,25.7 32.4,25.6 32.6,25.5 32.6,25.4 32.8,25.2 33,25.2 
	33.1,25 33.3,24.9 33.4,24.8 33.6,24.7 33.8,24.6 33.9,24.5 34.1,24.3 34.2,24.2 34.4,24.1 34.5,24 34.6,23.9 34.8,23.8 34.9,23.6 
	35.1,23.5 35.2,23.4 35.4,23.3 35.6,23.2 35.7,23.1 35.9,23 36,23 36.2,22.9 36.4,22.9 36.5,22.8 36.7,22.7 36.9,22.7 37.1,22.6 
	37.3,22.7 37.5,22.6 37.6,22.5 37.9,22.6 38,22.6 38.2,22.5 38.4,22.5 38.6,22.4 38.8,22.5 39,22.4 39.1,22.4 39.4,22.4 39.5,22.4 
	39.7,22.4 39.9,22.3 40.1,22.2 40.3,22.2 40.5,22.2 40.7,22.2 40.9,22.2 41,22.1 41.2,22.2 41.4,22.1 41.6,22.1 41.8,22.1 42,22 
	42.2,22 42.4,22.1 42.5,22 42.8,22 42.9,22 43.1,22 43.3,21.9 43.5,21.8 43.5,21.7 43.5,21.5 43.5,21.3 43.5,21.2 43.5,20.9 
	43.4,20.8 43.2,20.7 43,20.7 42.8,20.8 42.7,20.8 42.5,20.8 42.3,20.9 42.1,20.9 41.9,20.9 41.7,20.9 41.5,21 41.3,21 41.2,20.9 
	41,21 40.8,21 40.6,21.1 40.4,21 40.2,21 40,21 39.8,21.2 39.7,21.2 39.5,21.2 39.3,21.2 39.1,21.1 38.9,21.2 38.7,21.3 38.5,21.3 
	38.3,21.2 38.3,21 38.5,20.9 38.7,20.9 38.8,20.7 39,20.6 39.1,20.5 39.3,20.4 39.4,20.2 39.5,20.2 39.7,20 39.8,19.9 40,19.8 
	40.2,19.7 40.3,19.6 40.4,19.4 40.6,19.3 40.8,19.2 40.9,19.1 41.1,19 41.3,18.9 41.4,18.8 41.5,18.6 41.7,18.6 41.8,18.5 42,18.3 
	42.2,18.3 42.3,18.1 42.5,18 42.6,17.9 42.8,17.8 42.9,17.6 43.1,17.5 43.2,17.4 43.3,17.3 43.2,17.2 43.1,17 43,16.8 42.9,16.7 
	42.8,16.5 42.7,16.4 42.6,16.3 42.4,16.3 42.3,16.4 42.1,16.5 42,16.7 41.8,16.8 41.7,16.9 41.5,17 41.4,17.1 41.2,17.2 41.1,17.3 
	40.9,17.5 40.8,17.6 40.6,17.7 40.5,17.8 40.3,17.9 40.2,18 40,18.1 39.9,18.2 39.7,18.3 39.6,18.4 39.4,18.6 39.3,18.7 39.1,18.8 
	39,18.9 38.8,19 38.7,19.1 38.5,19.2 38.4,19.4 38.2,19.4 38,19.5 37.9,19.7 37.8,19.8 37.6,19.9 37.5,20 37.4,20.2 37.2,20.3 
	37,20.4 36.9,20.5 36.7,20.6 36.5,20.7 36.4,20.8 36.3,20.9 36.1,21 35.9,21.1 35.8,21.3 35.7,21.4 35.5,21.5 35.3,21.6 35.2,21.7 
	35.1,21.8 34.9,21.9 34.8,22 34.6,22.1 34.5,22.3 34.3,22.4 34.2,22.5 34,22.6 33.8,22.7 33.7,22.8 33.5,22.9 33.4,23.1 33.3,23.1 
	33.1,23.3 33,23.4 32.8,23.5 32.7,23.6 32.5,23.7 32.3,23.8 32.2,24 32.1,24.1 31.9,24.1 31.8,24.3 31.6,24.3 31.4,24.4 31.3,24.6 
	31.2,24.7 31,24.8 30.9,25 30.7,25 30.5,25.2 30.4,25.3 30.3,25.4 30.1,25.5 30,25.6 29.8,25.7 29.6,25.8 29.5,25.9 29.4,26.1 
	29.2,26.2 29,26.2 28.9,26.4 28.8,26.5 28.6,26.6 28.4,26.7 28.3,26.8 28.1,27 28,27 27.8,27.2 27.7,27.3 27.6,27.4 27.4,27.4 
	27.3,27.6 27.1,27.8 26.9,27.8 26.7,28 26.9,28.1 27,28.2 27.1,28.4 27.2,28.5 27.3,28.7 27.4,28.8 27.6,29 "/>
<polygon fill="#594F23" points="31.6,3.5 31.8,3.5 32,3.5 32.2,3.4 32.3,3.5 32.6,3.5 32.7,3.5 32.9,3.4 33.1,3.3 33.3,3.3 
	33.5,3.3 33.7,3.3 33.9,3.4 34.1,3.3 34.2,3.3 34.4,3.3 34.6,3.3 34.8,3.2 35,3.3 35.2,3.2 35.4,3.2 35.6,3.2 35.7,3.2 35.9,3.2 
	36.1,3.1 36.3,3.2 36.5,3.1 36.7,3.1 36.9,3.1 37.1,3.1 37.3,3.1 37.5,3.1 37.6,3.1 37.8,3.1 38,3.1 38.2,3.1 38.4,3 38.6,3 38.8,3 
	39,3 39.1,2.9 39.4,3 39.5,3 39.7,3 39.9,2.9 40.1,2.9 40.3,2.9 40.5,2.9 40.7,2.9 40.9,2.9 41,2.9 41.2,2.9 41.4,2.9 41.6,2.8 
	41.8,2.8 42,2.8 42.1,2.9 42.3,3 42.5,3.1 42.7,3.1 42.8,3.1 43,3.3 43.2,3.4 43.3,3.4 43.6,3.5 43.7,3.6 43.9,3.6 44,3.7 44.2,3.8 
	44.4,3.9 44.6,4 44.7,4 44.9,4.1 45.1,4.2 45.2,4.3 45.4,4.4 45.6,4.4 45.8,4.5 45.9,4.6 46.1,4.7 46.2,4.8 46.5,4.8 46.6,5 46.8,5 
	47,5.1 47.1,5.2 47.3,5.4 47.5,5.4 47.6,5.5 47.8,5.6 48,5.7 48.1,5.7 48.3,5.9 48.5,5.9 48.6,6 48.8,6 48.9,5.9 49,5.8 49.1,5.6 
	49.2,5.5 49.3,5.3 49.4,5.1 49.2,5 49,4.9 48.8,4.8 48.7,4.7 48.5,4.7 48.4,4.5 48.2,4.5 48,4.4 47.8,4.3 47.7,4.2 47.5,4.1 47.4,4 
	47.2,3.9 47,3.8 46.8,3.8 46.7,3.7 46.5,3.6 46.3,3.5 46.2,3.4 46,3.3 45.8,3.2 45.7,3.2 45.5,3.1 45.3,3 45.1,2.9 45,2.8 44.8,2.6 
	45,2.5 45.1,2.5 45.3,2.5 45.5,2.6 45.7,2.5 45.9,2.6 46.1,2.5 46.3,2.5 46.5,2.5 46.6,2.5 46.8,2.5 47,2.4 47.2,2.4 47.4,2.4 
	47.6,2.4 47.8,2.4 48,2.4 48.1,2.4 48.4,2.3 48.5,2.4 48.7,2.4 48.9,2.3 49.1,2.2 49.3,2.3 49.5,2.3 49.7,2.2 49.9,2.3 50,2.2 
	50.3,2.2 50.4,2.2 50.6,2.2 50.8,2.2 51,2.2 51.2,2.2 51.2,2 51.2,1.8 51.2,1.6 51.2,1.4 51.1,1.2 51.2,1 51.1,0.9 50.9,0.9 
	50.7,0.9 50.6,0.9 50.4,0.9 50.2,0.9 50,0.9 49.8,0.9 49.6,1 49.5,0.9 49.2,0.9 49.1,1 48.9,1 48.7,1 48.5,1 48.3,1 48.1,1.1 48,1 
	47.8,1 47.6,1 47.4,1 47.2,1.1 47,1 46.8,1.1 46.6,1.1 46.5,1.1 46.3,1.1 46.1,1.1 45.9,1.1 45.7,1.1 45.5,1.2 45.3,1.2 45.1,1.2 
	45,1.2 44.8,1.3 44.6,1.3 44.4,1.3 44.2,1.3 44,1.3 43.8,1.2 43.6,1.3 43.5,1.3 43.3,1.3 43.1,1.3 42.9,1.4 42.7,1.4 42.5,1.4 
	42.4,1.4 42.1,1.4 42,1.4 41.8,1.4 41.6,1.4 41.4,1.4 41.2,1.4 41,1.4 40.9,1.4 40.7,1.5 40.5,1.5 40.3,1.5 40.1,1.5 39.9,1.6 
	39.7,1.5 39.5,1.6 39.4,1.6 39.2,1.5 39,1.6 38.8,1.6 38.6,1.6 38.4,1.6 38.2,1.7 38,1.6 37.9,1.6 37.7,1.6 37.5,1.7 37.3,1.7 
	37.1,1.7 36.9,1.7 36.7,1.7 36.5,1.7 36.4,1.7 36.2,1.8 36,1.8 35.8,1.7 35.6,1.8 35.4,1.8 35.2,1.8 35,1.8 34.9,1.8 34.7,1.9 
	34.5,1.8 34.3,1.8 34.1,1.8 34,1.9 33.7,1.8 33.5,1.9 33.4,1.9 33.2,1.9 33,2 32.8,2 32.6,2 32.4,2 32.2,2 32,2 31.9,2 31.7,2 
	31.5,2 31.5,2.2 31.6,2.4 31.5,2.6 31.6,2.7 31.6,2.9 31.6,3.1 31.6,3.3 "/>
<polygon fill="#594F23" points="69.5,24.6 69.3,24.4 69.2,24.3 69.1,24.1 68.9,24 68.8,23.9 68.7,23.7 68.5,23.6 68.4,23.4 
	68.3,23.3 68.1,23.2 68,23 67.9,22.9 67.8,22.7 67.6,22.6 67.5,22.5 67.4,22.3 67.3,22.2 67.1,22.1 67,22 66.9,21.8 66.8,21.6 
	66.6,21.5 66.5,21.4 66.3,21.3 66.2,21.1 66.1,21 66,20.8 65.9,20.6 65.7,20.5 65.6,20.4 65.5,20.3 65.4,20.1 65.3,19.9 65.1,19.8 
	65,19.7 64.8,19.6 64.7,19.4 64.6,19.3 64.4,19.1 64.3,19 64.2,18.9 64,18.7 63.9,18.6 63.8,18.4 63.7,18.3 63.6,18.2 63.5,18 
	63.3,17.9 63.1,17.7 63.1,17.6 62.9,17.5 62.8,17.3 62.7,17.2 62.6,17 62.4,16.9 62.4,16.7 62.3,16.5 62.2,16.4 62.2,16.2 62.1,16 
	62.1,15.8 62,15.7 62,15.5 61.9,15.3 61.9,15.1 61.8,14.9 61.8,14.7 61.7,14.6 61.7,14.3 61.7,14.2 61.7,14 61.6,13.8 61.6,13.6 
	61.5,13.4 61.5,13.3 61.5,13.1 61.4,12.9 61.3,12.7 61.3,12.5 61.3,12.3 61.2,12.2 61.2,11.9 61.2,11.8 61.1,11.6 61,11.4 61,11.2 
	61,11 60.9,10.8 60.9,10.7 60.9,10.5 60.9,10.3 60.8,10.1 60.7,9.9 60.7,9.7 60.7,9.5 60.5,9.5 60.3,9.6 60.1,9.7 59.9,9.7 
	59.7,9.7 59.5,9.7 59.6,9.9 59.7,10.1 59.7,10.3 59.7,10.5 59.7,10.7 59.7,10.9 59.8,11.1 59.8,11.2 59.9,11.4 59.9,11.6 59.9,11.8 
	60,12 60,12.2 60.1,12.3 60.2,12.5 60.1,12.7 60.2,12.9 60.2,13.1 60.3,13.3 60.3,13.4 60.4,13.6 60.4,13.8 60.4,14 60.4,14.2 
	60.5,14.4 60.5,14.6 60.5,14.8 60.4,14.8 60.2,14.6 60.1,14.5 59.9,14.3 59.8,14.2 59.7,14 59.6,13.9 59.5,13.8 59.3,13.7 
	59.2,13.5 59,13.4 58.9,13.3 58.8,13.1 58.7,13 58.6,12.8 58.4,12.6 58.3,12.5 58.2,12.4 58,12.3 57.9,12.1 57.8,12 57.7,11.8 
	57.5,11.7 57.4,11.6 57.2,11.4 57.2,11.2 57,11.1 56.9,11 56.7,10.9 56.7,10.7 56.5,10.6 56.4,10.4 56.3,10.3 56.1,10.1 56,10.3 
	55.9,10.4 55.7,10.5 55.5,10.6 55.5,10.8 55.2,10.9 55.2,11.1 55.3,11.2 55.4,11.3 55.5,11.5 55.6,11.6 55.7,11.8 55.9,11.9 56,12 
	56.1,12.2 56.3,12.3 56.4,12.4 56.5,12.6 56.7,12.7 56.8,12.8 56.9,13 57.1,13.1 57.2,13.2 57.3,13.4 57.4,13.5 57.5,13.7 
	57.6,13.8 57.8,14 57.9,14.1 58,14.2 58.2,14.3 58.3,14.5 58.4,14.6 58.6,14.8 58.7,14.9 58.7,15.1 58.9,15.2 59,15.3 59.2,15.4 
	59.3,15.6 59.4,15.8 59.5,15.8 59.7,16 59.8,16.1 59.9,16.3 60,16.4 60.2,16.5 60.3,16.7 60.5,16.8 60.6,17 60.6,17.1 60.8,17.2 
	60.9,17.4 61,17.5 61.2,17.6 61.3,17.8 61.4,17.9 61.6,18 61.6,18.3 61.8,18.3 62,18.5 62,18.7 62.2,18.8 62.3,19 62.4,19.1 
	62.5,19.2 62.7,19.3 62.8,19.5 62.9,19.6 63.1,19.7 63.2,19.9 63.3,20 63.4,20.2 63.6,20.3 63.7,20.5 63.8,20.6 63.9,20.7 64,20.9 
	64.2,21 64.3,21.2 64.4,21.3 64.6,21.4 64.7,21.5 64.9,21.6 65,21.8 65.1,22 65.2,22.1 65.4,22.2 65.4,22.4 65.6,22.5 65.7,22.7 
	65.8,22.8 65.9,22.9 66.1,23.1 66.2,23.2 66.4,23.3 66.5,23.5 66.6,23.6 66.7,23.7 66.9,23.9 67,24 67.1,24.2 67.2,24.3 67.4,24.4 
	67.5,24.6 67.6,24.7 67.7,24.9 67.9,25 68,25.1 68.1,25.3 68.3,25.4 68.4,25.5 68.5,25.5 68.7,25.4 68.8,25.2 68.9,25.1 69.1,25 
	69.2,24.8 69.3,24.7 "/>
<polygon fill="#594F23" points="44.8,78 44.6,78 44.4,77.9 44.3,77.9 44.1,77.9 43.9,77.9 43.7,77.8 43.5,77.8 43.3,77.8 43.1,77.7 
	42.9,77.6 42.8,77.7 42.6,77.6 42.4,77.5 42.2,77.5 42,77.5 41.8,77.5 41.7,77.5 41.5,77.4 41.3,77.3 41.1,77.3 40.9,77.2 
	40.8,77.2 40.6,77.2 40.3,77.2 40.2,77.1 40,77 39.8,77.1 39.6,76.9 39.4,76.9 39.3,76.9 39.1,76.9 38.9,76.9 38.7,76.8 38.5,76.8 
	38.3,76.7 38.1,76.7 37.9,76.7 37.8,76.6 37.6,76.6 37.4,76.5 37.2,76.5 37,76.4 36.8,76.4 36.7,76.4 36.4,76.4 36.3,76.3 
	36.1,76.2 35.9,76.2 35.7,76.1 35.5,76.1 35.3,76.1 35.2,76 35,76 34.8,76 34.6,75.9 34.5,75.8 34.3,75.7 34.2,75.6 34.1,75.5 
	33.9,75.3 33.8,75.2 33.6,75.2 33.4,75 33.3,74.9 33.1,74.8 33,74.6 32.9,74.5 32.7,74.4 32.6,74.2 32.5,74.1 32.3,74.1 32.2,73.9 
	32,73.7 31.8,73.7 31.8,73.5 31.6,73.4 31.4,73.3 31.3,73.1 31.2,73 31,72.9 30.9,72.7 30.7,72.6 30.6,72.5 30.4,72.4 30.3,72.3 
	30.1,72.2 30,72 29.9,71.9 29.8,71.7 29.6,71.6 29.5,71.5 29.3,71.4 29.2,71.2 29.1,71.1 28.9,71 28.8,71.1 28.7,71.2 28.5,71.4 
	28.4,71.5 28.2,71.6 28.1,71.8 28.3,71.9 28.4,72 28.6,72.2 28.7,72.3 28.8,72.4 28.9,72.6 29.1,72.7 29.3,72.8 29.3,73 29.5,73.1 
	29.7,73.2 29.8,73.3 29.9,73.5 30,73.6 30.2,73.7 30.3,73.9 30.5,74 30.6,74.1 30.7,74.3 30.9,74.4 31.1,74.5 31.2,74.6 31.3,74.8 
	31.4,74.9 31.6,75 31.8,75.1 31.8,75.3 31.7,75.4 31.5,75.3 31.3,75.3 31.1,75.3 31,75.2 30.8,75.2 30.6,75.1 30.4,75.1 30.2,75 
	30,75 29.9,75 29.7,75 29.5,74.9 29.3,74.9 29.1,74.8 28.9,74.8 28.7,74.8 28.6,74.7 28.4,74.7 28.2,74.7 28,74.6 27.8,74.6 
	27.6,74.5 27.4,74.5 27.3,74.4 27,74.5 26.9,74.4 26.7,74.4 26.5,74.4 26.3,74.3 26.1,74.2 25.9,74.2 25.8,74.2 25.6,74.1 
	25.5,74.3 25.5,74.5 25.4,74.7 25.4,74.9 25.4,75 25.3,75.2 25.3,75.5 25.5,75.5 25.6,75.5 25.8,75.6 26,75.6 26.2,75.6 26.4,75.7 
	26.6,75.7 26.7,75.7 26.9,75.7 27.1,75.8 27.3,75.9 27.5,75.9 27.7,75.9 27.8,76 28,76 28.2,76 28.4,76.1 28.6,76.1 28.8,76.1 
	28.9,76.2 29.1,76.2 29.3,76.3 29.5,76.3 29.7,76.3 29.9,76.4 30,76.4 30.2,76.4 30.4,76.5 30.6,76.5 30.8,76.6 31,76.7 31.1,76.7 
	31.3,76.7 31.5,76.7 31.7,76.8 31.9,76.8 32,76.8 32.2,76.9 32.4,76.9 32.6,76.9 32.8,77 33,77 33.1,77.1 33.3,77.1 33.5,77.2 
	33.7,77.1 33.9,77.3 34.1,77.3 34.3,77.3 34.4,77.4 34.6,77.4 34.8,77.4 35,77.4 35.2,77.5 35.3,77.5 35.6,77.6 35.7,77.6 
	35.9,77.6 36.1,77.7 36.3,77.8 36.4,77.8 36.6,77.8 36.8,77.8 37,77.9 37.2,77.9 37.4,77.9 37.6,78 37.8,78 37.9,78.1 38.1,78.2 
	38.3,78.2 38.4,78.2 38.7,78.2 38.8,78.3 39,78.3 39.2,78.3 39.4,78.3 39.5,78.4 39.8,78.4 39.9,78.5 40.1,78.6 40.3,78.6 
	40.5,78.6 40.6,78.7 40.9,78.7 41,78.7 41.2,78.8 41.4,78.8 41.6,78.9 41.8,78.9 42,79 42.1,79 42.3,79 42.5,79 42.7,79.1 
	42.9,79.1 43.1,79.2 43.2,79.3 43.4,79.3 43.6,79.3 43.8,79.3 44,79.3 44.2,79.4 44.3,79.5 44.6,79.5 44.5,79.3 44.7,79.1 44.7,79 
	44.7,78.8 44.7,78.6 44.7,78.4 44.8,78.2 "/>
<polygon fill="#594F23" points="57.7,57.2 57.6,57.4 57.4,57.5 57.4,57.7 57.3,57.8 57.2,58 57.1,58.2 56.9,58.3 56.8,58.4 
	56.8,58.6 56.7,58.8 56.5,58.9 56.4,59.1 56.3,59.3 56.2,59.4 56.1,59.5 56.1,59.8 55.9,59.9 55.9,60.1 55.7,60.2 55.7,60.4 
	55.6,60.6 55.5,60.7 55.3,60.8 55.3,61 55.2,61.2 55,61.4 54.9,61.5 54.8,61.7 54.7,61.8 54.6,62 54.5,62.1 54.4,62.3 54.3,62.5 
	54.2,62.6 54.1,62.8 54,62.9 53.9,63.1 53.8,63.2 53.7,63.4 53.6,63.6 53.4,63.7 53.3,63.9 53.3,64.1 53.2,64.2 53.1,64.4 53,64.6 
	52.9,64.7 52.7,64.8 52.7,65 52.6,65.2 52.5,65.3 52.4,65.5 52.2,65.6 52.2,65.8 52,65.9 51.8,66 51.7,66.1 51.6,66.2 51.4,66.3 
	51.3,66.5 51.1,66.5 50.9,66.6 50.8,66.7 50.6,66.9 50.4,66.9 50.3,67 50.1,67.1 49.9,67.2 49.8,67.3 49.6,67.3 49.4,67.4 
	49.3,67.6 49.1,67.7 48.9,67.7 48.8,67.8 48.6,67.9 48.4,68 48.2,68 48.1,68.1 47.9,68.2 47.7,68.3 47.6,68.4 47.4,68.5 47.3,68.6 
	47.1,68.7 46.9,68.8 46.7,68.9 46.5,68.9 46.4,69.1 46.2,69.1 46.1,69.2 45.9,69.2 45.7,69.3 45.6,69.5 45.4,69.5 45.5,69.7 
	45.5,69.9 45.6,70 45.7,70.2 45.8,70.4 45.8,70.6 46.1,70.5 46.2,70.4 46.4,70.3 46.5,70.2 46.7,70.1 46.9,70.1 47.1,70 47.2,69.9 
	47.4,69.8 47.6,69.7 47.7,69.6 47.9,69.5 48.1,69.5 48.2,69.4 48.4,69.3 48.6,69.2 48.8,69.1 48.9,69.1 49.1,69 49.3,68.9 
	49.5,68.8 49.6,68.7 49.7,68.6 50,68.6 50.1,68.4 50.3,68.3 50.5,68.3 50.5,68.5 50.4,68.6 50.3,68.8 50.2,69 50.1,69.1 50,69.3 
	49.9,69.5 49.7,69.6 49.7,69.7 49.6,69.9 49.5,70.1 49.3,70.2 49.2,70.4 49.2,70.6 49.1,70.7 49,70.9 48.9,71 48.8,71.2 48.6,71.4 
	48.5,71.5 48.5,71.7 48.4,71.8 48.3,72 48.1,72.1 48.1,72.3 48,72.5 47.9,72.7 47.8,72.8 47.7,73 47.6,73.1 47.5,73.3 47.4,73.5 
	47.2,73.6 47.2,73.8 47.3,73.8 47.4,74 47.6,74.1 47.8,74.1 48,74.2 48.1,74.4 48.2,74.5 48.3,74.3 48.5,74.2 48.5,74 48.6,73.8 
	48.8,73.7 48.9,73.5 49,73.4 49.1,73.2 49.1,73 49.3,72.9 49.4,72.8 49.5,72.6 49.6,72.5 49.7,72.3 49.8,72.2 49.9,72 49.9,71.8 
	50.1,71.7 50.2,71.5 50.3,71.3 50.4,71.2 50.5,71 50.6,70.8 50.7,70.7 50.8,70.6 50.9,70.4 51,70.2 51.1,70.1 51.2,69.9 51.3,69.8 
	51.4,69.6 51.5,69.5 51.6,69.3 51.6,69.1 51.8,69 51.9,68.8 52,68.7 52,68.5 52.2,68.4 52.3,68.2 52.4,68 52.5,67.8 52.6,67.7 
	52.7,67.6 52.8,67.4 52.9,67.3 53,67.1 53.1,66.9 53.2,66.8 53.3,66.6 53.4,66.5 53.5,66.3 53.6,66.2 53.7,66 53.8,65.8 53.9,65.7 
	54.1,65.5 54.1,65.4 54.2,65.2 54.4,65.1 54.4,64.9 54.6,64.8 54.7,64.6 54.8,64.4 54.8,64.3 54.9,64.1 55,64 55.2,63.8 55.3,63.7 
	55.3,63.5 55.4,63.3 55.6,63.2 55.6,63 55.8,62.9 55.8,62.7 56,62.6 56,62.4 56.1,62.2 56.3,62.1 56.4,61.9 56.5,61.8 56.6,61.6 
	56.7,61.4 56.7,61.3 56.9,61.1 56.9,61 57.1,60.8 57.2,60.6 57.3,60.5 57.4,60.3 57.4,60.2 57.6,60 57.7,59.9 57.8,59.7 57.9,59.6 
	57.9,59.4 58,59.2 58.2,59.1 58.3,58.9 58.4,58.8 58.5,58.6 58.6,58.4 58.7,58.3 58.8,58.1 58.9,58 58.7,57.9 58.6,57.8 58.4,57.6 
	58.3,57.6 58.2,57.5 58,57.4 57.8,57.3 "/>
<polygon fill="#594F23" points="66.1,29.6 66,29.7 65.9,29.9 65.9,30.1 65.9,30.3 65.8,30.5 65.8,30.7 65.8,30.8 65.7,31 65.7,31.2 
	65.6,31.4 65.5,31.6 65.5,31.8 65.5,31.9 65.5,32.1 65.4,32.3 65.4,32.5 65.4,32.7 65.3,32.9 65.2,33 65.2,33.2 65.1,33.4 65,33.6 
	65.1,33.8 65,33.9 65,34.2 64.9,34.3 64.8,34.5 64.8,34.7 64.8,34.9 64.7,35 64.7,35.3 64.7,35.4 64.7,35.6 64.5,35.8 64.5,36 
	64.5,36.2 64.4,36.4 64.4,36.5 64.3,36.7 64.3,36.9 64.2,37.1 64.2,37.3 64.1,37.5 64.1,37.6 64.1,37.8 64,38 63.9,38.2 63.9,38.4 
	63.9,38.6 63.8,38.7 63.8,38.9 63.8,39.1 63.6,39.3 63.6,39.5 63.5,39.6 63.5,39.8 63.3,39.9 63.2,40.1 63.2,40.2 63.1,40.4 
	62.9,40.5 62.8,40.6 62.7,40.8 62.5,40.9 62.4,41.1 62.3,41.2 62.2,41.4 62,41.5 61.9,41.6 61.8,41.8 61.6,41.9 61.5,42 61.4,42.2 
	61.3,42.3 61.1,42.5 61,42.6 60.9,42.8 60.8,42.9 60.6,43.1 60.5,43.2 60.3,43.3 60.2,43.5 60.1,43.6 59.9,43.7 59.8,43.9 59.7,44 
	59.6,44.2 59.4,44.3 59.3,44.4 59.1,44.5 59.1,44.7 58.9,44.8 58.8,45 58.6,45.1 58.5,45.2 58.6,45.4 58.7,45.5 58.9,45.6 59,45.8 
	59.1,45.9 59.3,46 59.4,45.9 59.5,45.8 59.7,45.6 59.8,45.5 59.9,45.4 60.1,45.2 60.2,45.1 60.4,45 60.5,44.8 60.6,44.7 60.8,44.6 
	60.9,44.4 61,44.3 61.1,44.1 61.3,44 61.4,43.9 61.5,43.7 61.7,43.6 61.8,43.5 62,43.3 62.1,43.2 62.2,43.1 62.3,42.9 62.5,42.8 
	62.6,42.7 62.8,42.5 62.9,42.4 62.9,42.5 63,42.8 62.9,42.9 62.9,43.1 62.8,43.3 62.8,43.5 62.8,43.7 62.7,43.9 62.6,44 62.7,44.2 
	62.5,44.4 62.5,44.6 62.4,44.8 62.4,45 62.4,45.1 62.3,45.3 62.3,45.5 62.2,45.7 62.2,45.9 62.2,46.1 62.1,46.2 62.1,46.4 62,46.6 
	62,46.8 62,47 61.9,47.2 61.9,47.4 61.8,47.6 61.7,47.7 61.7,47.9 61.6,48.1 61.6,48.3 61.6,48.5 61.6,48.6 61.7,48.7 61.9,48.8 
	62.1,48.8 62.3,48.8 62.5,48.9 62.6,49 62.8,49 62.8,48.8 62.9,48.6 63,48.4 63,48.2 63.1,48.1 63.1,47.9 63.1,47.7 63.1,47.5 
	63.2,47.3 63.2,47.1 63.3,47 63.3,46.8 63.4,46.6 63.4,46.4 63.5,46.2 63.5,46.1 63.5,45.9 63.6,45.7 63.6,45.5 63.7,45.3 
	63.7,45.1 63.8,45 63.8,44.8 63.9,44.6 63.9,44.4 64,44.3 64,44.1 64,43.9 64.1,43.7 64.1,43.5 64.2,43.3 64.2,43.2 64.3,43 
	64.3,42.8 64.4,42.6 64.4,42.4 64.5,42.2 64.4,42.1 64.5,41.9 64.6,41.7 64.7,41.5 64.7,41.3 64.7,41.2 64.7,41 64.8,40.8 
	64.9,40.6 64.9,40.4 65,40.3 65,40.1 65.1,39.9 65,39.7 65.1,39.5 65.1,39.3 65.3,39.2 65.2,39 65.3,38.8 65.4,38.6 65.4,38.4 
	65.5,38.3 65.5,38.1 65.5,37.9 65.6,37.7 65.6,37.5 65.7,37.3 65.7,37.2 65.8,37 65.8,36.8 65.8,36.6 65.8,36.4 65.9,36.3 
	65.9,36.1 66,35.9 66.1,35.7 66.1,35.5 66.2,35.3 66.2,35.2 66.2,35 66.3,34.8 66.3,34.6 66.3,34.4 66.4,34.2 66.5,34.1 66.5,33.9 
	66.6,33.7 66.6,33.5 66.7,33.4 66.7,33.1 66.7,33 66.7,32.8 66.7,32.6 66.8,32.4 66.9,32.2 67,32.1 66.9,31.9 67.1,31.7 67.1,31.5 
	67.1,31.3 67.2,31.1 67.2,31 67.2,30.8 67.3,30.6 67.4,30.4 67.3,30.2 67.4,30 67.5,29.9 67.3,29.8 67.1,29.8 67,29.7 66.8,29.7 
	66.6,29.7 66.4,29.6 66.2,29.6 "/>
<polygon fill="#594F23" points="60.9,61.5 61.1,61.7 61.2,61.8 61.3,61.9 61.5,62 61.7,62 61.8,62.2 62,62.3 62.1,62.4 62.3,62.5 
	62.5,62.6 62.6,62.7 62.8,62.8 62.9,62.9 63.1,63 63.2,63.2 63.4,63.2 63.5,63.4 63.7,63.5 63.9,63.6 64,63.7 64.2,63.7 64.4,63.8 
	64.5,64 64.7,64.1 64.8,64.2 65,64.3 65.1,64.4 65.3,64.5 65.4,64.6 65.6,64.7 65.8,64.8 65.9,64.9 66.1,65 66.2,65.1 66.4,65.2 
	66.6,65.4 66.7,65.5 66.9,65.6 67,65.7 67.2,65.8 67.3,65.9 67.5,66 67.6,66.2 67.8,66.2 68,66.3 68.1,66.5 68.3,66.5 68.4,66.7 
	68.6,66.7 68.7,66.9 68.9,67 69.1,67 69.2,67.2 69.3,67.3 69.5,67.4 69.6,67.6 69.7,67.7 69.8,67.8 69.9,68 70,68.2 70.1,68.4 
	70.1,68.5 70.3,68.7 70.3,68.9 70.4,69 70.5,69.2 70.6,69.4 70.7,69.6 70.7,69.7 70.8,69.9 70.9,70 71,70.2 71.1,70.4 71.2,70.6 
	71.3,70.7 71.4,70.9 71.5,71.1 71.5,71.2 71.6,71.4 71.6,71.6 71.8,71.8 71.8,71.9 71.9,72.1 72,72.3 72.1,72.4 72.1,72.6 
	72.3,72.8 72.3,73 72.4,73.1 72.5,73.3 72.6,73.4 72.7,73.6 72.7,73.8 72.8,74 72.9,74.1 73.1,74.1 73.3,74.1 73.4,74 73.6,73.8 
	73.8,73.8 74,73.7 73.8,73.5 73.8,73.3 73.7,73.2 73.7,73 73.6,72.9 73.5,72.6 73.4,72.5 73.3,72.3 73.2,72.2 73.2,72 73.1,71.8 
	73,71.6 72.9,71.5 72.9,71.3 72.7,71.1 72.7,71 72.6,70.8 72.5,70.6 72.4,70.4 72.3,70.3 72.3,70.1 72.2,69.9 72.2,69.7 72.1,69.6 
	72,69.4 71.9,69.2 71.9,69 72,69 72.2,69.1 72.3,69.2 72.5,69.3 72.6,69.5 72.8,69.6 73,69.6 73.1,69.7 73.3,69.9 73.4,70 73.6,70 
	73.7,70.1 73.9,70.3 74.1,70.4 74.2,70.5 74.4,70.6 74.5,70.7 74.7,70.8 74.8,70.9 75,71 75.1,71.1 75.3,71.3 75.5,71.4 75.6,71.5 
	75.8,71.5 76,71.6 76.1,71.8 76.2,71.9 76.4,72 76.6,72 76.7,72.2 76.9,72.3 77,72.5 77.2,72.6 77.4,72.4 77.4,72.2 77.5,72.1 
	77.6,71.9 77.7,71.8 77.8,71.6 77.9,71.4 77.8,71.4 77.6,71.2 77.5,71.1 77.3,71 77.2,70.9 77,70.8 76.8,70.7 76.7,70.6 76.5,70.5 
	76.4,70.4 76.3,70.3 76.1,70.2 75.9,70.1 75.8,69.9 75.6,69.8 75.5,69.7 75.3,69.6 75.2,69.5 75,69.4 74.8,69.3 74.7,69.2 
	74.5,69.1 74.4,69 74.2,68.9 74.1,68.8 74,68.6 73.8,68.6 73.6,68.5 73.4,68.4 73.3,68.2 73.2,68.1 73,68.1 72.8,68 72.7,67.8 
	72.5,67.8 72.4,67.6 72.2,67.5 72.1,67.4 71.9,67.3 71.8,67.2 71.6,67.1 71.5,67 71.3,66.9 71.1,66.8 71,66.7 70.8,66.6 70.7,66.5 
	70.5,66.4 70.4,66.3 70.2,66.1 70.1,66 69.9,65.9 69.8,65.8 69.6,65.7 69.5,65.6 69.3,65.5 69.1,65.4 69,65.3 68.8,65.2 68.7,65.1 
	68.5,65 68.4,64.9 68.2,64.8 68.1,64.7 67.9,64.6 67.8,64.4 67.6,64.4 67.4,64.2 67.3,64.1 67.1,64.1 67,63.9 66.8,63.9 66.7,63.7 
	66.5,63.6 66.3,63.5 66.2,63.5 66.1,63.3 65.9,63.2 65.8,63.1 65.6,63 65.5,62.8 65.3,62.7 65.1,62.7 65,62.5 64.8,62.4 64.7,62.3 
	64.5,62.2 64.4,62.1 64.2,62 64,61.9 63.9,61.8 63.8,61.7 63.6,61.6 63.4,61.5 63.2,61.4 63.1,61.2 63,61.2 62.8,61.1 62.6,61 
	62.5,60.8 62.4,60.7 62.2,60.6 62,60.5 61.8,60.4 61.7,60.3 61.6,60.5 61.5,60.6 61.4,60.8 61.3,60.9 61.2,61.1 61.1,61.2 61,61.4 
	"/>
<polygon fill="#594F23" points="24,10.8 23.9,10.9 23.9,11.1 23.7,11.2 23.7,11.5 23.6,11.6 23.6,11.8 23.8,11.8 24,11.9 24.2,12 
	24.3,12 24.5,12.1 24.7,12.2 24.9,12.2 25.1,12.3 25.2,12.4 25.4,12.3 25.6,12.4 25.8,12.5 26,12.5 26.1,12.6 26.3,12.6 26.5,12.8 
	26.7,12.8 26.9,12.8 27,12.9 27.2,13 27.4,13 27.6,13.1 27.8,13.1 27.9,13.2 28.1,13.3 28.3,13.3 28.5,13.4 28.4,13.5 28.2,13.5 
	28.1,13.7 27.9,13.7 27.7,13.7 27.5,13.7 27.3,13.7 27.1,13.8 27,13.8 26.8,13.9 26.6,13.9 26.5,14 26.3,14.1 26.1,14.1 25.9,14.1 
	25.7,14.2 25.5,14.3 25.4,14.3 25.2,14.3 25,14.3 24.8,14.3 24.6,14.4 24.4,14.5 24.3,14.5 24.1,14.6 23.9,14.6 23.7,14.7 
	23.6,14.7 23.4,14.8 23.2,14.8 23,14.8 22.8,14.9 22.7,14.9 22.5,15 22.4,15 22.4,15.2 22.4,15.4 22.5,15.6 22.4,15.7 22.5,15.9 
	22.6,16.1 22.6,16.3 22.8,16.3 23,16.2 23.2,16.1 23.3,16.2 23.5,16.1 23.7,16.1 23.9,16 24.1,16 24.2,15.8 24.4,15.8 24.6,15.8 
	24.8,15.7 25,15.7 25.1,15.7 25.3,15.6 25.5,15.7 25.7,15.5 25.9,15.5 26.1,15.5 26.2,15.4 26.4,15.3 26.6,15.4 26.8,15.3 27,15.3 
	27.1,15.2 27.3,15.2 27.5,15.1 27.7,15 27.9,15 28.1,15 28.2,15 28.4,14.9 28.6,14.9 28.8,14.8 28.9,14.8 29.2,14.8 29.3,14.7 
	29.5,14.7 29.7,14.6 29.9,14.5 30,14.5 30.2,14.5 30.4,14.5 30.6,14.4 30.8,14.3 31,14.3 31.1,14.2 31.3,14.2 31.5,14.1 31.7,14.2 
	31.9,14.1 32,14 32.2,14 32.4,14 32.6,13.9 32.8,13.9 33,13.8 33.1,13.8 33.3,13.8 33.5,13.7 33.7,13.6 33.9,13.7 34.1,13.5 
	34.2,13.5 34.4,13.5 34.6,13.4 34.8,13.4 35,13.4 35.2,13.3 35.3,13.3 35.5,13.2 35.7,13.2 35.9,13.2 36.1,13.1 36.3,13 36.4,13.1 
	36.3,13.3 36.2,13.4 36,13.5 35.9,13.7 35.7,13.8 35.7,14 35.5,14.1 35.4,14.2 35.2,14.3 35.1,14.5 35,14.6 34.9,14.8 34.8,14.9 
	34.6,15 34.4,15.1 34.3,15.3 34.2,15.4 34.1,15.6 33.9,15.7 33.8,15.8 33.6,15.9 33.5,16 33.3,16.2 33.2,16.4 33.1,16.5 33,16.6 
	32.9,16.8 32.9,16.9 33,17.1 33.2,17.2 33.3,17.3 33.5,17.4 33.6,17.5 33.7,17.4 33.9,17.2 34,17.1 34.2,17 34.3,16.8 34.4,16.7 
	34.6,16.6 34.7,16.5 34.9,16.4 35,16.2 35.2,16.1 35.2,15.9 35.4,15.8 35.5,15.7 35.6,15.5 35.8,15.4 35.9,15.3 36.1,15.2 36.2,15 
	36.3,14.9 36.5,14.8 36.6,14.6 36.8,14.5 36.9,14.4 37,14.2 37.2,14.1 37.4,14 37.5,13.9 37.6,13.7 37.7,13.6 37.9,13.5 38,13.3 
	38.2,13.3 38.3,13.1 38.4,13 38.6,12.9 38.6,12.8 38.7,12.7 38.9,12.6 39,12.5 39.2,12.4 39.3,12.3 39.5,12.3 39.7,12.2 39.9,12.2 
	40.1,12.2 40.2,12.2 40.4,12.1 40.6,12 40.8,12 41,12 41.1,11.9 41.3,11.9 41.5,11.8 41.7,11.8 41.8,11.8 42,11.8 42.2,11.7 
	42.4,11.6 42.6,11.6 42.8,11.5 42.9,11.5 43.1,11.5 43.3,11.4 43.5,11.4 43.7,11.3 43.9,11.3 44,11.2 44.2,11.2 44.4,11.1 
	44.6,11.1 44.8,11.1 45,11 45.1,11 45.3,11 45.5,10.9 45.7,10.9 45.9,10.8 46.1,10.8 46.2,10.7 46.4,10.7 46.6,10.6 46.8,10.7 
	47,10.6 47.2,10.5 47.3,10.5 47.5,10.4 47.7,10.4 47.8,10.3 48,10.3 48.2,10.2 48.4,10.2 48.6,10.2 48.8,10.1 49,10.1 49.1,10 
	49.3,10 49.3,9.8 49.2,9.6 49.2,9.4 49.1,9.3 49.1,9 49.1,8.9 49.1,8.7 48.9,8.5 48.8,8.5 48.6,8.6 48.4,8.7 48.2,8.7 48,8.8 
	47.8,8.8 47.7,8.8 47.5,8.8 47.3,8.9 47.1,8.9 46.9,9 46.7,9 46.6,9.1 46.4,9.1 46.2,9.2 46,9.3 45.8,9.3 45.7,9.3 45.5,9.4 
	45.3,9.4 45.1,9.4 44.9,9.4 44.7,9.6 44.6,9.6 44.4,9.6 44.2,9.7 44,9.7 43.8,9.8 43.6,9.8 43.4,9.8 43.3,9.9 43.1,9.9 42.9,10 
	42.7,10 42.5,10.1 42.3,10.1 42.2,10.2 42,10.1 41.8,10.2 41.6,10.3 41.4,10.4 41.2,10.3 41,10.4 40.9,10.4 40.7,10.4 40.5,10.5 
	40.3,10.6 40.1,10.7 39.9,10.7 39.8,10.7 39.6,10.8 39.4,10.8 39.2,10.9 39,10.9 38.8,10.9 38.7,11 38.4,11 38.3,11.1 38.1,11.1 
	37.9,11.1 37.8,11.2 37.5,11.2 37.4,11.3 37.2,11.3 37,11.4 36.8,11.4 36.6,11.5 36.4,11.5 36.3,11.6 36.1,11.6 35.9,11.6 
	35.7,11.6 35.5,11.7 35.3,11.7 35.2,11.8 35,11.9 34.8,11.9 34.6,11.9 34.4,12 34.2,12 34,12 33.9,12.1 33.7,12.1 33.5,12.2 
	33.3,12.3 33.1,12.2 32.9,12.3 32.8,12.4 32.6,12.4 32.4,12.4 32.2,12.4 32,12.5 31.8,12.6 31.6,12.6 31.5,12.6 31.4,12.7 
	31.2,12.6 31,12.6 30.8,12.6 30.6,12.6 30.5,12.6 30.4,12.4 30.2,12.5 30,12.5 29.8,12.4 29.6,12.3 29.5,12.3 29.3,12.2 29.1,12.2 
	28.9,12.2 28.7,12.1 28.5,12 28.4,12 28.2,11.9 28,11.9 27.8,11.9 27.6,11.8 27.4,11.7 27.3,11.6 27.1,11.6 26.9,11.5 26.7,11.6 
	26.5,11.5 26.3,11.4 26.2,11.4 26,11.3 25.8,11.3 25.6,11.2 25.4,11.2 25.2,11.1 25.1,11 24.9,11.1 24.7,10.9 24.5,10.9 24.3,10.8 
	24.2,10.8 "/>
<polygon fill="#594F23" points="16.3,73.9 16.5,73.9 16.7,73.9 16.8,73.8 17,73.9 17.2,73.8 17.4,73.8 17.3,73.5 17.3,73.4 
	17.3,73.2 17.2,73 17.2,72.8 17.2,72.6 17.1,72.5 17.1,72.3 17.1,72.1 17.1,71.9 16.9,71.7 17,71.5 16.9,71.3 16.9,71.1 16.8,71 
	16.8,70.8 16.8,70.6 16.8,70.4 16.8,70.2 16.7,70 16.7,69.8 16.6,69.6 16.5,69.5 16.5,69.3 16.5,69.1 16.5,68.9 16.5,68.7 
	16.6,68.7 16.8,68.8 16.9,68.9 17,69.1 17.1,69.3 17.2,69.4 17.3,69.6 17.5,69.7 17.6,69.8 17.7,69.9 17.9,70.1 18,70.2 18.1,70.4 
	18.2,70.5 18.4,70.6 18.5,70.7 18.6,70.9 18.7,71.1 18.8,71.2 19,71.3 19.1,71.4 19.2,71.6 19.3,71.8 19.5,71.8 19.6,72 19.7,72.1 
	19.8,72.3 20,72.4 20.1,72.5 20.2,72.7 20.4,72.8 20.5,72.9 20.6,73.1 20.7,73.2 20.9,73.4 21,73.2 21.1,73.1 21.3,73 21.4,72.9 
	21.5,72.7 21.7,72.6 21.8,72.5 21.7,72.3 21.6,72.2 21.5,72 21.3,72 21.2,71.8 21.1,71.6 20.9,71.5 20.8,71.4 20.7,71.2 20.6,71.1 
	20.5,71 20.3,70.8 20.2,70.7 20.1,70.6 20,70.4 19.8,70.3 19.7,70.1 19.6,70 19.5,69.8 19.3,69.7 19.2,69.6 19.1,69.4 19,69.3 
	18.8,69.2 18.7,69 18.6,68.9 18.5,68.7 18.4,68.6 18.2,68.4 18.1,68.4 18,68.2 17.9,68 17.8,67.9 17.6,67.8 17.5,67.6 17.3,67.5 
	17.3,67.3 17.1,67.2 16.9,67.1 16.9,66.9 16.7,66.8 16.7,66.6 16.5,66.5 16.4,66.3 16.2,66.3 16.1,66.1 16,65.9 15.9,65.8 
	15.7,65.7 15.6,65.5 15.5,65.4 15.3,65.2 15.3,65.1 15.1,65 15,64.8 14.9,64.7 14.8,64.6 14.6,64.4 14.5,64.3 14.4,64.2 14.2,64 
	14.1,63.9 14,63.7 13.9,63.5 13.7,63.5 13.6,63.3 13.5,63.1 13.3,63.1 13.2,62.9 13.1,62.7 13,62.6 12.9,62.5 12.7,62.3 12.6,62.2 
	12.5,62 12.5,61.8 12.7,61.9 12.9,62 13,61.9 13.2,62 13.4,62.1 13.6,62.1 13.8,62.2 13.9,62.3 14.1,62.3 14.3,62.4 14.5,62.4 
	14.6,62.5 14.9,62.5 15,62.5 15.2,62.7 15.4,62.7 15.6,62.7 15.7,62.8 15.9,62.8 16.1,62.9 16.3,62.9 16.5,63 16.7,63.1 16.8,63.1 
	17,63.2 17.2,63.3 17.4,63.3 17.4,63.1 17.5,62.9 17.5,62.8 17.6,62.6 17.7,62.4 17.7,62.3 17.5,62.2 17.3,62.1 17.1,62.1 16.9,62 
	16.8,61.9 16.6,61.8 16.4,61.8 16.3,61.8 16.1,61.7 15.9,61.6 15.7,61.6 15.5,61.6 15.3,61.4 15.2,61.4 15,61.4 14.8,61.3 
	14.6,61.3 14.5,61.2 14.2,61.2 14.1,61 13.9,61 13.7,60.9 13.5,60.9 13.4,60.8 13.2,60.8 13,60.8 12.9,60.6 12.6,60.6 12.4,60.5 
	12.3,60.5 12.1,60.3 11.9,60.4 11.8,60.3 11.6,60.2 11.4,60.1 11.2,60.1 11.2,60.1 11,60 10.8,59.9 10.7,59.8 10.5,59.8 10.4,59.7 
	10.3,59.5 10.2,59.4 10,59.3 9.9,59.1 9.8,59 9.7,58.8 9.6,58.7 9.4,58.6 9.3,58.4 9.2,58.3 9.1,58.1 9,58 8.8,57.9 8.7,57.7 
	8.6,57.6 8.4,57.5 8.3,57.3 8.2,57.1 8.1,57 8,56.9 7.9,56.7 7.7,56.5 7.6,56.5 7.5,56.3 7.3,56.2 7.2,56.1 7.1,55.9 7,55.7 
	6.9,55.6 6.7,55.4 6.6,55.3 6.5,55.2 6.4,55 6.2,54.9 6.1,54.8 6,54.6 5.9,54.5 5.7,54.4 5.6,54.2 5.5,54.1 5.4,53.9 5.2,53.8 
	5.1,53.6 5,53.5 4.8,53.4 4.8,53.2 4.6,53.1 4.5,52.9 4.4,52.8 4.3,52.6 4.1,52.5 4,52.4 3.8,52.3 3.7,52.1 3.6,51.9 3.5,52.1 
	3.3,52.2 3.2,52.4 3,52.5 2.9,52.6 2.7,52.7 2.6,52.9 2.5,53 2.6,53.1 2.8,53.3 2.9,53.4 3,53.6 3.1,53.7 3.3,53.8 3.4,54 3.5,54.2 
	3.6,54.2 3.7,54.4 3.9,54.6 4,54.7 4.1,54.9 4.2,55 4.4,55.1 4.5,55.3 4.6,55.4 4.7,55.6 4.8,55.7 5,55.8 5.1,56 5.2,56.1 5.4,56.2 
	5.5,56.4 5.6,56.5 5.7,56.7 5.9,56.8 6,56.9 6.2,57.1 6.3,57.2 6.4,57.4 6.5,57.5 6.6,57.6 6.7,57.8 6.9,57.9 7,58.1 7.1,58.2 
	7.3,58.3 7.4,58.5 7.5,58.6 7.7,58.7 7.8,58.9 7.9,59.1 8,59.2 8.2,59.3 8.2,59.5 8.4,59.6 8.5,59.8 8.6,59.9 8.8,60.1 8.9,60.2 
	9,60.3 9.1,60.5 9.3,60.6 9.5,60.8 9.6,60.9 9.6,61.1 9.8,61.2 9.9,61.3 10,61.4 10.1,61.6 10.3,61.7 10.4,61.9 10.6,62 10.7,62.2 
	10.8,62.3 10.9,62.5 11,62.6 11.2,62.7 11.2,62.9 11.4,63.1 11.5,63.2 11.6,63.3 11.8,63.5 11.9,63.6 12,63.7 12.2,63.9 12.3,64 
	12.4,64.2 12.5,64.3 12.6,64.5 12.8,64.6 12.9,64.7 13,64.9 13.1,65 13.3,65.1 13.4,65.3 13.5,65.5 13.7,65.6 13.8,65.7 13.9,65.9 
	14,66 14.2,66.1 14.3,66.3 14.4,66.4 14.5,66.5 14.5,66.7 14.6,66.9 14.6,67 14.7,67.2 14.8,67.3 14.8,67.4 14.9,67.6 14.9,67.8 
	15,68 15,68.2 15,68.4 15.1,68.5 15.1,68.7 15.2,68.9 15.2,69.1 15.2,69.3 15.3,69.5 15.3,69.7 15.3,69.9 15.4,70 15.4,70.2 
	15.5,70.4 15.6,70.6 15.6,70.8 15.6,71 15.7,71.1 15.7,71.3 15.8,71.5 15.9,71.7 15.8,71.9 15.9,72.1 16,72.3 16,72.5 16,72.6 
	16,72.8 16.1,73 16.2,73.2 16.1,73.4 16.2,73.5 16.3,73.7 "/>
<polygon fill="#594F23" points="26.6,48.2 26.4,48.3 26.3,48.5 26.1,48.5 26,48.7 25.8,48.8 25.7,48.9 25.8,49.1 25.9,49.2 26,49.4 
	26.1,49.5 26.2,49.7 26.3,49.8 26.5,50 26.5,50.1 26.6,50.3 26.8,50.4 26.9,50.6 27,50.7 27.1,50.9 27.3,51 27.3,51.2 27.4,51.4 
	27.6,51.5 27.7,51.7 27.8,51.8 27.9,52 28.1,52.1 28.1,52.3 28.2,52.5 28.4,52.6 28.5,52.7 28.6,52.9 28.7,53.1 28.5,53.1 28.4,53 
	28.2,52.9 28,52.9 27.9,52.9 27.7,52.7 27.6,52.7 27.4,52.6 27.2,52.6 27,52.5 26.9,52.4 26.7,52.3 26.5,52.2 26.3,52.2 26.2,52.1 
	26,52 25.8,52 25.6,51.9 25.5,51.8 25.3,51.8 25.1,51.7 25,51.6 24.8,51.5 24.6,51.5 24.4,51.5 24.3,51.4 24.1,51.3 23.9,51.2 
	23.8,51.1 23.6,51.1 23.4,51.1 23.2,51 23.1,50.9 22.9,50.8 22.7,50.7 22.7,50.9 22.5,51.1 22.5,51.2 22.5,51.5 22.4,51.6 
	22.3,51.8 22.2,52 22.4,52 22.6,52.1 22.7,52.2 22.9,52.3 23.1,52.3 23.2,52.4 23.5,52.5 23.6,52.5 23.7,52.6 24,52.7 24.1,52.8 
	24.3,52.8 24.4,52.9 24.7,52.9 24.8,53 25,53.1 25.2,53.1 25.4,53.2 25.5,53.3 25.7,53.4 25.8,53.4 26.1,53.5 26.2,53.6 26.4,53.7 
	26.5,53.8 26.7,53.8 26.9,53.9 27.1,53.9 27.2,54 27.4,54.1 27.6,54.2 27.7,54.2 27.9,54.4 28.1,54.4 28.3,54.4 28.4,54.5 
	28.6,54.6 28.8,54.7 28.9,54.7 29.1,54.8 29.3,54.9 29.5,55 29.6,55.1 29.8,55.1 30,55.2 30.1,55.2 30.3,55.3 30.5,55.4 30.7,55.4 
	30.8,55.5 31,55.6 31.2,55.7 31.4,55.7 31.5,55.9 31.7,55.9 31.9,56 32,56.1 32.2,56.1 32.4,56.2 32.6,56.3 32.7,56.4 32.9,56.4 
	33.1,56.4 33.3,56.5 33.4,56.6 33.6,56.7 33.8,56.7 34,56.8 34.1,56.9 34.3,57 34.5,57.1 34.7,57.1 34.8,57.2 35,57.3 35.2,57.4 
	35.2,57.5 35.1,57.5 34.9,57.6 34.7,57.6 34.5,57.6 34.4,57.7 34.2,57.8 34,57.8 33.8,57.8 33.6,57.8 33.4,57.9 33.2,57.9 33,57.9 
	32.9,57.9 32.7,57.9 32.5,58 32.3,58 32.1,58 31.9,58 31.7,58.1 31.5,58.1 31.4,58.2 31.2,58.2 31,58.2 30.8,58.2 30.6,58.3 
	30.4,58.3 30.3,58.3 30.2,58.5 30.3,58.7 30.3,58.8 30.3,59 30.4,59.2 30.4,59.4 30.6,59.4 30.8,59.4 31,59.3 31.2,59.3 31.4,59.3 
	31.5,59.3 31.7,59.3 31.9,59.2 32.1,59.2 32.3,59.1 32.5,59.2 32.7,59.1 32.9,59.1 33,59 33.2,59.1 33.4,59 33.6,59 33.8,58.9 
	34,58.8 34.2,58.8 34.4,58.9 34.5,58.8 34.7,58.8 34.9,58.8 35.1,58.8 35.3,58.8 35.5,58.7 35.7,58.7 35.9,58.6 36,58.6 36.2,58.6 
	36.4,58.7 36.6,58.6 36.8,58.6 37,58.6 37.2,58.6 37.2,58.5 37.4,58.6 37.5,58.5 37.7,58.6 37.9,58.5 38.1,58.6 38.2,58.7 
	38.4,58.8 38.6,58.8 38.7,58.9 38.9,59 39.1,59 39.3,59.1 39.4,59.2 39.6,59.2 39.8,59.3 39.9,59.3 40.1,59.4 40.3,59.5 40.5,59.6 
	40.6,59.6 40.8,59.8 41,59.8 41.1,59.9 41.3,59.9 41.5,60 41.7,60.1 41.8,60.2 42,60.2 42.2,60.3 42.4,60.4 42.5,60.5 42.7,60.6 
	42.9,60.6 43.1,60.7 43.2,60.7 43.4,60.8 43.6,60.9 43.7,61 43.9,61.1 44.1,61.1 44.3,61.2 44.4,61.3 44.6,61.3 44.8,61.4 45,61.4 
	45.1,61.5 45.3,61.6 45.5,61.7 45.7,61.7 45.8,61.8 46,61.9 46.2,62 46.3,62 46.5,62.1 46.7,62.1 46.8,62.3 47,62.3 47.2,62.4 
	47.4,62.5 47.5,62.5 47.7,62.4 47.7,62.2 47.8,62 47.8,61.8 47.9,61.7 48,61.5 48.1,61.3 48.1,61.1 47.9,61.1 47.8,60.9 47.6,60.9 
	47.4,60.8 47.2,60.8 47,60.8 46.9,60.7 46.7,60.6 46.5,60.5 46.3,60.4 46.2,60.3 46,60.3 45.8,60.2 45.7,60.1 45.5,60.1 45.3,60 
	45.2,59.8 45,59.8 44.8,59.7 44.6,59.7 44.4,59.6 44.3,59.5 44.1,59.5 43.9,59.4 43.7,59.3 43.6,59.3 43.4,59.2 43.2,59.1 43.1,59 
	42.9,59 42.7,58.9 42.5,58.8 42.4,58.7 42.2,58.6 42,58.6 41.8,58.6 41.7,58.4 41.5,58.3 41.3,58.3 41.2,58.2 41,58.1 40.8,58 
	40.6,58 40.5,57.9 40.3,57.8 40.1,57.8 39.9,57.7 39.7,57.6 39.5,57.6 39.4,57.5 39.2,57.4 39.1,57.3 38.8,57.3 38.7,57.2 
	38.5,57.2 38.3,57.1 38.2,57 38,57 37.8,56.8 37.6,56.8 37.5,56.7 37.3,56.7 37.1,56.6 36.9,56.5 36.8,56.4 36.6,56.3 36.4,56.3 
	36.2,56.2 36.1,56.1 35.9,56 35.7,56 35.5,55.9 35.3,55.9 35.2,55.7 35,55.7 34.8,55.6 34.6,55.5 34.5,55.4 34.3,55.4 34.1,55.3 
	34,55.3 33.8,55.2 33.6,55.1 33.5,55 33.3,55 33.1,54.9 32.9,54.8 32.7,54.7 32.6,54.7 32.4,54.6 32.2,54.5 32,54.5 31.9,54.4 
	31.7,54.2 31.5,54.2 31.4,54.2 31.3,54 31.1,53.9 31,53.8 30.9,53.7 30.8,53.6 30.7,53.5 30.6,53.3 30.5,53.2 30.4,53 30.3,52.9 
	30.1,52.7 30,52.6 29.9,52.5 29.8,52.3 29.6,52.2 29.5,52 29.4,51.9 29.3,51.7 29.2,51.6 29,51.4 29,51.2 28.8,51.1 28.7,51 
	28.6,50.8 28.4,50.7 28.4,50.5 28.2,50.3 28.1,50.2 28,50 27.9,49.9 27.7,49.8 27.6,49.6 27.6,49.5 27.4,49.3 27.3,49.2 27.2,49 
	27,48.9 26.9,48.7 26.8,48.6 26.7,48.4 "/>
<polygon fill="#594F23" points="14.4,21.3 14.5,21.5 14.6,21.7 14.8,21.8 14.9,21.9 15,22.1 15.1,22.2 15.2,22.4 15.3,22.5 
	15.5,22.7 15.6,22.8 15.7,23 15.8,23.1 16,23.2 16,23.4 16.2,23.6 16.3,23.7 16.4,23.9 16.5,24 16.6,24.2 16.7,24.3 16.9,24.5 
	17,24.6 17.1,24.8 17.2,24.9 17.3,25.1 17.5,25.2 17.6,25.4 17.7,25.5 17.8,25.7 17.9,25.8 18,26 18.1,26.2 18.2,26.3 18.4,26.5 
	18.4,26.6 18.5,26.6 18.6,26.8 18.7,27 18.7,27.1 18.8,27.3 18.9,27.4 19,27.6 18.9,27.8 18.9,28 19,28.2 19,28.4 19.1,28.5 
	19.1,28.7 19.1,28.9 19.2,29.1 19.2,29.3 19.3,29.5 19.3,29.6 19.3,29.8 19.3,30 19.3,30.2 19.4,30.4 19.4,30.6 19.4,30.8 19.5,31 
	19.4,31.1 19.5,31.3 19.5,31.5 19.6,31.7 19.6,31.9 19.7,32.1 19.7,32.3 19.7,32.4 19.7,32.6 19.7,32.8 19.8,33 19.8,33.2 
	19.8,33.4 19.8,33.6 19.8,33.8 19.9,33.9 19.9,34.1 19.9,34.3 19.9,34.5 20.1,34.7 20.1,34.9 20.1,35 20.1,35.2 20.1,35.4 
	20.2,35.6 20.2,35.8 20.2,36 20.3,36.2 20.3,36.4 20.3,36.5 20.4,36.7 20.3,36.9 20.4,37.1 20.5,37.3 20.5,37.5 20.5,37.7 
	20.5,37.9 20.6,38 20.5,38.2 20.6,38.4 20.6,38.6 20.6,38.8 20.6,39 20.7,39.2 20.7,39.4 20.8,39.5 20.8,39.7 20.9,39.9 20.9,40.1 
	20.9,40.3 20.9,40.5 20.9,40.7 20.9,40.9 21,41 21,41.2 21,41.4 21.1,41.6 21.1,41.8 21.1,42 21.2,42.2 21.2,42.4 21.2,42.5 
	21.3,42.7 21.3,42.9 21.3,43.1 21.3,43.3 21.4,43.5 21.4,43.7 21.4,43.9 21.4,44 21.4,44.2 21.5,44.4 21.6,44.6 21.6,44.8 21.6,45 
	21.6,45.2 21.8,45.1 22,45.1 22.2,45.1 22.4,45.1 22.5,45.1 22.7,45.1 22.9,45 23.1,45 23.1,44.8 23.1,44.6 23.1,44.4 23.1,44.2 
	22.9,44 22.9,43.9 22.9,43.7 22.9,43.5 22.8,43.3 22.8,43.1 22.8,42.9 22.7,42.8 22.8,42.6 22.8,42.4 22.7,42.2 22.7,42 22.7,41.8 
	22.5,41.7 22.5,41.5 22.5,41.3 22.6,41.1 22.5,40.9 22.5,40.7 22.4,40.6 22.4,40.3 22.4,40.2 22.4,40 22.4,39.8 22.3,39.6 
	22.2,39.4 22.3,39.3 22.2,39.1 22.2,38.9 22.2,38.7 22.2,38.5 22.1,38.3 22.1,38.2 22,38 22,37.8 21.9,37.6 22,37.4 21.9,37.2 
	21.9,37 21.8,36.8 21.9,36.7 21.8,36.5 21.8,36.3 21.7,36.1 21.7,35.9 21.7,35.7 21.7,35.6 21.6,35.4 21.6,35.2 21.6,35 21.5,34.8 
	21.6,34.6 21.6,34.5 21.6,34.3 21.6,34.1 21.7,33.9 21.7,33.9 21.8,33.8 21.8,33.6 21.9,33.4 22,33.2 22.1,33.1 22.1,32.9 
	22.1,32.7 22.3,32.5 22.3,32.3 22.4,32.2 22.4,32 22.5,31.8 22.5,31.6 22.7,31.5 22.7,31.3 22.8,31.1 22.8,30.9 23,30.8 23.1,30.6 
	23.1,30.4 23.2,30.2 23.2,30 23.3,29.9 23.3,29.7 23.4,29.5 23.5,29.3 23.6,29.2 23.7,29 23.7,28.8 23.8,28.6 23.9,28.5 24,28.3 
	24,28.1 24,27.9 24.2,27.8 24.2,27.6 24,27.5 23.9,27.4 23.7,27.4 23.5,27.3 23.4,27.2 23.2,27.1 23.2,27.3 23,27.5 22.9,27.7 
	22.9,27.8 22.8,28 22.8,28.2 22.7,28.4 22.7,28.5 22.6,28.7 22.5,28.9 22.4,29 22.3,29.2 22.2,29.4 22.2,29.6 22.1,29.7 22,29.9 
	21.9,30.1 21.9,30.3 21.8,30.5 21.7,30.6 21.7,30.8 21.6,31 21.5,31.2 21.4,31.3 21.3,31.5 21.3,31.7 21.2,31.8 21,31.7 21,31.5 
	21,31.3 20.9,31.2 20.9,31 20.9,30.8 20.8,30.6 20.9,30.4 20.9,30.2 20.8,30 20.7,29.9 20.8,29.7 20.7,29.5 20.7,29.3 20.7,29.1 
	20.6,28.9 20.6,28.8 20.6,28.6 20.5,28.4 20.5,28.2 20.5,28 20.5,27.8 20.4,27.7 20.5,27.4 20.4,27.3 20.3,27.1 20.3,26.9 
	20.3,26.7 20.3,26.5 20.2,26.3 20.2,26.2 20.2,26 20.2,25.8 20.1,25.6 20.1,25.4 20.1,25.2 20.1,25.1 20,24.9 20,24.7 19.9,24.5 
	19.9,24.3 19.9,24.1 19.9,23.9 19.8,23.8 19.8,23.6 19.8,23.4 19.8,23.2 19.8,23 19.7,22.8 19.6,22.6 19.7,22.5 19.7,22.3 
	19.6,22.1 19.5,21.9 19.6,21.7 19.5,21.6 19.5,21.4 19.5,21.2 19.4,21 19.4,20.8 19.4,20.6 19.3,20.5 19.3,20.2 19.3,20.1 
	19.3,19.9 19.2,19.7 19.2,19.5 19.1,19.3 19.1,19.1 19.1,19 19.1,18.8 19.1,18.6 19,18.4 19,18.2 19,18 19,17.8 18.8,17.8 
	18.6,17.9 18.4,17.9 18.2,18 18,18 17.8,18 17.6,18 17.7,18.2 17.7,18.4 17.7,18.6 17.8,18.8 17.8,19 17.8,19.1 17.9,19.3 
	17.9,19.5 17.9,19.7 17.9,19.9 17.9,20.1 17.9,20.2 18,20.4 18,20.6 18.1,20.8 18,21 18.2,21.2 18.2,21.3 18.2,21.5 18.1,21.7 
	18.2,21.9 18.2,22.1 18.3,22.2 18.3,22.4 18.3,22.6 18.3,22.8 18.3,23 18.4,23.2 18.4,23.3 18.4,23.5 18.5,23.7 18.5,23.9 
	18.5,24.1 18.5,24.3 18.5,24.4 18.3,24.2 18.2,24.1 18,24 17.9,23.8 17.8,23.7 17.7,23.5 17.6,23.4 17.5,23.2 17.3,23.1 17.2,22.9 
	17.1,22.8 17,22.6 16.9,22.5 16.7,22.4 16.6,22.2 16.5,22.1 16.4,21.9 16.3,21.7 16.1,21.6 16,21.4 15.9,21.3 15.8,21.2 15.6,21 
	15.6,20.9 15.4,20.7 15.3,20.6 15.2,20.5 15,20.6 14.9,20.7 14.7,20.8 14.6,20.9 14.4,21 14.3,21.2 "/>
<polygon fill="#594F23" points="7.2,43.5 7.1,43.3 7.1,43.1 7.1,42.9 7,42.8 6.9,42.6 6.9,42.4 6.8,42.2 6.8,42.1 6.7,41.8 
	6.6,41.7 6.6,41.5 6.5,41.3 6.5,41.2 6.4,41 6.4,40.8 6.3,40.6 6.2,40.4 6.2,40.2 6.2,40.1 6.1,39.9 6,39.7 5.9,39.5 5.9,39.3 
	5.9,39.1 5.8,39 5.7,38.8 5.6,38.6 5.6,38.4 5.5,38.3 5.5,38 5.5,37.9 5.4,37.7 5.4,37.5 5.4,37.3 5.3,37.1 5.2,37.1 5.2,36.9 
	5.2,36.7 5.2,36.5 5.2,36.4 5.2,36.2 5.2,36.1 5.2,35.9 5.2,35.7 5.3,35.5 5.4,35.3 5.4,35.1 5.4,35 5.5,34.8 5.4,34.6 5.5,34.4 
	5.5,34.2 5.6,34 5.6,33.8 5.6,33.7 5.7,33.5 5.8,33.3 5.7,33.1 5.8,32.9 5.9,32.7 5.9,32.5 5.9,32.3 5.9,32.2 6,32 6,31.8 6.1,31.6 
	6.2,31.5 6.1,31.2 6.1,31.1 6.3,30.9 6.3,30.7 6.3,30.5 6.4,30.3 6.4,30.1 6.4,30 6.5,29.8 6.5,29.6 6.6,29.4 6.6,29.2 6.6,29 
	6.7,28.9 6.7,28.7 6.7,28.5 6.8,28.3 6.9,28.1 6.8,27.9 6.9,27.7 7,27.5 7,27.4 7,27.2 7,27 7.1,26.8 7.1,26.6 7.1,26.5 7.1,26.3 
	7.3,26.1 7.3,25.9 7.3,25.7 7.3,25.5 7.4,25.4 7.4,25.1 7.4,25 7.5,24.8 7.5,24.6 7.5,24.4 7.6,24.2 7.6,24 7.7,23.9 7.7,23.6 
	7.8,23.5 7.8,23.3 7.8,23.1 7.8,22.9 7.9,22.7 8,22.5 8,22.4 8,22.2 8.1,22 8.1,21.8 8.1,21.6 8.2,21.4 8.2,21.3 8.2,21 8.3,20.9 
	8.4,20.7 8.4,20.5 8.4,20.3 8.4,20.1 8.5,19.9 8.5,19.8 8.5,19.6 8.6,19.4 8.7,19.2 8.7,19 8.7,18.8 8.8,18.7 8.6,18.6 8.4,18.5 
	8.2,18.5 8,18.4 7.8,18.5 7.7,18.4 7.5,18.3 7.3,18.3 7.3,18.5 7.2,18.7 7.2,18.9 7.1,19.1 7.1,19.2 7,19.4 7,19.6 7,19.8 7,20 
	6.9,20.1 6.8,20.3 6.8,20.5 6.8,20.7 6.7,20.9 6.7,21 6.7,21.2 6.6,21.4 6.6,21.6 6.6,21.8 6.5,22 6.5,22.1 6.4,22.3 6.5,22.5 
	6.3,22.7 6.4,22.9 6.3,23.1 6.3,23.3 6.2,23.4 6.2,23.6 6.2,23.8 6.1,24 6,24.1 6.1,24.4 6,24.6 6,24.7 5.9,24.9 5.9,25.1 5.8,25.2 
	5.8,25.5 5.8,25.6 5.8,25.8 5.6,26 5.6,26.2 5.6,26.4 5.6,26.6 5.6,26.7 5.5,26.9 5.5,27.1 5.4,27.3 5.4,27.5 5.3,27.7 5.3,27.8 
	5.3,28 5.3,28.2 5.2,28.4 5.1,28.5 5.1,28.7 5,28.8 4.8,29 4.7,29.1 4.8,29.2 4.6,29.3 4.5,29.5 4.4,29.6 4.3,29.7 4.1,29.9 4,30 
	3.9,30.2 3.7,30.3 3.6,30.4 3.5,30.6 3.3,30.7 3.3,30.9 3.2,31 3.1,31.2 2.9,31.3 2.7,31.4 2.6,31.6 2.5,31.7 2.4,31.9 2.2,32 
	2.1,32.2 2,32.3 1.9,32.4 1.7,32.6 1.6,32.7 1.4,32.8 1.4,33 1.2,33.1 1.1,33.3 1,33.4 0.9,33.5 0.7,33.7 0.6,33.8 0.5,34 0.3,34.1 
	0.2,34.2 0.3,34.4 0.5,34.5 0.6,34.6 0.7,34.8 0.9,34.9 1,35 1.2,34.9 1.3,34.8 1.4,34.6 1.6,34.5 1.6,34.3 1.8,34.2 1.9,34.1 
	2,33.9 2.2,33.8 2.3,33.6 2.4,33.5 2.6,33.4 2.7,33.2 2.8,33.1 2.9,33 3.1,32.8 3.2,32.7 3.3,32.5 3.5,32.4 3.6,32.3 3.7,32.1 
	3.9,32 4,31.9 4.1,31.7 4.3,31.6 4.4,31.4 4.5,31.4 4.6,31.5 4.6,31.6 4.5,31.8 4.5,32 4.4,32.2 4.4,32.4 4.4,32.6 4.4,32.8 
	4.3,32.9 4.3,33.1 4.2,33.3 4.1,33.5 4.1,33.7 4.1,33.8 4.1,34 4,34.2 4,34.4 3.9,34.6 4,34.8 3.9,34.9 3.8,35.1 3.9,35.3 3.8,35.5 
	3.7,35.7 3.7,35.8 3.7,36.1 3.7,36.3 3.5,36.4 3.6,36.6 3.5,36.8 3.5,36.9 3.5,37.1 3.4,37.3 3.4,37.5 3.3,37.7 3.3,37.9 3.2,38 
	3.2,38.2 3.2,38.4 3.1,38.6 3.1,38.8 3,39 3,39.1 3,39.3 3,39.5 2.9,39.7 2.9,39.9 2.8,40.1 2.8,40.2 2.7,40.4 2.7,40.6 2.7,40.8 
	2.6,41 2.6,41.2 2.6,41.4 2.5,41.5 2.5,41.7 2.5,41.9 2.4,42.1 2.4,42.3 2.3,42.4 2.2,42.6 2.3,42.8 2.2,43 2.2,43.2 2.2,43.4 
	2.1,43.6 2.1,43.7 2,43.9 2,44.1 2,44.3 1.9,44.4 1.8,44.6 1.8,44.8 1.8,45 1.8,45.2 1.9,45.3 2.1,45.3 2.3,45.3 2.5,45.3 2.7,45.4 
	2.9,45.5 3.1,45.5 3.1,45.3 3.2,45.1 3.2,45 3.2,44.8 3.3,44.6 3.2,44.4 3.3,44.2 3.4,44 3.3,43.9 3.5,43.7 3.5,43.5 3.6,43.3 
	3.5,43.1 3.6,42.9 3.6,42.8 3.6,42.6 3.7,42.4 3.7,42.2 3.8,42 3.8,41.8 3.9,41.7 3.9,41.5 4,41.3 4,41.2 4,40.9 4,40.7 4.1,40.6 
	4.1,40.4 4.2,40.2 4.2,40.1 4.2,39.8 4.3,39.7 4.4,39.5 4.3,39.3 4.5,39.2 4.6,39.4 4.7,39.6 4.7,39.8 4.8,39.9 4.8,40.1 5,40.3 
	5,40.5 5,40.7 5.1,40.8 5.1,41 5.2,41.2 5.3,41.4 5.4,41.6 5.4,41.8 5.5,41.9 5.5,42.1 5.6,42.3 5.6,42.5 5.7,42.7 5.8,42.8 5.9,43 
	5.9,43.2 6,43.3 6,43.5 6.1,43.7 6.2,43.9 6.2,44 6.4,44 6.6,43.9 6.7,43.9 6.9,43.9 7.1,43.7 7.3,43.7 "/>
<polygon fill="#594F23" points="76.2,50.1 76.1,49.9 76,49.7 76,49.6 75.9,49.4 75.7,49.3 75.7,49.1 75.6,48.9 75.6,48.7 75.4,48.6 
	75.4,48.4 75.3,48.2 75.2,48.1 75.1,47.9 75,47.7 75,47.5 74.8,47.4 74.8,47.2 74.7,47 74.5,46.9 74.5,46.7 74.4,46.5 74.3,46.3 
	74.2,46.2 74.2,46 74.1,45.8 74.1,45.6 73.9,45.5 73.8,45.3 73.8,45.1 73.7,45 73.6,44.8 73.5,44.6 73.4,44.5 73.3,44.3 73.3,44.1 
	73.3,44 73.3,43.9 73.2,43.7 73.1,43.5 73,43.4 73,43.2 73.1,43.1 73,42.9 73,42.7 73,42.5 73.1,42.3 73.1,42.1 73,41.9 73.1,41.7 
	73.1,41.6 73.1,41.4 73.1,41.2 73.1,41 73.1,40.8 73.1,40.6 73.1,40.4 73.1,40.2 73.1,40.1 73.1,39.8 73.1,39.7 73.2,39.5 
	73.2,39.3 73.2,39.1 73.2,38.9 73.3,38.7 73.2,38.5 73.2,38.3 73.3,38.2 73.2,38 73.3,37.8 73.3,37.6 73.3,37.4 73.3,37.2 73.3,37 
	73.3,36.8 73.3,36.7 73.3,36.5 73.3,36.3 73.4,36.1 73.3,35.9 73.3,35.7 73.4,35.5 73.4,35.3 73.4,35.2 73.3,34.9 73.4,34.8 
	73.4,34.6 73.4,34.4 73.4,34.2 73.5,34 73.4,33.8 73.4,33.6 73.5,33.4 73.4,33.3 73.4,33.1 73.5,32.9 73.5,32.7 73.5,32.5 
	73.5,32.3 73.5,32.1 73.5,31.9 73.6,31.8 73.6,31.5 73.6,31.4 73.5,31.2 73.6,31 73.6,30.8 73.5,30.6 73.6,30.4 73.6,30.2 73.6,30 
	73.6,29.9 73.6,29.6 73.7,29.5 73.7,29.3 73.7,29.1 73.7,28.9 73.7,28.7 73.6,28.5 73.7,28.3 73.7,28.1 73.7,28 73.7,27.8 
	73.7,27.5 73.8,27.4 73.7,27.2 73.8,27 73.8,26.8 73.8,26.6 73.8,26.4 73.8,26.2 73.8,26.1 73.8,25.9 73.8,25.7 73.8,25.5 
	73.9,25.3 73.7,25.2 73.4,25.3 73.3,25.3 73.1,25.3 72.9,25.2 72.7,25.2 72.5,25.2 72.3,25.2 72.3,25.4 72.3,25.6 72.3,25.8 
	72.2,25.9 72.3,26.1 72.3,26.3 72.2,26.5 72.2,26.7 72.3,26.9 72.2,27.1 72.2,27.3 72.2,27.4 72.2,27.6 72.2,27.8 72.2,28 
	72.2,28.2 72.2,28.4 72.2,28.5 72.1,28.8 72.2,28.9 72.2,29.1 72.1,29.3 72.1,29.5 72.2,29.7 72.1,29.9 72.1,30 72.1,30.2 
	72.1,30.4 72.1,30.6 72,30.8 72.1,31 72.1,31.2 72.1,31.4 72,31.5 72,31.7 72,31.9 72.1,32.1 72,32.3 71.9,32.5 72,32.7 71.9,32.9 
	72,33 72,33.2 72,33.4 71.9,33.6 72,33.8 71.9,34 71.9,34.2 71.9,34.4 71.9,34.5 71.8,34.7 71.8,34.9 71.8,35.1 71.9,35.3 
	71.9,35.5 71.8,35.6 71.8,35.8 71.6,35.9 71.5,36.1 71.5,36.3 71.5,36.3 71.4,36.5 71.3,36.6 71.2,36.8 71.1,36.9 71,37.1 
	70.9,37.3 70.8,37.4 70.7,37.6 70.6,37.8 70.6,37.9 70.4,38.1 70.4,38.3 70.2,38.4 70.1,38.5 70,38.7 69.9,38.9 69.9,39.1 
	69.7,39.2 69.6,39.4 69.5,39.5 69.4,39.7 69.3,39.8 69.2,40 69.1,40.1 69,40.3 68.9,40.5 68.8,40.6 68.6,40.7 68.5,40.9 68.5,41.1 
	68.4,41.3 68.2,41.4 68.2,41.6 68.1,41.7 67.9,41.9 67.8,42.1 68,42.2 68.1,42.3 68.3,42.4 68.4,42.5 68.6,42.6 68.8,42.7 
	68.9,42.5 69,42.4 69.1,42.2 69.2,42.1 69.3,41.9 69.4,41.7 69.5,41.6 69.6,41.4 69.7,41.3 69.8,41.1 69.9,40.9 70,40.8 70.1,40.6 
	70.3,40.5 70.3,40.3 70.5,40.2 70.6,40.1 70.7,39.9 70.8,39.7 70.9,39.6 71,39.4 71.1,39.2 71.2,39.1 71.3,38.9 71.4,38.7 
	71.5,38.6 71.6,38.4 71.8,38.6 71.7,38.8 71.8,39 71.8,39.2 71.7,39.4 71.7,39.5 71.7,39.7 71.6,39.9 71.7,40.1 71.6,40.3 
	71.6,40.5 71.6,40.7 71.6,40.9 71.6,41 71.6,41.2 71.6,41.4 71.6,41.6 71.6,41.8 71.6,42 71.6,42.2 71.6,42.4 71.5,42.5 71.5,42.7 
	71.5,42.9 71.6,43.1 71.5,43.3 71.5,43.5 71.5,43.6 71.5,43.9 71.5,44 71.5,44.2 71.4,44.4 71.4,44.6 71.5,44.8 71.5,45 71.4,45.1 
	71.5,45.3 71.4,45.5 71.5,45.7 71.4,45.9 71.4,46.1 71.4,46.3 71.4,46.5 71.4,46.6 71.4,46.8 71.4,47 71.3,47.2 71.3,47.4 
	71.3,47.6 71.3,47.8 71.3,48 71.3,48.1 71.3,48.3 71.3,48.5 71.2,48.7 71.3,48.9 71.2,49 71.2,49.2 71.2,49.5 71.2,49.6 71.2,49.8 
	71.2,50 71.2,50.2 71.2,50.4 71.2,50.5 71.2,50.7 71.2,50.9 71.2,51.1 71.2,51.3 71.2,51.5 71.1,51.7 71.1,51.9 71.1,52 71.1,52.2 
	71.1,52.5 71.1,52.6 71.3,52.6 71.5,52.6 71.6,52.6 71.8,52.7 72,52.7 72.2,52.7 72.4,52.7 72.4,52.5 72.5,52.3 72.4,52.1 
	72.4,51.9 72.4,51.8 72.5,51.6 72.5,51.4 72.5,51.2 72.5,51 72.5,50.8 72.6,50.7 72.5,50.5 72.5,50.3 72.5,50.1 72.6,49.9 
	72.6,49.7 72.6,49.6 72.6,49.4 72.6,49.2 72.6,49 72.6,48.8 72.6,48.6 72.7,48.4 72.6,48.2 72.7,48.1 72.6,47.9 72.7,47.7 
	72.7,47.5 72.7,47.3 72.7,47.1 72.7,47 72.7,46.8 72.7,46.6 72.7,46.4 72.8,46.3 73,46.5 73,46.7 73.2,46.8 73.3,46.9 73.3,47.1 
	73.4,47.3 73.5,47.5 73.6,47.6 73.7,47.8 73.8,48 73.9,48.1 74,48.3 74.1,48.5 74.2,48.6 74.2,48.8 74.3,49 74.4,49.2 74.5,49.3 
	74.6,49.5 74.7,49.6 74.8,49.8 74.9,50 75,50.1 75,50.3 75.1,50.5 75.2,50.7 75.3,50.8 75.5,50.8 75.6,50.6 75.8,50.5 76,50.4 
	76.1,50.4 76.3,50.3 "/>
</svg>
